%TF.GenerationSoftware,KiCad,Pcbnew,7.0.1*%
%TF.CreationDate,2023-05-22T21:01:38-04:00*%
%TF.ProjectId,PCB_USB_TTL,5043425f-5553-4425-9f54-544c2e6b6963,rev?*%
%TF.SameCoordinates,Original*%
%TF.FileFunction,Legend,Top*%
%TF.FilePolarity,Positive*%
%FSLAX46Y46*%
G04 Gerber Fmt 4.6, Leading zero omitted, Abs format (unit mm)*
G04 Created by KiCad (PCBNEW 7.0.1) date 2023-05-22 21:01:38*
%MOMM*%
%LPD*%
G01*
G04 APERTURE LIST*
G04 Aperture macros list*
%AMRoundRect*
0 Rectangle with rounded corners*
0 $1 Rounding radius*
0 $2 $3 $4 $5 $6 $7 $8 $9 X,Y pos of 4 corners*
0 Add a 4 corners polygon primitive as box body*
4,1,4,$2,$3,$4,$5,$6,$7,$8,$9,$2,$3,0*
0 Add four circle primitives for the rounded corners*
1,1,$1+$1,$2,$3*
1,1,$1+$1,$4,$5*
1,1,$1+$1,$6,$7*
1,1,$1+$1,$8,$9*
0 Add four rect primitives between the rounded corners*
20,1,$1+$1,$2,$3,$4,$5,0*
20,1,$1+$1,$4,$5,$6,$7,0*
20,1,$1+$1,$6,$7,$8,$9,0*
20,1,$1+$1,$8,$9,$2,$3,0*%
G04 Aperture macros list end*
%ADD10C,0.150000*%
%ADD11C,0.200000*%
%ADD12C,0.100000*%
%ADD13C,0.120000*%
%ADD14RoundRect,0.150000X0.825000X0.150000X-0.825000X0.150000X-0.825000X-0.150000X0.825000X-0.150000X0*%
%ADD15RoundRect,0.250000X-0.625000X0.400000X-0.625000X-0.400000X0.625000X-0.400000X0.625000X0.400000X0*%
%ADD16RoundRect,0.250000X0.650000X-0.412500X0.650000X0.412500X-0.650000X0.412500X-0.650000X-0.412500X0*%
%ADD17RoundRect,0.250001X-0.462499X-0.624999X0.462499X-0.624999X0.462499X0.624999X-0.462499X0.624999X0*%
%ADD18R,1.500000X2.000000*%
%ADD19R,3.800000X2.000000*%
%ADD20RoundRect,0.250000X0.625000X-0.400000X0.625000X0.400000X-0.625000X0.400000X-0.625000X-0.400000X0*%
%ADD21RoundRect,0.250000X0.400000X0.625000X-0.400000X0.625000X-0.400000X-0.625000X0.400000X-0.625000X0*%
%ADD22RoundRect,0.250000X-0.412500X-0.650000X0.412500X-0.650000X0.412500X0.650000X-0.412500X0.650000X0*%
%ADD23RoundRect,0.250000X-0.400000X-0.625000X0.400000X-0.625000X0.400000X0.625000X-0.400000X0.625000X0*%
%ADD24R,0.400000X0.650000*%
%ADD25C,0.650000*%
%ADD26R,0.300000X1.150000*%
%ADD27O,1.000000X2.100000*%
%ADD28O,1.000000X1.600000*%
%ADD29R,0.450000X2.000000*%
%ADD30R,1.700000X1.700000*%
%ADD31O,1.700000X1.700000*%
G04 APERTURE END LIST*
D10*
X136111905Y-68512619D02*
X136730952Y-68512619D01*
X136730952Y-68512619D02*
X136397619Y-68893571D01*
X136397619Y-68893571D02*
X136540476Y-68893571D01*
X136540476Y-68893571D02*
X136635714Y-68941190D01*
X136635714Y-68941190D02*
X136683333Y-68988809D01*
X136683333Y-68988809D02*
X136730952Y-69084047D01*
X136730952Y-69084047D02*
X136730952Y-69322142D01*
X136730952Y-69322142D02*
X136683333Y-69417380D01*
X136683333Y-69417380D02*
X136635714Y-69465000D01*
X136635714Y-69465000D02*
X136540476Y-69512619D01*
X136540476Y-69512619D02*
X136254762Y-69512619D01*
X136254762Y-69512619D02*
X136159524Y-69465000D01*
X136159524Y-69465000D02*
X136111905Y-69417380D01*
X137016667Y-68512619D02*
X137350000Y-69512619D01*
X137350000Y-69512619D02*
X137683333Y-68512619D01*
X137921429Y-68512619D02*
X138540476Y-68512619D01*
X138540476Y-68512619D02*
X138207143Y-68893571D01*
X138207143Y-68893571D02*
X138350000Y-68893571D01*
X138350000Y-68893571D02*
X138445238Y-68941190D01*
X138445238Y-68941190D02*
X138492857Y-68988809D01*
X138492857Y-68988809D02*
X138540476Y-69084047D01*
X138540476Y-69084047D02*
X138540476Y-69322142D01*
X138540476Y-69322142D02*
X138492857Y-69417380D01*
X138492857Y-69417380D02*
X138445238Y-69465000D01*
X138445238Y-69465000D02*
X138350000Y-69512619D01*
X138350000Y-69512619D02*
X138064286Y-69512619D01*
X138064286Y-69512619D02*
X137969048Y-69465000D01*
X137969048Y-69465000D02*
X137921429Y-69417380D01*
X134259523Y-68512619D02*
X133783333Y-68512619D01*
X133783333Y-68512619D02*
X133735714Y-68988809D01*
X133735714Y-68988809D02*
X133783333Y-68941190D01*
X133783333Y-68941190D02*
X133878571Y-68893571D01*
X133878571Y-68893571D02*
X134116666Y-68893571D01*
X134116666Y-68893571D02*
X134211904Y-68941190D01*
X134211904Y-68941190D02*
X134259523Y-68988809D01*
X134259523Y-68988809D02*
X134307142Y-69084047D01*
X134307142Y-69084047D02*
X134307142Y-69322142D01*
X134307142Y-69322142D02*
X134259523Y-69417380D01*
X134259523Y-69417380D02*
X134211904Y-69465000D01*
X134211904Y-69465000D02*
X134116666Y-69512619D01*
X134116666Y-69512619D02*
X133878571Y-69512619D01*
X133878571Y-69512619D02*
X133783333Y-69465000D01*
X133783333Y-69465000D02*
X133735714Y-69417380D01*
X134592857Y-68512619D02*
X134926190Y-69512619D01*
X134926190Y-69512619D02*
X135259523Y-68512619D01*
D11*
X134611904Y-95610238D02*
X134516666Y-95562619D01*
X134516666Y-95562619D02*
X134373809Y-95562619D01*
X134373809Y-95562619D02*
X134230952Y-95610238D01*
X134230952Y-95610238D02*
X134135714Y-95705476D01*
X134135714Y-95705476D02*
X134088095Y-95800714D01*
X134088095Y-95800714D02*
X134040476Y-95991190D01*
X134040476Y-95991190D02*
X134040476Y-96134047D01*
X134040476Y-96134047D02*
X134088095Y-96324523D01*
X134088095Y-96324523D02*
X134135714Y-96419761D01*
X134135714Y-96419761D02*
X134230952Y-96515000D01*
X134230952Y-96515000D02*
X134373809Y-96562619D01*
X134373809Y-96562619D02*
X134469047Y-96562619D01*
X134469047Y-96562619D02*
X134611904Y-96515000D01*
X134611904Y-96515000D02*
X134659523Y-96467380D01*
X134659523Y-96467380D02*
X134659523Y-96134047D01*
X134659523Y-96134047D02*
X134469047Y-96134047D01*
X135088095Y-96562619D02*
X135088095Y-95562619D01*
X135088095Y-95562619D02*
X135659523Y-96562619D01*
X135659523Y-96562619D02*
X135659523Y-95562619D01*
X136135714Y-96562619D02*
X136135714Y-95562619D01*
X136135714Y-95562619D02*
X136373809Y-95562619D01*
X136373809Y-95562619D02*
X136516666Y-95610238D01*
X136516666Y-95610238D02*
X136611904Y-95705476D01*
X136611904Y-95705476D02*
X136659523Y-95800714D01*
X136659523Y-95800714D02*
X136707142Y-95991190D01*
X136707142Y-95991190D02*
X136707142Y-96134047D01*
X136707142Y-96134047D02*
X136659523Y-96324523D01*
X136659523Y-96324523D02*
X136611904Y-96419761D01*
X136611904Y-96419761D02*
X136516666Y-96515000D01*
X136516666Y-96515000D02*
X136373809Y-96562619D01*
X136373809Y-96562619D02*
X136135714Y-96562619D01*
X137754762Y-95562619D02*
X138088095Y-96562619D01*
X138088095Y-96562619D02*
X138421428Y-95562619D01*
X139326190Y-96467380D02*
X139278571Y-96515000D01*
X139278571Y-96515000D02*
X139135714Y-96562619D01*
X139135714Y-96562619D02*
X139040476Y-96562619D01*
X139040476Y-96562619D02*
X138897619Y-96515000D01*
X138897619Y-96515000D02*
X138802381Y-96419761D01*
X138802381Y-96419761D02*
X138754762Y-96324523D01*
X138754762Y-96324523D02*
X138707143Y-96134047D01*
X138707143Y-96134047D02*
X138707143Y-95991190D01*
X138707143Y-95991190D02*
X138754762Y-95800714D01*
X138754762Y-95800714D02*
X138802381Y-95705476D01*
X138802381Y-95705476D02*
X138897619Y-95610238D01*
X138897619Y-95610238D02*
X139040476Y-95562619D01*
X139040476Y-95562619D02*
X139135714Y-95562619D01*
X139135714Y-95562619D02*
X139278571Y-95610238D01*
X139278571Y-95610238D02*
X139326190Y-95657857D01*
X140326190Y-96467380D02*
X140278571Y-96515000D01*
X140278571Y-96515000D02*
X140135714Y-96562619D01*
X140135714Y-96562619D02*
X140040476Y-96562619D01*
X140040476Y-96562619D02*
X139897619Y-96515000D01*
X139897619Y-96515000D02*
X139802381Y-96419761D01*
X139802381Y-96419761D02*
X139754762Y-96324523D01*
X139754762Y-96324523D02*
X139707143Y-96134047D01*
X139707143Y-96134047D02*
X139707143Y-95991190D01*
X139707143Y-95991190D02*
X139754762Y-95800714D01*
X139754762Y-95800714D02*
X139802381Y-95705476D01*
X139802381Y-95705476D02*
X139897619Y-95610238D01*
X139897619Y-95610238D02*
X140040476Y-95562619D01*
X140040476Y-95562619D02*
X140135714Y-95562619D01*
X140135714Y-95562619D02*
X140278571Y-95610238D01*
X140278571Y-95610238D02*
X140326190Y-95657857D01*
X141373810Y-95562619D02*
X141945238Y-95562619D01*
X141659524Y-96562619D02*
X141659524Y-95562619D01*
X142183334Y-95562619D02*
X142850000Y-96562619D01*
X142850000Y-95562619D02*
X142183334Y-96562619D01*
X144564286Y-96562619D02*
X144230953Y-96086428D01*
X143992858Y-96562619D02*
X143992858Y-95562619D01*
X143992858Y-95562619D02*
X144373810Y-95562619D01*
X144373810Y-95562619D02*
X144469048Y-95610238D01*
X144469048Y-95610238D02*
X144516667Y-95657857D01*
X144516667Y-95657857D02*
X144564286Y-95753095D01*
X144564286Y-95753095D02*
X144564286Y-95895952D01*
X144564286Y-95895952D02*
X144516667Y-95991190D01*
X144516667Y-95991190D02*
X144469048Y-96038809D01*
X144469048Y-96038809D02*
X144373810Y-96086428D01*
X144373810Y-96086428D02*
X143992858Y-96086428D01*
X144897620Y-95562619D02*
X145564286Y-96562619D01*
X145564286Y-95562619D02*
X144897620Y-96562619D01*
X147278572Y-96562619D02*
X146945239Y-96086428D01*
X146707144Y-96562619D02*
X146707144Y-95562619D01*
X146707144Y-95562619D02*
X147088096Y-95562619D01*
X147088096Y-95562619D02*
X147183334Y-95610238D01*
X147183334Y-95610238D02*
X147230953Y-95657857D01*
X147230953Y-95657857D02*
X147278572Y-95753095D01*
X147278572Y-95753095D02*
X147278572Y-95895952D01*
X147278572Y-95895952D02*
X147230953Y-95991190D01*
X147230953Y-95991190D02*
X147183334Y-96038809D01*
X147183334Y-96038809D02*
X147088096Y-96086428D01*
X147088096Y-96086428D02*
X146707144Y-96086428D01*
X147707144Y-96038809D02*
X148040477Y-96038809D01*
X148183334Y-96562619D02*
X147707144Y-96562619D01*
X147707144Y-96562619D02*
X147707144Y-95562619D01*
X147707144Y-95562619D02*
X148183334Y-95562619D01*
X148564287Y-96515000D02*
X148707144Y-96562619D01*
X148707144Y-96562619D02*
X148945239Y-96562619D01*
X148945239Y-96562619D02*
X149040477Y-96515000D01*
X149040477Y-96515000D02*
X149088096Y-96467380D01*
X149088096Y-96467380D02*
X149135715Y-96372142D01*
X149135715Y-96372142D02*
X149135715Y-96276904D01*
X149135715Y-96276904D02*
X149088096Y-96181666D01*
X149088096Y-96181666D02*
X149040477Y-96134047D01*
X149040477Y-96134047D02*
X148945239Y-96086428D01*
X148945239Y-96086428D02*
X148754763Y-96038809D01*
X148754763Y-96038809D02*
X148659525Y-95991190D01*
X148659525Y-95991190D02*
X148611906Y-95943571D01*
X148611906Y-95943571D02*
X148564287Y-95848333D01*
X148564287Y-95848333D02*
X148564287Y-95753095D01*
X148564287Y-95753095D02*
X148611906Y-95657857D01*
X148611906Y-95657857D02*
X148659525Y-95610238D01*
X148659525Y-95610238D02*
X148754763Y-95562619D01*
X148754763Y-95562619D02*
X148992858Y-95562619D01*
X148992858Y-95562619D02*
X149135715Y-95610238D01*
X149421430Y-95562619D02*
X149992858Y-95562619D01*
X149707144Y-96562619D02*
X149707144Y-95562619D01*
X151088097Y-96562619D02*
X151088097Y-95562619D01*
X151754763Y-95562619D02*
X151945239Y-95562619D01*
X151945239Y-95562619D02*
X152040477Y-95610238D01*
X152040477Y-95610238D02*
X152135715Y-95705476D01*
X152135715Y-95705476D02*
X152183334Y-95895952D01*
X152183334Y-95895952D02*
X152183334Y-96229285D01*
X152183334Y-96229285D02*
X152135715Y-96419761D01*
X152135715Y-96419761D02*
X152040477Y-96515000D01*
X152040477Y-96515000D02*
X151945239Y-96562619D01*
X151945239Y-96562619D02*
X151754763Y-96562619D01*
X151754763Y-96562619D02*
X151659525Y-96515000D01*
X151659525Y-96515000D02*
X151564287Y-96419761D01*
X151564287Y-96419761D02*
X151516668Y-96229285D01*
X151516668Y-96229285D02*
X151516668Y-95895952D01*
X151516668Y-95895952D02*
X151564287Y-95705476D01*
X151564287Y-95705476D02*
X151659525Y-95610238D01*
X151659525Y-95610238D02*
X151754763Y-95562619D01*
X152802382Y-95562619D02*
X152897620Y-95562619D01*
X152897620Y-95562619D02*
X152992858Y-95610238D01*
X152992858Y-95610238D02*
X153040477Y-95657857D01*
X153040477Y-95657857D02*
X153088096Y-95753095D01*
X153088096Y-95753095D02*
X153135715Y-95943571D01*
X153135715Y-95943571D02*
X153135715Y-96181666D01*
X153135715Y-96181666D02*
X153088096Y-96372142D01*
X153088096Y-96372142D02*
X153040477Y-96467380D01*
X153040477Y-96467380D02*
X152992858Y-96515000D01*
X152992858Y-96515000D02*
X152897620Y-96562619D01*
X152897620Y-96562619D02*
X152802382Y-96562619D01*
X152802382Y-96562619D02*
X152707144Y-96515000D01*
X152707144Y-96515000D02*
X152659525Y-96467380D01*
X152659525Y-96467380D02*
X152611906Y-96372142D01*
X152611906Y-96372142D02*
X152564287Y-96181666D01*
X152564287Y-96181666D02*
X152564287Y-95943571D01*
X152564287Y-95943571D02*
X152611906Y-95753095D01*
X152611906Y-95753095D02*
X152659525Y-95657857D01*
X152659525Y-95657857D02*
X152707144Y-95610238D01*
X152707144Y-95610238D02*
X152802382Y-95562619D01*
D10*
%TO.C,U3*%
X149113095Y-81057619D02*
X149113095Y-81867142D01*
X149113095Y-81867142D02*
X149160714Y-81962380D01*
X149160714Y-81962380D02*
X149208333Y-82010000D01*
X149208333Y-82010000D02*
X149303571Y-82057619D01*
X149303571Y-82057619D02*
X149494047Y-82057619D01*
X149494047Y-82057619D02*
X149589285Y-82010000D01*
X149589285Y-82010000D02*
X149636904Y-81962380D01*
X149636904Y-81962380D02*
X149684523Y-81867142D01*
X149684523Y-81867142D02*
X149684523Y-81057619D01*
X150065476Y-81057619D02*
X150684523Y-81057619D01*
X150684523Y-81057619D02*
X150351190Y-81438571D01*
X150351190Y-81438571D02*
X150494047Y-81438571D01*
X150494047Y-81438571D02*
X150589285Y-81486190D01*
X150589285Y-81486190D02*
X150636904Y-81533809D01*
X150636904Y-81533809D02*
X150684523Y-81629047D01*
X150684523Y-81629047D02*
X150684523Y-81867142D01*
X150684523Y-81867142D02*
X150636904Y-81962380D01*
X150636904Y-81962380D02*
X150589285Y-82010000D01*
X150589285Y-82010000D02*
X150494047Y-82057619D01*
X150494047Y-82057619D02*
X150208333Y-82057619D01*
X150208333Y-82057619D02*
X150113095Y-82010000D01*
X150113095Y-82010000D02*
X150065476Y-81962380D01*
%TO.C,R4*%
X143133333Y-82264619D02*
X142800000Y-81788428D01*
X142561905Y-82264619D02*
X142561905Y-81264619D01*
X142561905Y-81264619D02*
X142942857Y-81264619D01*
X142942857Y-81264619D02*
X143038095Y-81312238D01*
X143038095Y-81312238D02*
X143085714Y-81359857D01*
X143085714Y-81359857D02*
X143133333Y-81455095D01*
X143133333Y-81455095D02*
X143133333Y-81597952D01*
X143133333Y-81597952D02*
X143085714Y-81693190D01*
X143085714Y-81693190D02*
X143038095Y-81740809D01*
X143038095Y-81740809D02*
X142942857Y-81788428D01*
X142942857Y-81788428D02*
X142561905Y-81788428D01*
X143990476Y-81597952D02*
X143990476Y-82264619D01*
X143752381Y-81217000D02*
X143514286Y-81931285D01*
X143514286Y-81931285D02*
X144133333Y-81931285D01*
%TO.C,C1*%
X134083333Y-80679880D02*
X134035714Y-80727500D01*
X134035714Y-80727500D02*
X133892857Y-80775119D01*
X133892857Y-80775119D02*
X133797619Y-80775119D01*
X133797619Y-80775119D02*
X133654762Y-80727500D01*
X133654762Y-80727500D02*
X133559524Y-80632261D01*
X133559524Y-80632261D02*
X133511905Y-80537023D01*
X133511905Y-80537023D02*
X133464286Y-80346547D01*
X133464286Y-80346547D02*
X133464286Y-80203690D01*
X133464286Y-80203690D02*
X133511905Y-80013214D01*
X133511905Y-80013214D02*
X133559524Y-79917976D01*
X133559524Y-79917976D02*
X133654762Y-79822738D01*
X133654762Y-79822738D02*
X133797619Y-79775119D01*
X133797619Y-79775119D02*
X133892857Y-79775119D01*
X133892857Y-79775119D02*
X134035714Y-79822738D01*
X134035714Y-79822738D02*
X134083333Y-79870357D01*
X135035714Y-80775119D02*
X134464286Y-80775119D01*
X134750000Y-80775119D02*
X134750000Y-79775119D01*
X134750000Y-79775119D02*
X134654762Y-79917976D01*
X134654762Y-79917976D02*
X134559524Y-80013214D01*
X134559524Y-80013214D02*
X134464286Y-80060833D01*
%TO.C,R5*%
X145673333Y-82264619D02*
X145340000Y-81788428D01*
X145101905Y-82264619D02*
X145101905Y-81264619D01*
X145101905Y-81264619D02*
X145482857Y-81264619D01*
X145482857Y-81264619D02*
X145578095Y-81312238D01*
X145578095Y-81312238D02*
X145625714Y-81359857D01*
X145625714Y-81359857D02*
X145673333Y-81455095D01*
X145673333Y-81455095D02*
X145673333Y-81597952D01*
X145673333Y-81597952D02*
X145625714Y-81693190D01*
X145625714Y-81693190D02*
X145578095Y-81740809D01*
X145578095Y-81740809D02*
X145482857Y-81788428D01*
X145482857Y-81788428D02*
X145101905Y-81788428D01*
X146578095Y-81264619D02*
X146101905Y-81264619D01*
X146101905Y-81264619D02*
X146054286Y-81740809D01*
X146054286Y-81740809D02*
X146101905Y-81693190D01*
X146101905Y-81693190D02*
X146197143Y-81645571D01*
X146197143Y-81645571D02*
X146435238Y-81645571D01*
X146435238Y-81645571D02*
X146530476Y-81693190D01*
X146530476Y-81693190D02*
X146578095Y-81740809D01*
X146578095Y-81740809D02*
X146625714Y-81836047D01*
X146625714Y-81836047D02*
X146625714Y-82074142D01*
X146625714Y-82074142D02*
X146578095Y-82169380D01*
X146578095Y-82169380D02*
X146530476Y-82217000D01*
X146530476Y-82217000D02*
X146435238Y-82264619D01*
X146435238Y-82264619D02*
X146197143Y-82264619D01*
X146197143Y-82264619D02*
X146101905Y-82217000D01*
X146101905Y-82217000D02*
X146054286Y-82169380D01*
%TO.C,D1*%
X142461905Y-77662619D02*
X142461905Y-76662619D01*
X142461905Y-76662619D02*
X142700000Y-76662619D01*
X142700000Y-76662619D02*
X142842857Y-76710238D01*
X142842857Y-76710238D02*
X142938095Y-76805476D01*
X142938095Y-76805476D02*
X142985714Y-76900714D01*
X142985714Y-76900714D02*
X143033333Y-77091190D01*
X143033333Y-77091190D02*
X143033333Y-77234047D01*
X143033333Y-77234047D02*
X142985714Y-77424523D01*
X142985714Y-77424523D02*
X142938095Y-77519761D01*
X142938095Y-77519761D02*
X142842857Y-77615000D01*
X142842857Y-77615000D02*
X142700000Y-77662619D01*
X142700000Y-77662619D02*
X142461905Y-77662619D01*
X143985714Y-77662619D02*
X143414286Y-77662619D01*
X143700000Y-77662619D02*
X143700000Y-76662619D01*
X143700000Y-76662619D02*
X143604762Y-76805476D01*
X143604762Y-76805476D02*
X143509524Y-76900714D01*
X143509524Y-76900714D02*
X143414286Y-76948333D01*
%TO.C,U1*%
X133138095Y-89962619D02*
X133138095Y-90772142D01*
X133138095Y-90772142D02*
X133185714Y-90867380D01*
X133185714Y-90867380D02*
X133233333Y-90915000D01*
X133233333Y-90915000D02*
X133328571Y-90962619D01*
X133328571Y-90962619D02*
X133519047Y-90962619D01*
X133519047Y-90962619D02*
X133614285Y-90915000D01*
X133614285Y-90915000D02*
X133661904Y-90867380D01*
X133661904Y-90867380D02*
X133709523Y-90772142D01*
X133709523Y-90772142D02*
X133709523Y-89962619D01*
X134709523Y-90962619D02*
X134138095Y-90962619D01*
X134423809Y-90962619D02*
X134423809Y-89962619D01*
X134423809Y-89962619D02*
X134328571Y-90105476D01*
X134328571Y-90105476D02*
X134233333Y-90200714D01*
X134233333Y-90200714D02*
X134138095Y-90248333D01*
%TO.C,C3*%
X137483333Y-80717380D02*
X137435714Y-80765000D01*
X137435714Y-80765000D02*
X137292857Y-80812619D01*
X137292857Y-80812619D02*
X137197619Y-80812619D01*
X137197619Y-80812619D02*
X137054762Y-80765000D01*
X137054762Y-80765000D02*
X136959524Y-80669761D01*
X136959524Y-80669761D02*
X136911905Y-80574523D01*
X136911905Y-80574523D02*
X136864286Y-80384047D01*
X136864286Y-80384047D02*
X136864286Y-80241190D01*
X136864286Y-80241190D02*
X136911905Y-80050714D01*
X136911905Y-80050714D02*
X136959524Y-79955476D01*
X136959524Y-79955476D02*
X137054762Y-79860238D01*
X137054762Y-79860238D02*
X137197619Y-79812619D01*
X137197619Y-79812619D02*
X137292857Y-79812619D01*
X137292857Y-79812619D02*
X137435714Y-79860238D01*
X137435714Y-79860238D02*
X137483333Y-79907857D01*
X137816667Y-79812619D02*
X138435714Y-79812619D01*
X138435714Y-79812619D02*
X138102381Y-80193571D01*
X138102381Y-80193571D02*
X138245238Y-80193571D01*
X138245238Y-80193571D02*
X138340476Y-80241190D01*
X138340476Y-80241190D02*
X138388095Y-80288809D01*
X138388095Y-80288809D02*
X138435714Y-80384047D01*
X138435714Y-80384047D02*
X138435714Y-80622142D01*
X138435714Y-80622142D02*
X138388095Y-80717380D01*
X138388095Y-80717380D02*
X138340476Y-80765000D01*
X138340476Y-80765000D02*
X138245238Y-80812619D01*
X138245238Y-80812619D02*
X137959524Y-80812619D01*
X137959524Y-80812619D02*
X137864286Y-80765000D01*
X137864286Y-80765000D02*
X137816667Y-80717380D01*
%TO.C,R6*%
X153233333Y-87112619D02*
X152900000Y-86636428D01*
X152661905Y-87112619D02*
X152661905Y-86112619D01*
X152661905Y-86112619D02*
X153042857Y-86112619D01*
X153042857Y-86112619D02*
X153138095Y-86160238D01*
X153138095Y-86160238D02*
X153185714Y-86207857D01*
X153185714Y-86207857D02*
X153233333Y-86303095D01*
X153233333Y-86303095D02*
X153233333Y-86445952D01*
X153233333Y-86445952D02*
X153185714Y-86541190D01*
X153185714Y-86541190D02*
X153138095Y-86588809D01*
X153138095Y-86588809D02*
X153042857Y-86636428D01*
X153042857Y-86636428D02*
X152661905Y-86636428D01*
X154090476Y-86112619D02*
X153900000Y-86112619D01*
X153900000Y-86112619D02*
X153804762Y-86160238D01*
X153804762Y-86160238D02*
X153757143Y-86207857D01*
X153757143Y-86207857D02*
X153661905Y-86350714D01*
X153661905Y-86350714D02*
X153614286Y-86541190D01*
X153614286Y-86541190D02*
X153614286Y-86922142D01*
X153614286Y-86922142D02*
X153661905Y-87017380D01*
X153661905Y-87017380D02*
X153709524Y-87065000D01*
X153709524Y-87065000D02*
X153804762Y-87112619D01*
X153804762Y-87112619D02*
X153995238Y-87112619D01*
X153995238Y-87112619D02*
X154090476Y-87065000D01*
X154090476Y-87065000D02*
X154138095Y-87017380D01*
X154138095Y-87017380D02*
X154185714Y-86922142D01*
X154185714Y-86922142D02*
X154185714Y-86684047D01*
X154185714Y-86684047D02*
X154138095Y-86588809D01*
X154138095Y-86588809D02*
X154090476Y-86541190D01*
X154090476Y-86541190D02*
X153995238Y-86493571D01*
X153995238Y-86493571D02*
X153804762Y-86493571D01*
X153804762Y-86493571D02*
X153709524Y-86541190D01*
X153709524Y-86541190D02*
X153661905Y-86588809D01*
X153661905Y-86588809D02*
X153614286Y-86684047D01*
%TO.C,R7*%
X150933333Y-87012619D02*
X150600000Y-86536428D01*
X150361905Y-87012619D02*
X150361905Y-86012619D01*
X150361905Y-86012619D02*
X150742857Y-86012619D01*
X150742857Y-86012619D02*
X150838095Y-86060238D01*
X150838095Y-86060238D02*
X150885714Y-86107857D01*
X150885714Y-86107857D02*
X150933333Y-86203095D01*
X150933333Y-86203095D02*
X150933333Y-86345952D01*
X150933333Y-86345952D02*
X150885714Y-86441190D01*
X150885714Y-86441190D02*
X150838095Y-86488809D01*
X150838095Y-86488809D02*
X150742857Y-86536428D01*
X150742857Y-86536428D02*
X150361905Y-86536428D01*
X151266667Y-86012619D02*
X151933333Y-86012619D01*
X151933333Y-86012619D02*
X151504762Y-87012619D01*
%TO.C,R9*%
X143033333Y-70862619D02*
X142700000Y-70386428D01*
X142461905Y-70862619D02*
X142461905Y-69862619D01*
X142461905Y-69862619D02*
X142842857Y-69862619D01*
X142842857Y-69862619D02*
X142938095Y-69910238D01*
X142938095Y-69910238D02*
X142985714Y-69957857D01*
X142985714Y-69957857D02*
X143033333Y-70053095D01*
X143033333Y-70053095D02*
X143033333Y-70195952D01*
X143033333Y-70195952D02*
X142985714Y-70291190D01*
X142985714Y-70291190D02*
X142938095Y-70338809D01*
X142938095Y-70338809D02*
X142842857Y-70386428D01*
X142842857Y-70386428D02*
X142461905Y-70386428D01*
X143509524Y-70862619D02*
X143700000Y-70862619D01*
X143700000Y-70862619D02*
X143795238Y-70815000D01*
X143795238Y-70815000D02*
X143842857Y-70767380D01*
X143842857Y-70767380D02*
X143938095Y-70624523D01*
X143938095Y-70624523D02*
X143985714Y-70434047D01*
X143985714Y-70434047D02*
X143985714Y-70053095D01*
X143985714Y-70053095D02*
X143938095Y-69957857D01*
X143938095Y-69957857D02*
X143890476Y-69910238D01*
X143890476Y-69910238D02*
X143795238Y-69862619D01*
X143795238Y-69862619D02*
X143604762Y-69862619D01*
X143604762Y-69862619D02*
X143509524Y-69910238D01*
X143509524Y-69910238D02*
X143461905Y-69957857D01*
X143461905Y-69957857D02*
X143414286Y-70053095D01*
X143414286Y-70053095D02*
X143414286Y-70291190D01*
X143414286Y-70291190D02*
X143461905Y-70386428D01*
X143461905Y-70386428D02*
X143509524Y-70434047D01*
X143509524Y-70434047D02*
X143604762Y-70481666D01*
X143604762Y-70481666D02*
X143795238Y-70481666D01*
X143795238Y-70481666D02*
X143890476Y-70434047D01*
X143890476Y-70434047D02*
X143938095Y-70386428D01*
X143938095Y-70386428D02*
X143985714Y-70291190D01*
%TO.C,C2*%
X151033333Y-67967380D02*
X150985714Y-68015000D01*
X150985714Y-68015000D02*
X150842857Y-68062619D01*
X150842857Y-68062619D02*
X150747619Y-68062619D01*
X150747619Y-68062619D02*
X150604762Y-68015000D01*
X150604762Y-68015000D02*
X150509524Y-67919761D01*
X150509524Y-67919761D02*
X150461905Y-67824523D01*
X150461905Y-67824523D02*
X150414286Y-67634047D01*
X150414286Y-67634047D02*
X150414286Y-67491190D01*
X150414286Y-67491190D02*
X150461905Y-67300714D01*
X150461905Y-67300714D02*
X150509524Y-67205476D01*
X150509524Y-67205476D02*
X150604762Y-67110238D01*
X150604762Y-67110238D02*
X150747619Y-67062619D01*
X150747619Y-67062619D02*
X150842857Y-67062619D01*
X150842857Y-67062619D02*
X150985714Y-67110238D01*
X150985714Y-67110238D02*
X151033333Y-67157857D01*
X151414286Y-67157857D02*
X151461905Y-67110238D01*
X151461905Y-67110238D02*
X151557143Y-67062619D01*
X151557143Y-67062619D02*
X151795238Y-67062619D01*
X151795238Y-67062619D02*
X151890476Y-67110238D01*
X151890476Y-67110238D02*
X151938095Y-67157857D01*
X151938095Y-67157857D02*
X151985714Y-67253095D01*
X151985714Y-67253095D02*
X151985714Y-67348333D01*
X151985714Y-67348333D02*
X151938095Y-67491190D01*
X151938095Y-67491190D02*
X151366667Y-68062619D01*
X151366667Y-68062619D02*
X151985714Y-68062619D01*
%TO.C,R3*%
X143033333Y-75362619D02*
X142700000Y-74886428D01*
X142461905Y-75362619D02*
X142461905Y-74362619D01*
X142461905Y-74362619D02*
X142842857Y-74362619D01*
X142842857Y-74362619D02*
X142938095Y-74410238D01*
X142938095Y-74410238D02*
X142985714Y-74457857D01*
X142985714Y-74457857D02*
X143033333Y-74553095D01*
X143033333Y-74553095D02*
X143033333Y-74695952D01*
X143033333Y-74695952D02*
X142985714Y-74791190D01*
X142985714Y-74791190D02*
X142938095Y-74838809D01*
X142938095Y-74838809D02*
X142842857Y-74886428D01*
X142842857Y-74886428D02*
X142461905Y-74886428D01*
X143366667Y-74362619D02*
X143985714Y-74362619D01*
X143985714Y-74362619D02*
X143652381Y-74743571D01*
X143652381Y-74743571D02*
X143795238Y-74743571D01*
X143795238Y-74743571D02*
X143890476Y-74791190D01*
X143890476Y-74791190D02*
X143938095Y-74838809D01*
X143938095Y-74838809D02*
X143985714Y-74934047D01*
X143985714Y-74934047D02*
X143985714Y-75172142D01*
X143985714Y-75172142D02*
X143938095Y-75267380D01*
X143938095Y-75267380D02*
X143890476Y-75315000D01*
X143890476Y-75315000D02*
X143795238Y-75362619D01*
X143795238Y-75362619D02*
X143509524Y-75362619D01*
X143509524Y-75362619D02*
X143414286Y-75315000D01*
X143414286Y-75315000D02*
X143366667Y-75267380D01*
%TO.C,R8*%
X143033333Y-73062619D02*
X142700000Y-72586428D01*
X142461905Y-73062619D02*
X142461905Y-72062619D01*
X142461905Y-72062619D02*
X142842857Y-72062619D01*
X142842857Y-72062619D02*
X142938095Y-72110238D01*
X142938095Y-72110238D02*
X142985714Y-72157857D01*
X142985714Y-72157857D02*
X143033333Y-72253095D01*
X143033333Y-72253095D02*
X143033333Y-72395952D01*
X143033333Y-72395952D02*
X142985714Y-72491190D01*
X142985714Y-72491190D02*
X142938095Y-72538809D01*
X142938095Y-72538809D02*
X142842857Y-72586428D01*
X142842857Y-72586428D02*
X142461905Y-72586428D01*
X143604762Y-72491190D02*
X143509524Y-72443571D01*
X143509524Y-72443571D02*
X143461905Y-72395952D01*
X143461905Y-72395952D02*
X143414286Y-72300714D01*
X143414286Y-72300714D02*
X143414286Y-72253095D01*
X143414286Y-72253095D02*
X143461905Y-72157857D01*
X143461905Y-72157857D02*
X143509524Y-72110238D01*
X143509524Y-72110238D02*
X143604762Y-72062619D01*
X143604762Y-72062619D02*
X143795238Y-72062619D01*
X143795238Y-72062619D02*
X143890476Y-72110238D01*
X143890476Y-72110238D02*
X143938095Y-72157857D01*
X143938095Y-72157857D02*
X143985714Y-72253095D01*
X143985714Y-72253095D02*
X143985714Y-72300714D01*
X143985714Y-72300714D02*
X143938095Y-72395952D01*
X143938095Y-72395952D02*
X143890476Y-72443571D01*
X143890476Y-72443571D02*
X143795238Y-72491190D01*
X143795238Y-72491190D02*
X143604762Y-72491190D01*
X143604762Y-72491190D02*
X143509524Y-72538809D01*
X143509524Y-72538809D02*
X143461905Y-72586428D01*
X143461905Y-72586428D02*
X143414286Y-72681666D01*
X143414286Y-72681666D02*
X143414286Y-72872142D01*
X143414286Y-72872142D02*
X143461905Y-72967380D01*
X143461905Y-72967380D02*
X143509524Y-73015000D01*
X143509524Y-73015000D02*
X143604762Y-73062619D01*
X143604762Y-73062619D02*
X143795238Y-73062619D01*
X143795238Y-73062619D02*
X143890476Y-73015000D01*
X143890476Y-73015000D02*
X143938095Y-72967380D01*
X143938095Y-72967380D02*
X143985714Y-72872142D01*
X143985714Y-72872142D02*
X143985714Y-72681666D01*
X143985714Y-72681666D02*
X143938095Y-72586428D01*
X143938095Y-72586428D02*
X143890476Y-72538809D01*
X143890476Y-72538809D02*
X143795238Y-72491190D01*
%TO.C,Q3*%
X152157857Y-83845238D02*
X152110238Y-83940476D01*
X152110238Y-83940476D02*
X152015000Y-84035714D01*
X152015000Y-84035714D02*
X151872142Y-84178571D01*
X151872142Y-84178571D02*
X151824523Y-84273809D01*
X151824523Y-84273809D02*
X151824523Y-84369047D01*
X152062619Y-84321428D02*
X152015000Y-84416666D01*
X152015000Y-84416666D02*
X151919761Y-84511904D01*
X151919761Y-84511904D02*
X151729285Y-84559523D01*
X151729285Y-84559523D02*
X151395952Y-84559523D01*
X151395952Y-84559523D02*
X151205476Y-84511904D01*
X151205476Y-84511904D02*
X151110238Y-84416666D01*
X151110238Y-84416666D02*
X151062619Y-84321428D01*
X151062619Y-84321428D02*
X151062619Y-84130952D01*
X151062619Y-84130952D02*
X151110238Y-84035714D01*
X151110238Y-84035714D02*
X151205476Y-83940476D01*
X151205476Y-83940476D02*
X151395952Y-83892857D01*
X151395952Y-83892857D02*
X151729285Y-83892857D01*
X151729285Y-83892857D02*
X151919761Y-83940476D01*
X151919761Y-83940476D02*
X152015000Y-84035714D01*
X152015000Y-84035714D02*
X152062619Y-84130952D01*
X152062619Y-84130952D02*
X152062619Y-84321428D01*
X151062619Y-83559523D02*
X151062619Y-82940476D01*
X151062619Y-82940476D02*
X151443571Y-83273809D01*
X151443571Y-83273809D02*
X151443571Y-83130952D01*
X151443571Y-83130952D02*
X151491190Y-83035714D01*
X151491190Y-83035714D02*
X151538809Y-82988095D01*
X151538809Y-82988095D02*
X151634047Y-82940476D01*
X151634047Y-82940476D02*
X151872142Y-82940476D01*
X151872142Y-82940476D02*
X151967380Y-82988095D01*
X151967380Y-82988095D02*
X152015000Y-83035714D01*
X152015000Y-83035714D02*
X152062619Y-83130952D01*
X152062619Y-83130952D02*
X152062619Y-83416666D01*
X152062619Y-83416666D02*
X152015000Y-83511904D01*
X152015000Y-83511904D02*
X151967380Y-83559523D01*
%TO.C,P1*%
X142761905Y-65212619D02*
X142761905Y-64212619D01*
X142761905Y-64212619D02*
X143142857Y-64212619D01*
X143142857Y-64212619D02*
X143238095Y-64260238D01*
X143238095Y-64260238D02*
X143285714Y-64307857D01*
X143285714Y-64307857D02*
X143333333Y-64403095D01*
X143333333Y-64403095D02*
X143333333Y-64545952D01*
X143333333Y-64545952D02*
X143285714Y-64641190D01*
X143285714Y-64641190D02*
X143238095Y-64688809D01*
X143238095Y-64688809D02*
X143142857Y-64736428D01*
X143142857Y-64736428D02*
X142761905Y-64736428D01*
X144285714Y-65212619D02*
X143714286Y-65212619D01*
X144000000Y-65212619D02*
X144000000Y-64212619D01*
X144000000Y-64212619D02*
X143904762Y-64355476D01*
X143904762Y-64355476D02*
X143809524Y-64450714D01*
X143809524Y-64450714D02*
X143714286Y-64498333D01*
%TO.C,D3*%
X147312619Y-91938094D02*
X146312619Y-91938094D01*
X146312619Y-91938094D02*
X146312619Y-91699999D01*
X146312619Y-91699999D02*
X146360238Y-91557142D01*
X146360238Y-91557142D02*
X146455476Y-91461904D01*
X146455476Y-91461904D02*
X146550714Y-91414285D01*
X146550714Y-91414285D02*
X146741190Y-91366666D01*
X146741190Y-91366666D02*
X146884047Y-91366666D01*
X146884047Y-91366666D02*
X147074523Y-91414285D01*
X147074523Y-91414285D02*
X147169761Y-91461904D01*
X147169761Y-91461904D02*
X147265000Y-91557142D01*
X147265000Y-91557142D02*
X147312619Y-91699999D01*
X147312619Y-91699999D02*
X147312619Y-91938094D01*
X146312619Y-91033332D02*
X146312619Y-90414285D01*
X146312619Y-90414285D02*
X146693571Y-90747618D01*
X146693571Y-90747618D02*
X146693571Y-90604761D01*
X146693571Y-90604761D02*
X146741190Y-90509523D01*
X146741190Y-90509523D02*
X146788809Y-90461904D01*
X146788809Y-90461904D02*
X146884047Y-90414285D01*
X146884047Y-90414285D02*
X147122142Y-90414285D01*
X147122142Y-90414285D02*
X147217380Y-90461904D01*
X147217380Y-90461904D02*
X147265000Y-90509523D01*
X147265000Y-90509523D02*
X147312619Y-90604761D01*
X147312619Y-90604761D02*
X147312619Y-90890475D01*
X147312619Y-90890475D02*
X147265000Y-90985713D01*
X147265000Y-90985713D02*
X147217380Y-91033332D01*
X140812619Y-91366666D02*
X140336428Y-91699999D01*
X140812619Y-91938094D02*
X139812619Y-91938094D01*
X139812619Y-91938094D02*
X139812619Y-91557142D01*
X139812619Y-91557142D02*
X139860238Y-91461904D01*
X139860238Y-91461904D02*
X139907857Y-91414285D01*
X139907857Y-91414285D02*
X140003095Y-91366666D01*
X140003095Y-91366666D02*
X140145952Y-91366666D01*
X140145952Y-91366666D02*
X140241190Y-91414285D01*
X140241190Y-91414285D02*
X140288809Y-91461904D01*
X140288809Y-91461904D02*
X140336428Y-91557142D01*
X140336428Y-91557142D02*
X140336428Y-91938094D01*
X139812619Y-91033332D02*
X140812619Y-90366666D01*
X139812619Y-90366666D02*
X140812619Y-91033332D01*
%TO.C,D2*%
X148912619Y-89538094D02*
X147912619Y-89538094D01*
X147912619Y-89538094D02*
X147912619Y-89299999D01*
X147912619Y-89299999D02*
X147960238Y-89157142D01*
X147960238Y-89157142D02*
X148055476Y-89061904D01*
X148055476Y-89061904D02*
X148150714Y-89014285D01*
X148150714Y-89014285D02*
X148341190Y-88966666D01*
X148341190Y-88966666D02*
X148484047Y-88966666D01*
X148484047Y-88966666D02*
X148674523Y-89014285D01*
X148674523Y-89014285D02*
X148769761Y-89061904D01*
X148769761Y-89061904D02*
X148865000Y-89157142D01*
X148865000Y-89157142D02*
X148912619Y-89299999D01*
X148912619Y-89299999D02*
X148912619Y-89538094D01*
X148007857Y-88585713D02*
X147960238Y-88538094D01*
X147960238Y-88538094D02*
X147912619Y-88442856D01*
X147912619Y-88442856D02*
X147912619Y-88204761D01*
X147912619Y-88204761D02*
X147960238Y-88109523D01*
X147960238Y-88109523D02*
X148007857Y-88061904D01*
X148007857Y-88061904D02*
X148103095Y-88014285D01*
X148103095Y-88014285D02*
X148198333Y-88014285D01*
X148198333Y-88014285D02*
X148341190Y-88061904D01*
X148341190Y-88061904D02*
X148912619Y-88633332D01*
X148912619Y-88633332D02*
X148912619Y-88014285D01*
X141412619Y-89561904D02*
X141412619Y-88990476D01*
X142412619Y-89276190D02*
X141412619Y-89276190D01*
X141412619Y-88752380D02*
X142412619Y-88085714D01*
X141412619Y-88085714D02*
X142412619Y-88752380D01*
D12*
%TO.C,SW1*%
X133965000Y-75033332D02*
X134012619Y-74890475D01*
X134012619Y-74890475D02*
X134012619Y-74652380D01*
X134012619Y-74652380D02*
X133965000Y-74557142D01*
X133965000Y-74557142D02*
X133917380Y-74509523D01*
X133917380Y-74509523D02*
X133822142Y-74461904D01*
X133822142Y-74461904D02*
X133726904Y-74461904D01*
X133726904Y-74461904D02*
X133631666Y-74509523D01*
X133631666Y-74509523D02*
X133584047Y-74557142D01*
X133584047Y-74557142D02*
X133536428Y-74652380D01*
X133536428Y-74652380D02*
X133488809Y-74842856D01*
X133488809Y-74842856D02*
X133441190Y-74938094D01*
X133441190Y-74938094D02*
X133393571Y-74985713D01*
X133393571Y-74985713D02*
X133298333Y-75033332D01*
X133298333Y-75033332D02*
X133203095Y-75033332D01*
X133203095Y-75033332D02*
X133107857Y-74985713D01*
X133107857Y-74985713D02*
X133060238Y-74938094D01*
X133060238Y-74938094D02*
X133012619Y-74842856D01*
X133012619Y-74842856D02*
X133012619Y-74604761D01*
X133012619Y-74604761D02*
X133060238Y-74461904D01*
X133012619Y-74128570D02*
X134012619Y-73890475D01*
X134012619Y-73890475D02*
X133298333Y-73699999D01*
X133298333Y-73699999D02*
X134012619Y-73509523D01*
X134012619Y-73509523D02*
X133012619Y-73271428D01*
X134012619Y-72366666D02*
X134012619Y-72938094D01*
X134012619Y-72652380D02*
X133012619Y-72652380D01*
X133012619Y-72652380D02*
X133155476Y-72747618D01*
X133155476Y-72747618D02*
X133250714Y-72842856D01*
X133250714Y-72842856D02*
X133298333Y-72938094D01*
D13*
%TO.C,U3*%
X149875000Y-80755000D02*
X153325000Y-80755000D01*
X149875000Y-80755000D02*
X147925000Y-80755000D01*
X149875000Y-70635000D02*
X151825000Y-70635000D01*
X149875000Y-70635000D02*
X147925000Y-70635000D01*
%TO.C,R4*%
X146710000Y-84122936D02*
X146710000Y-85577064D01*
X144890000Y-84122936D02*
X144890000Y-85577064D01*
%TO.C,C1*%
X133340000Y-81061252D02*
X133340000Y-79638748D01*
X135160000Y-81061252D02*
X135160000Y-79638748D01*
%TO.C,R5*%
X144210000Y-84122936D02*
X144210000Y-85577064D01*
X142390000Y-84122936D02*
X142390000Y-85577064D01*
%TO.C,D1*%
X140740000Y-76065000D02*
X140740000Y-78335000D01*
X140740000Y-78335000D02*
X144800000Y-78335000D01*
X144800000Y-76065000D02*
X140740000Y-76065000D01*
%TO.C,U1*%
X140060000Y-83400000D02*
X140060000Y-89410000D01*
X133240000Y-85650000D02*
X133240000Y-89410000D01*
X140060000Y-89410000D02*
X138800000Y-89410000D01*
X133240000Y-89410000D02*
X134500000Y-89410000D01*
%TO.C,C3*%
X136790000Y-81061252D02*
X136790000Y-79638748D01*
X138610000Y-81061252D02*
X138610000Y-79638748D01*
%TO.C,R6*%
X154110000Y-88922936D02*
X154110000Y-90377064D01*
X152290000Y-88922936D02*
X152290000Y-90377064D01*
%TO.C,R7*%
X150090000Y-90377064D02*
X150090000Y-88922936D01*
X151910000Y-90377064D02*
X151910000Y-88922936D01*
%TO.C,R9*%
X143927064Y-71210000D02*
X142472936Y-71210000D01*
X143927064Y-69390000D02*
X142472936Y-69390000D01*
%TO.C,C2*%
X150488748Y-68290000D02*
X151911252Y-68290000D01*
X150488748Y-70110000D02*
X151911252Y-70110000D01*
%TO.C,R3*%
X142472936Y-73990000D02*
X143927064Y-73990000D01*
X142472936Y-75810000D02*
X143927064Y-75810000D01*
%TO.C,R8*%
X143927064Y-73510000D02*
X142472936Y-73510000D01*
X143927064Y-71690000D02*
X142472936Y-71690000D01*
%TO.C,Q3*%
X148440000Y-83050000D02*
X148440000Y-84450000D01*
X150760000Y-84450000D02*
X150760000Y-82550000D01*
%TO.C,P1*%
X148080000Y-66350000D02*
X148080000Y-64430000D01*
X148080000Y-60715000D02*
X148080000Y-62420000D01*
X138920000Y-64430000D02*
X138920000Y-66350000D01*
X138920000Y-62420000D02*
X138920000Y-60715000D01*
X138920000Y-60715000D02*
X148080000Y-60715000D01*
%TO.C,D3*%
X141140000Y-90065000D02*
X141140000Y-92335000D01*
X141140000Y-92335000D02*
X145200000Y-92335000D01*
X145200000Y-90065000D02*
X141140000Y-90065000D01*
%TO.C,D2*%
X142740000Y-87665000D02*
X142740000Y-89935000D01*
X142740000Y-89935000D02*
X146800000Y-89935000D01*
X146800000Y-87665000D02*
X142740000Y-87665000D01*
D12*
%TO.C,SW1*%
X132950000Y-71650000D02*
X140050000Y-71650000D01*
X140050000Y-71650000D02*
X140050000Y-75650000D01*
X140050000Y-75650000D02*
X132950000Y-75650000D01*
X132950000Y-75650000D02*
X132950000Y-71650000D01*
X134722000Y-72682000D02*
X138278000Y-72682000D01*
X138278000Y-72682000D02*
X138278000Y-74714000D01*
X138278000Y-74714000D02*
X134722000Y-74714000D01*
X134722000Y-74714000D02*
X134722000Y-72682000D01*
X133504605Y-72047000D02*
G75*
G03*
X133504605Y-72047000I-179605J0D01*
G01*
X138278000Y-74714000D02*
X136500000Y-74714000D01*
X136500000Y-72682000D01*
X138278000Y-72682000D01*
X138278000Y-74714000D01*
G36*
X138278000Y-74714000D02*
G01*
X136500000Y-74714000D01*
X136500000Y-72682000D01*
X138278000Y-72682000D01*
X138278000Y-74714000D01*
G37*
%TD*%
%LPC*%
D14*
%TO.C,U3*%
X152350000Y-80140000D03*
X152350000Y-78870000D03*
X152350000Y-77600000D03*
X152350000Y-76330000D03*
X152350000Y-75060000D03*
X152350000Y-73790000D03*
X152350000Y-72520000D03*
X152350000Y-71250000D03*
X147400000Y-71250000D03*
X147400000Y-72520000D03*
X147400000Y-73790000D03*
X147400000Y-75060000D03*
X147400000Y-76330000D03*
X147400000Y-77600000D03*
X147400000Y-78870000D03*
X147400000Y-80140000D03*
%TD*%
D15*
%TO.C,R4*%
X145800000Y-83300000D03*
X145800000Y-86400000D03*
%TD*%
D16*
%TO.C,C1*%
X134250000Y-81912500D03*
X134250000Y-78787500D03*
%TD*%
D15*
%TO.C,R5*%
X143300000Y-83300000D03*
X143300000Y-86400000D03*
%TD*%
D17*
%TO.C,D1*%
X141712500Y-77200000D03*
X144687500Y-77200000D03*
%TD*%
D18*
%TO.C,U1*%
X138950000Y-84350000D03*
X136650000Y-84350000D03*
X134350000Y-84350000D03*
D19*
X136650000Y-90650000D03*
%TD*%
D16*
%TO.C,C3*%
X137700000Y-81912500D03*
X137700000Y-78787500D03*
%TD*%
D15*
%TO.C,R6*%
X153200000Y-88100000D03*
X153200000Y-91200000D03*
%TD*%
D20*
%TO.C,R7*%
X151000000Y-91200000D03*
X151000000Y-88100000D03*
%TD*%
D21*
%TO.C,R9*%
X144750000Y-70300000D03*
X141650000Y-70300000D03*
%TD*%
D22*
%TO.C,C2*%
X149637500Y-69200000D03*
X152762500Y-69200000D03*
%TD*%
D23*
%TO.C,R3*%
X141650000Y-74900000D03*
X144750000Y-74900000D03*
%TD*%
D21*
%TO.C,R8*%
X144750000Y-72600000D03*
X141650000Y-72600000D03*
%TD*%
D24*
%TO.C,Q3*%
X150250000Y-82800000D03*
X149600000Y-82800000D03*
X148950000Y-82800000D03*
X148950000Y-84700000D03*
X149600000Y-84700000D03*
X150250000Y-84700000D03*
%TD*%
D25*
%TO.C,P1*%
X146390000Y-67105000D03*
X140610000Y-67105000D03*
D26*
X146850000Y-68170000D03*
X146050000Y-68170000D03*
X144750000Y-68170000D03*
X143750000Y-68170000D03*
X143250000Y-68170000D03*
X142250000Y-68170000D03*
X140950000Y-68170000D03*
X140150000Y-68170000D03*
X140450000Y-68170000D03*
X141250000Y-68170000D03*
X141750000Y-68170000D03*
X142750000Y-68170000D03*
X144250000Y-68170000D03*
X145250000Y-68170000D03*
X145750000Y-68170000D03*
X146550000Y-68170000D03*
D27*
X147820000Y-67605000D03*
D28*
X147820000Y-63425000D03*
D27*
X139180000Y-67605000D03*
D28*
X139180000Y-63425000D03*
%TD*%
D17*
%TO.C,D3*%
X142112500Y-91200000D03*
X145087500Y-91200000D03*
%TD*%
%TO.C,D2*%
X143712500Y-88800000D03*
X146687500Y-88800000D03*
%TD*%
D29*
%TO.C,SW1*%
X134500000Y-70650000D03*
X136500000Y-70650000D03*
X138500000Y-70650000D03*
X134468000Y-76650000D03*
X136468000Y-76650000D03*
X138468000Y-76650000D03*
%TD*%
D30*
%TO.C,J3*%
X135000000Y-63325000D03*
D31*
X135000000Y-65865000D03*
%TD*%
D30*
%TO.C,J2*%
X149750000Y-94000000D03*
D31*
X147210000Y-94000000D03*
X144670000Y-94000000D03*
X142130000Y-94000000D03*
X139590000Y-94000000D03*
X137050000Y-94000000D03*
%TD*%
D30*
%TO.C,J4*%
X152000000Y-63325000D03*
D31*
X152000000Y-65865000D03*
%TD*%
M02*
