%TF.GenerationSoftware,KiCad,Pcbnew,7.0.1*%
%TF.CreationDate,2023-05-22T21:01:38-04:00*%
%TF.ProjectId,PCB_USB_TTL,5043425f-5553-4425-9f54-544c2e6b6963,rev?*%
%TF.SameCoordinates,Original*%
%TF.FileFunction,Copper,L2,Bot*%
%TF.FilePolarity,Positive*%
%FSLAX46Y46*%
G04 Gerber Fmt 4.6, Leading zero omitted, Abs format (unit mm)*
G04 Created by KiCad (PCBNEW 7.0.1) date 2023-05-22 21:01:38*
%MOMM*%
%LPD*%
G01*
G04 APERTURE LIST*
%TA.AperFunction,ComponentPad*%
%ADD10O,1.000000X2.100000*%
%TD*%
%TA.AperFunction,ComponentPad*%
%ADD11O,1.000000X1.600000*%
%TD*%
%TA.AperFunction,ComponentPad*%
%ADD12R,1.700000X1.700000*%
%TD*%
%TA.AperFunction,ComponentPad*%
%ADD13O,1.700000X1.700000*%
%TD*%
%TA.AperFunction,ViaPad*%
%ADD14C,0.400000*%
%TD*%
%TA.AperFunction,ViaPad*%
%ADD15C,0.800000*%
%TD*%
%TA.AperFunction,Conductor*%
%ADD16C,0.250000*%
%TD*%
%TA.AperFunction,Conductor*%
%ADD17C,0.200000*%
%TD*%
%TA.AperFunction,Conductor*%
%ADD18C,0.450000*%
%TD*%
G04 APERTURE END LIST*
D10*
%TO.P,P1,S1,SHIELD*%
%TO.N,GND*%
X147820000Y-67605000D03*
D11*
X147820000Y-63425000D03*
D10*
X139180000Y-67605000D03*
D11*
X139180000Y-63425000D03*
%TD*%
D12*
%TO.P,J3,1,Pin_1*%
%TO.N,GND*%
X135000000Y-63325000D03*
D13*
%TO.P,J3,2,Pin_2*%
X135000000Y-65865000D03*
%TD*%
D12*
%TO.P,J2,1,Pin_1*%
%TO.N,/ESP_IO0*%
X149750000Y-94000000D03*
D13*
%TO.P,J2,2,Pin_2*%
%TO.N,/REST*%
X147210000Y-94000000D03*
%TO.P,J2,3,Pin_3*%
%TO.N,/TX*%
X144670000Y-94000000D03*
%TO.P,J2,4,Pin_4*%
%TO.N,/RX*%
X142130000Y-94000000D03*
%TO.P,J2,5,Pin_5*%
%TO.N,VCC*%
X139590000Y-94000000D03*
%TO.P,J2,6,Pin_6*%
%TO.N,GND*%
X137050000Y-94000000D03*
%TD*%
D12*
%TO.P,J4,1,Pin_1*%
%TO.N,GND*%
X152000000Y-63325000D03*
D13*
%TO.P,J4,2,Pin_2*%
X152000000Y-65865000D03*
%TD*%
D14*
%TO.N,GND*%
X152250000Y-81750000D03*
X143250000Y-71500000D03*
D15*
X137600000Y-77000000D03*
D14*
%TO.N,/REST*%
X149105000Y-92105000D03*
%TO.N,/D+*%
X142743376Y-69177350D03*
X149197966Y-72546429D03*
%TO.N,/D-*%
X143349486Y-69450193D03*
X149600000Y-72100000D03*
%TO.N,Net-(D2-A)*%
X147900000Y-88800000D03*
X152500000Y-89750000D03*
%TO.N,Net-(D3-A)*%
X147000000Y-91000000D03*
X149750000Y-89750000D03*
%TO.N,Net-(U3-TXD)*%
X147000000Y-81750000D03*
X150500000Y-79500000D03*
%TO.N,Net-(U3-RXD)*%
X150500000Y-78000000D03*
X147268106Y-81213788D03*
%TD*%
D16*
%TO.N,/REST*%
X149105000Y-92105000D02*
X147210000Y-94000000D01*
D17*
%TO.N,/D+*%
X148751537Y-72100000D02*
X145292893Y-72100000D01*
X149197966Y-72546429D02*
X148751537Y-72100000D01*
X142743376Y-69550483D02*
X142743376Y-69177350D01*
X145292893Y-72100000D02*
X142743376Y-69550483D01*
%TO.N,/D-*%
X149200000Y-71700000D02*
X149600000Y-72100000D01*
X145600000Y-71700000D02*
X149200000Y-71700000D01*
X143350193Y-69450193D02*
X145600000Y-71700000D01*
X143349486Y-69450193D02*
X143350193Y-69450193D01*
D18*
%TO.N,Net-(D2-A)*%
X147900000Y-88800000D02*
X149719238Y-88800000D01*
X150669238Y-89750000D02*
X152500000Y-89750000D01*
X149719238Y-88800000D02*
X150669238Y-89750000D01*
%TO.N,Net-(D3-A)*%
X147000000Y-91000000D02*
X148500000Y-91000000D01*
X148500000Y-91000000D02*
X149750000Y-89750000D01*
D17*
%TO.N,Net-(U3-TXD)*%
X147000000Y-81750000D02*
X148250000Y-81750000D01*
X148250000Y-81750000D02*
X150500000Y-79500000D01*
%TO.N,Net-(U3-RXD)*%
X147268106Y-81213788D02*
X147286212Y-81213788D01*
X147286212Y-81213788D02*
X150500000Y-78000000D01*
%TD*%
%TA.AperFunction,Conductor*%
%TO.N,GND*%
G36*
X152504119Y-61000770D02*
G01*
X152583648Y-61005982D01*
X152761461Y-61018699D01*
X152777024Y-61020796D01*
X152888397Y-61042949D01*
X152890394Y-61043364D01*
X153030143Y-61073765D01*
X153043806Y-61077557D01*
X153157737Y-61116232D01*
X153161067Y-61117417D01*
X153288725Y-61165031D01*
X153300384Y-61170065D01*
X153410600Y-61224418D01*
X153415254Y-61226835D01*
X153532421Y-61290812D01*
X153541994Y-61296608D01*
X153645238Y-61365594D01*
X153650724Y-61369477D01*
X153756668Y-61448786D01*
X153764216Y-61454906D01*
X153857936Y-61537097D01*
X153863953Y-61542733D01*
X153957265Y-61636045D01*
X153962901Y-61642062D01*
X154045092Y-61735782D01*
X154051218Y-61743337D01*
X154105338Y-61815633D01*
X154130519Y-61849271D01*
X154134415Y-61854776D01*
X154203382Y-61957993D01*
X154209196Y-61967595D01*
X154273162Y-62084742D01*
X154275580Y-62089398D01*
X154329925Y-62199597D01*
X154334975Y-62211293D01*
X154382549Y-62338843D01*
X154383794Y-62342342D01*
X154422434Y-62456170D01*
X154426240Y-62469881D01*
X154456613Y-62609506D01*
X154457071Y-62611708D01*
X154479200Y-62722959D01*
X154481300Y-62738551D01*
X154493993Y-62916021D01*
X154494044Y-62916768D01*
X154499230Y-62995880D01*
X154499500Y-63004122D01*
X154499500Y-94995878D01*
X154499230Y-95004120D01*
X154494044Y-95083230D01*
X154493993Y-95083977D01*
X154481300Y-95261447D01*
X154479200Y-95277039D01*
X154457071Y-95388290D01*
X154456613Y-95390492D01*
X154426240Y-95530117D01*
X154422432Y-95543836D01*
X154383806Y-95657624D01*
X154382549Y-95661155D01*
X154334975Y-95788705D01*
X154329925Y-95800401D01*
X154275580Y-95910600D01*
X154273162Y-95915256D01*
X154209196Y-96032403D01*
X154203373Y-96042021D01*
X154134415Y-96145222D01*
X154130519Y-96150727D01*
X154051230Y-96256646D01*
X154045092Y-96264216D01*
X153962901Y-96357936D01*
X153957265Y-96363953D01*
X153863953Y-96457265D01*
X153857936Y-96462901D01*
X153764216Y-96545092D01*
X153756646Y-96551230D01*
X153650727Y-96630519D01*
X153645222Y-96634415D01*
X153542021Y-96703373D01*
X153532403Y-96709196D01*
X153415256Y-96773162D01*
X153410600Y-96775580D01*
X153300401Y-96829925D01*
X153288705Y-96834975D01*
X153161155Y-96882549D01*
X153157624Y-96883806D01*
X153043836Y-96922432D01*
X153030117Y-96926240D01*
X152890492Y-96956613D01*
X152888290Y-96957071D01*
X152777039Y-96979200D01*
X152761447Y-96981300D01*
X152583977Y-96993993D01*
X152583230Y-96994044D01*
X152507750Y-96998992D01*
X152504118Y-96999230D01*
X152495878Y-96999500D01*
X134504122Y-96999500D01*
X134495881Y-96999230D01*
X134491591Y-96998948D01*
X134416768Y-96994044D01*
X134416021Y-96993993D01*
X134238551Y-96981300D01*
X134222959Y-96979200D01*
X134111708Y-96957071D01*
X134109506Y-96956613D01*
X133969881Y-96926240D01*
X133956170Y-96922434D01*
X133842342Y-96883794D01*
X133838856Y-96882553D01*
X133711294Y-96834975D01*
X133699597Y-96829925D01*
X133589398Y-96775580D01*
X133584742Y-96773162D01*
X133467595Y-96709196D01*
X133457993Y-96703382D01*
X133354776Y-96634415D01*
X133349271Y-96630519D01*
X133315633Y-96605338D01*
X133243337Y-96551218D01*
X133235782Y-96545092D01*
X133142062Y-96462901D01*
X133136045Y-96457265D01*
X133042733Y-96363953D01*
X133037097Y-96357936D01*
X132954906Y-96264216D01*
X132948786Y-96256668D01*
X132869477Y-96150724D01*
X132865594Y-96145238D01*
X132796608Y-96041994D01*
X132790812Y-96032421D01*
X132726835Y-95915254D01*
X132724418Y-95910600D01*
X132712630Y-95886697D01*
X132670065Y-95800384D01*
X132665031Y-95788725D01*
X132617417Y-95661067D01*
X132616232Y-95657737D01*
X132577557Y-95543806D01*
X132573765Y-95530143D01*
X132543364Y-95390394D01*
X132542949Y-95388397D01*
X132520796Y-95277024D01*
X132518699Y-95261461D01*
X132505977Y-95083570D01*
X132500770Y-95004119D01*
X132500500Y-94995880D01*
X132500500Y-94254000D01*
X135713455Y-94254000D01*
X135761177Y-94442451D01*
X135851580Y-94648548D01*
X135974678Y-94836962D01*
X136127096Y-95002533D01*
X136304697Y-95140766D01*
X136502631Y-95247883D01*
X136715485Y-95320955D01*
X136796000Y-95334391D01*
X137304000Y-95334391D01*
X137384514Y-95320955D01*
X137597368Y-95247883D01*
X137795302Y-95140766D01*
X137972903Y-95002533D01*
X138125323Y-94836960D01*
X138214217Y-94700899D01*
X138259730Y-94659000D01*
X138319700Y-94643814D01*
X138379669Y-94659000D01*
X138425183Y-94700898D01*
X138514278Y-94837268D01*
X138626525Y-94959200D01*
X138666762Y-95002908D01*
X138844421Y-95141187D01*
X138844424Y-95141189D01*
X139042426Y-95248342D01*
X139255365Y-95321444D01*
X139477431Y-95358500D01*
X139702566Y-95358500D01*
X139702569Y-95358500D01*
X139924635Y-95321444D01*
X140137574Y-95248342D01*
X140335576Y-95141189D01*
X140513240Y-95002906D01*
X140665722Y-94837268D01*
X140754518Y-94701354D01*
X140800031Y-94659458D01*
X140860000Y-94644272D01*
X140919969Y-94659458D01*
X140965481Y-94701354D01*
X141054278Y-94837268D01*
X141166525Y-94959200D01*
X141206762Y-95002908D01*
X141384421Y-95141187D01*
X141384424Y-95141189D01*
X141582426Y-95248342D01*
X141795365Y-95321444D01*
X142017431Y-95358500D01*
X142242566Y-95358500D01*
X142242569Y-95358500D01*
X142464635Y-95321444D01*
X142677574Y-95248342D01*
X142875576Y-95141189D01*
X143053240Y-95002906D01*
X143205722Y-94837268D01*
X143294518Y-94701354D01*
X143340031Y-94659458D01*
X143400000Y-94644272D01*
X143459969Y-94659458D01*
X143505481Y-94701354D01*
X143594278Y-94837268D01*
X143706525Y-94959200D01*
X143746762Y-95002908D01*
X143924421Y-95141187D01*
X143924424Y-95141189D01*
X144122426Y-95248342D01*
X144335365Y-95321444D01*
X144557431Y-95358500D01*
X144782566Y-95358500D01*
X144782569Y-95358500D01*
X145004635Y-95321444D01*
X145217574Y-95248342D01*
X145415576Y-95141189D01*
X145593240Y-95002906D01*
X145745722Y-94837268D01*
X145834518Y-94701354D01*
X145880031Y-94659458D01*
X145940000Y-94644272D01*
X145999969Y-94659458D01*
X146045481Y-94701354D01*
X146134278Y-94837268D01*
X146246525Y-94959200D01*
X146286762Y-95002908D01*
X146464421Y-95141187D01*
X146464424Y-95141189D01*
X146662426Y-95248342D01*
X146875365Y-95321444D01*
X147097431Y-95358500D01*
X147322566Y-95358500D01*
X147322569Y-95358500D01*
X147544635Y-95321444D01*
X147757574Y-95248342D01*
X147955576Y-95141189D01*
X148133240Y-95002906D01*
X148194246Y-94936635D01*
X148247716Y-94902238D01*
X148311177Y-94898327D01*
X148368469Y-94925903D01*
X148405000Y-94977942D01*
X148449109Y-95096203D01*
X148536738Y-95213261D01*
X148653794Y-95300888D01*
X148653795Y-95300888D01*
X148653796Y-95300889D01*
X148790799Y-95351989D01*
X148851362Y-95358500D01*
X150648638Y-95358500D01*
X150709201Y-95351989D01*
X150846204Y-95300889D01*
X150963261Y-95213261D01*
X151050889Y-95096204D01*
X151101989Y-94959201D01*
X151108500Y-94898638D01*
X151108500Y-93101362D01*
X151101989Y-93040799D01*
X151050889Y-92903796D01*
X151050888Y-92903794D01*
X150963261Y-92786738D01*
X150846205Y-92699111D01*
X150777702Y-92673561D01*
X150709201Y-92648011D01*
X150648638Y-92641500D01*
X149835646Y-92641500D01*
X149770461Y-92623328D01*
X149724078Y-92574054D01*
X149709876Y-92507891D01*
X149731950Y-92443924D01*
X149736954Y-92436675D01*
X149797965Y-92275801D01*
X149818704Y-92105000D01*
X149797965Y-91934199D01*
X149736954Y-91773325D01*
X149639215Y-91631727D01*
X149510430Y-91517633D01*
X149358083Y-91437675D01*
X149358082Y-91437674D01*
X149344536Y-91430565D01*
X149345895Y-91427975D01*
X149310076Y-91408128D01*
X149276445Y-91351532D01*
X149275948Y-91285700D01*
X149308718Y-91228607D01*
X150135441Y-90401884D01*
X150178010Y-90373885D01*
X150228195Y-90365036D01*
X150277779Y-90376788D01*
X150347911Y-90409490D01*
X150351206Y-90411084D01*
X150416659Y-90443956D01*
X150416661Y-90443956D01*
X150418114Y-90444686D01*
X150435366Y-90450682D01*
X150436948Y-90451008D01*
X150436949Y-90451009D01*
X150508662Y-90465816D01*
X150512229Y-90466607D01*
X150583504Y-90483500D01*
X150583505Y-90483500D01*
X150585070Y-90483871D01*
X150603251Y-90485728D01*
X150604868Y-90485680D01*
X150604874Y-90485682D01*
X150677115Y-90483580D01*
X150678045Y-90483553D01*
X150681709Y-90483500D01*
X152542718Y-90483500D01*
X152670308Y-90468587D01*
X152831435Y-90409941D01*
X152974694Y-90315718D01*
X153092362Y-90190997D01*
X153178096Y-90042502D01*
X153227274Y-89878238D01*
X153237244Y-89707060D01*
X153207469Y-89538198D01*
X153139554Y-89380754D01*
X153037160Y-89243215D01*
X152905809Y-89132998D01*
X152752579Y-89056044D01*
X152752578Y-89056043D01*
X152752577Y-89056043D01*
X152585737Y-89016500D01*
X152585734Y-89016500D01*
X151025254Y-89016500D01*
X150977036Y-89006909D01*
X150936159Y-88979595D01*
X150282177Y-88325613D01*
X150270205Y-88311761D01*
X150256396Y-88293212D01*
X150219469Y-88262227D01*
X150211360Y-88254796D01*
X150207700Y-88251135D01*
X150207695Y-88251131D01*
X150183959Y-88232362D01*
X150181154Y-88230077D01*
X150123804Y-88181955D01*
X150108398Y-88172140D01*
X150040548Y-88140502D01*
X150037249Y-88138905D01*
X149970373Y-88105319D01*
X149953107Y-88099317D01*
X149879819Y-88084184D01*
X149876243Y-88083391D01*
X149803402Y-88066128D01*
X149785224Y-88064271D01*
X149783602Y-88064318D01*
X149715916Y-88066287D01*
X149710431Y-88066447D01*
X149706767Y-88066500D01*
X147857282Y-88066500D01*
X147729691Y-88081413D01*
X147568566Y-88140058D01*
X147425303Y-88234283D01*
X147307637Y-88359002D01*
X147221904Y-88507496D01*
X147172726Y-88671761D01*
X147172726Y-88671762D01*
X147162756Y-88842940D01*
X147192531Y-89011802D01*
X147244810Y-89132997D01*
X147260446Y-89169246D01*
X147362838Y-89306783D01*
X147362839Y-89306784D01*
X147362840Y-89306785D01*
X147494191Y-89417002D01*
X147647421Y-89493956D01*
X147689132Y-89503842D01*
X147814263Y-89533500D01*
X147814266Y-89533500D01*
X148624984Y-89533500D01*
X148682187Y-89547233D01*
X148726920Y-89585439D01*
X148749433Y-89639789D01*
X148744817Y-89698436D01*
X148714079Y-89748595D01*
X148233079Y-90229595D01*
X148192202Y-90256909D01*
X148143984Y-90266500D01*
X146957282Y-90266500D01*
X146829691Y-90281413D01*
X146668566Y-90340058D01*
X146525303Y-90434283D01*
X146407637Y-90559002D01*
X146321904Y-90707496D01*
X146272726Y-90871761D01*
X146272726Y-90871762D01*
X146262756Y-91042940D01*
X146292531Y-91211802D01*
X146324408Y-91285700D01*
X146360446Y-91369246D01*
X146462838Y-91506783D01*
X146462839Y-91506784D01*
X146462840Y-91506785D01*
X146594191Y-91617002D01*
X146747421Y-91693956D01*
X146789132Y-91703841D01*
X146914263Y-91733500D01*
X146914266Y-91733500D01*
X148276404Y-91733500D01*
X148333607Y-91747233D01*
X148378340Y-91785439D01*
X148400853Y-91839789D01*
X148396237Y-91898436D01*
X148365499Y-91948596D01*
X147667921Y-92646172D01*
X147607228Y-92679833D01*
X147555452Y-92677156D01*
X147554932Y-92680275D01*
X147544639Y-92678557D01*
X147544635Y-92678556D01*
X147322569Y-92641500D01*
X147097431Y-92641500D01*
X146875365Y-92678556D01*
X146875362Y-92678556D01*
X146875362Y-92678557D01*
X146662426Y-92751657D01*
X146464421Y-92858812D01*
X146286762Y-92997091D01*
X146134278Y-93162731D01*
X146045483Y-93298643D01*
X145999969Y-93340541D01*
X145940000Y-93355727D01*
X145880031Y-93340541D01*
X145834517Y-93298643D01*
X145745721Y-93162731D01*
X145689226Y-93101362D01*
X145593240Y-92997094D01*
X145593239Y-92997093D01*
X145593237Y-92997091D01*
X145415578Y-92858812D01*
X145217573Y-92751657D01*
X145064510Y-92699111D01*
X145004635Y-92678556D01*
X144782569Y-92641500D01*
X144557431Y-92641500D01*
X144335365Y-92678556D01*
X144335362Y-92678556D01*
X144335362Y-92678557D01*
X144122426Y-92751657D01*
X143924421Y-92858812D01*
X143746762Y-92997091D01*
X143594278Y-93162731D01*
X143505483Y-93298643D01*
X143459969Y-93340541D01*
X143400000Y-93355727D01*
X143340031Y-93340541D01*
X143294517Y-93298643D01*
X143205721Y-93162731D01*
X143149226Y-93101362D01*
X143053240Y-92997094D01*
X143053239Y-92997093D01*
X143053237Y-92997091D01*
X142875578Y-92858812D01*
X142677573Y-92751657D01*
X142524510Y-92699111D01*
X142464635Y-92678556D01*
X142242569Y-92641500D01*
X142017431Y-92641500D01*
X141795365Y-92678556D01*
X141795362Y-92678556D01*
X141795362Y-92678557D01*
X141582426Y-92751657D01*
X141384421Y-92858812D01*
X141206762Y-92997091D01*
X141054278Y-93162731D01*
X140965483Y-93298643D01*
X140919969Y-93340541D01*
X140860000Y-93355727D01*
X140800031Y-93340541D01*
X140754517Y-93298643D01*
X140665721Y-93162731D01*
X140609226Y-93101362D01*
X140513240Y-92997094D01*
X140513239Y-92997093D01*
X140513237Y-92997091D01*
X140335578Y-92858812D01*
X140137573Y-92751657D01*
X139984510Y-92699111D01*
X139924635Y-92678556D01*
X139702569Y-92641500D01*
X139477431Y-92641500D01*
X139255365Y-92678556D01*
X139255362Y-92678556D01*
X139255362Y-92678557D01*
X139042426Y-92751657D01*
X138844421Y-92858812D01*
X138666762Y-92997091D01*
X138514275Y-93162735D01*
X138425182Y-93299101D01*
X138379669Y-93340999D01*
X138319700Y-93356185D01*
X138259731Y-93340999D01*
X138214217Y-93299101D01*
X138125321Y-93163037D01*
X137972903Y-92997466D01*
X137795302Y-92859233D01*
X137597368Y-92752116D01*
X137384514Y-92679044D01*
X137304000Y-92665609D01*
X137304000Y-95334391D01*
X136796000Y-95334391D01*
X136796000Y-94254000D01*
X135713455Y-94254000D01*
X132500500Y-94254000D01*
X132500500Y-93745999D01*
X135713455Y-93745999D01*
X135713456Y-93746000D01*
X136796000Y-93746000D01*
X136796000Y-92665609D01*
X136715485Y-92679044D01*
X136502631Y-92752116D01*
X136304697Y-92859233D01*
X136127096Y-92997466D01*
X135974678Y-93163037D01*
X135851580Y-93351451D01*
X135761177Y-93557548D01*
X135713455Y-93745999D01*
X132500500Y-93745999D01*
X132500500Y-81750000D01*
X146286296Y-81750000D01*
X146307034Y-81920800D01*
X146368044Y-82081672D01*
X146368045Y-82081674D01*
X146368046Y-82081675D01*
X146465785Y-82223273D01*
X146594570Y-82337367D01*
X146746917Y-82417325D01*
X146913972Y-82458500D01*
X147086026Y-82458500D01*
X147086028Y-82458500D01*
X147253083Y-82417325D01*
X147337665Y-82372932D01*
X147396219Y-82358500D01*
X148201864Y-82358500D01*
X148218307Y-82359577D01*
X148250000Y-82363750D01*
X148281693Y-82359577D01*
X148281703Y-82359577D01*
X148289884Y-82358500D01*
X148289885Y-82358500D01*
X148389456Y-82345391D01*
X148408851Y-82342838D01*
X148556876Y-82281524D01*
X148652072Y-82208477D01*
X148652072Y-82208476D01*
X148668629Y-82195772D01*
X148668632Y-82195769D01*
X148669546Y-82195067D01*
X148683987Y-82183987D01*
X148703457Y-82158611D01*
X148714309Y-82146238D01*
X150648807Y-80211740D01*
X150707750Y-80178498D01*
X150753081Y-80167326D01*
X150753083Y-80167325D01*
X150905430Y-80087367D01*
X151034215Y-79973273D01*
X151131954Y-79831675D01*
X151192965Y-79670801D01*
X151213704Y-79500000D01*
X151192965Y-79329199D01*
X151131954Y-79168325D01*
X151034215Y-79026727D01*
X150905430Y-78912633D01*
X150808131Y-78861566D01*
X150758859Y-78815185D01*
X150740687Y-78750000D01*
X150758859Y-78684815D01*
X150808132Y-78638433D01*
X150905430Y-78587367D01*
X151034215Y-78473273D01*
X151131954Y-78331675D01*
X151192965Y-78170801D01*
X151213704Y-78000000D01*
X151192965Y-77829199D01*
X151131954Y-77668325D01*
X151034215Y-77526727D01*
X150905430Y-77412633D01*
X150753083Y-77332675D01*
X150586028Y-77291500D01*
X150413972Y-77291500D01*
X150246917Y-77332675D01*
X150246916Y-77332675D01*
X150246914Y-77332676D01*
X150094571Y-77412632D01*
X149965786Y-77526726D01*
X149868044Y-77668327D01*
X149814660Y-77809091D01*
X149785943Y-77853506D01*
X147143327Y-80496122D01*
X147084387Y-80529365D01*
X147015022Y-80546462D01*
X146862677Y-80626419D01*
X146733892Y-80740514D01*
X146636150Y-80882115D01*
X146575140Y-81042987D01*
X146562279Y-81148906D01*
X146548766Y-81192272D01*
X146520753Y-81228028D01*
X146465786Y-81276725D01*
X146368044Y-81418327D01*
X146307034Y-81579199D01*
X146286296Y-81750000D01*
X132500500Y-81750000D01*
X132500500Y-73650000D01*
X133794866Y-73650000D01*
X133813302Y-73778225D01*
X133865727Y-73893018D01*
X133867118Y-73896063D01*
X133951951Y-73993967D01*
X134060931Y-74064004D01*
X134123079Y-74082251D01*
X134185227Y-74100500D01*
X134185228Y-74100500D01*
X134314772Y-74100500D01*
X134314773Y-74100500D01*
X134356204Y-74088334D01*
X134439069Y-74064004D01*
X134548049Y-73993967D01*
X134632882Y-73896063D01*
X134686697Y-73778226D01*
X134705133Y-73650000D01*
X138294866Y-73650000D01*
X138313302Y-73778225D01*
X138365727Y-73893018D01*
X138367118Y-73896063D01*
X138451951Y-73993967D01*
X138560931Y-74064004D01*
X138623079Y-74082251D01*
X138685227Y-74100500D01*
X138685228Y-74100500D01*
X138814772Y-74100500D01*
X138814773Y-74100500D01*
X138856204Y-74088334D01*
X138939069Y-74064004D01*
X139048049Y-73993967D01*
X139132882Y-73896063D01*
X139186697Y-73778226D01*
X139205133Y-73650000D01*
X139186697Y-73521774D01*
X139132882Y-73403937D01*
X139048049Y-73306033D01*
X138939069Y-73235996D01*
X138939068Y-73235995D01*
X138939067Y-73235995D01*
X138814773Y-73199500D01*
X138814772Y-73199500D01*
X138685228Y-73199500D01*
X138685227Y-73199500D01*
X138560932Y-73235995D01*
X138451951Y-73306033D01*
X138367117Y-73403938D01*
X138313302Y-73521774D01*
X138294866Y-73650000D01*
X134705133Y-73650000D01*
X134686697Y-73521774D01*
X134632882Y-73403937D01*
X134548049Y-73306033D01*
X134439069Y-73235996D01*
X134439068Y-73235995D01*
X134439067Y-73235995D01*
X134314773Y-73199500D01*
X134314772Y-73199500D01*
X134185228Y-73199500D01*
X134185227Y-73199500D01*
X134060932Y-73235995D01*
X133951951Y-73306033D01*
X133867117Y-73403938D01*
X133813302Y-73521774D01*
X133794866Y-73650000D01*
X132500500Y-73650000D01*
X132500500Y-69177349D01*
X142029672Y-69177349D01*
X142050410Y-69348150D01*
X142116847Y-69523329D01*
X142116337Y-69523522D01*
X142131137Y-69561962D01*
X142133798Y-69582177D01*
X142133799Y-69582189D01*
X142137335Y-69609044D01*
X142137335Y-69609046D01*
X142150537Y-69709332D01*
X142211852Y-69857361D01*
X142284897Y-69952555D01*
X142284900Y-69952557D01*
X142309386Y-69984467D01*
X142309387Y-69984468D01*
X142309389Y-69984470D01*
X142334755Y-70003934D01*
X142347145Y-70014801D01*
X144828574Y-72496230D01*
X144839440Y-72508619D01*
X144858906Y-72533987D01*
X144884270Y-72553450D01*
X144884286Y-72553464D01*
X144986014Y-72631523D01*
X145040695Y-72654172D01*
X145134043Y-72692838D01*
X145292893Y-72713751D01*
X145324591Y-72709577D01*
X145341037Y-72708500D01*
X148414718Y-72708500D01*
X148464106Y-72718583D01*
X148505589Y-72747217D01*
X148532530Y-72789820D01*
X148566010Y-72878101D01*
X148566011Y-72878103D01*
X148566012Y-72878104D01*
X148663751Y-73019702D01*
X148792536Y-73133796D01*
X148944883Y-73213754D01*
X149111938Y-73254929D01*
X149283992Y-73254929D01*
X149283994Y-73254929D01*
X149451049Y-73213754D01*
X149603396Y-73133796D01*
X149732181Y-73019702D01*
X149829920Y-72878104D01*
X149859673Y-72799649D01*
X149883169Y-72760781D01*
X149918928Y-72732766D01*
X149948530Y-72717230D01*
X150005430Y-72687367D01*
X150134215Y-72573273D01*
X150231954Y-72431675D01*
X150292965Y-72270801D01*
X150313704Y-72100000D01*
X150292965Y-71929199D01*
X150231954Y-71768325D01*
X150134215Y-71626727D01*
X150005430Y-71512633D01*
X149991006Y-71505062D01*
X149853082Y-71432674D01*
X149807744Y-71421499D01*
X149748805Y-71388256D01*
X149664315Y-71303766D01*
X149653448Y-71291375D01*
X149633986Y-71266011D01*
X149602074Y-71241524D01*
X149602074Y-71241525D01*
X149602072Y-71241523D01*
X149506876Y-71168476D01*
X149506875Y-71168475D01*
X149402204Y-71125119D01*
X149358851Y-71107162D01*
X149358850Y-71107161D01*
X149358848Y-71107161D01*
X149339468Y-71104608D01*
X149339456Y-71104608D01*
X149325469Y-71102766D01*
X149231703Y-71090422D01*
X149231691Y-71090422D01*
X149200000Y-71086250D01*
X149168307Y-71090422D01*
X149151864Y-71091500D01*
X145904239Y-71091500D01*
X145856021Y-71081909D01*
X145815144Y-71054595D01*
X144063110Y-69302561D01*
X144034393Y-69258145D01*
X143981441Y-69118521D01*
X143981440Y-69118518D01*
X143883701Y-68976920D01*
X143754916Y-68862826D01*
X143602569Y-68782868D01*
X143435514Y-68741693D01*
X143435512Y-68741693D01*
X143367836Y-68741693D01*
X143323156Y-68733505D01*
X143284282Y-68710005D01*
X143277590Y-68704076D01*
X143148806Y-68589983D01*
X142996459Y-68510025D01*
X142829404Y-68468850D01*
X142657348Y-68468850D01*
X142490293Y-68510025D01*
X142490292Y-68510025D01*
X142490290Y-68510026D01*
X142337947Y-68589982D01*
X142209162Y-68704076D01*
X142111420Y-68845677D01*
X142050410Y-69006549D01*
X142029672Y-69177349D01*
X132500500Y-69177349D01*
X132500500Y-67859000D01*
X138172000Y-67859000D01*
X138172000Y-68204521D01*
X138186584Y-68352603D01*
X138244223Y-68542609D01*
X138337823Y-68717723D01*
X138463787Y-68871212D01*
X138617276Y-68997176D01*
X138792390Y-69090776D01*
X138925999Y-69131307D01*
X138926000Y-69131307D01*
X138926000Y-67859000D01*
X138172000Y-67859000D01*
X132500500Y-67859000D01*
X132500500Y-67351000D01*
X138172000Y-67351000D01*
X138926000Y-67351000D01*
X138926000Y-66078693D01*
X138925999Y-66078692D01*
X139434000Y-66078692D01*
X139434000Y-69131307D01*
X139567609Y-69090776D01*
X139742723Y-68997176D01*
X139896212Y-68871212D01*
X140022176Y-68717723D01*
X140115776Y-68542609D01*
X140173415Y-68352603D01*
X140188000Y-68204521D01*
X140188000Y-67741691D01*
X140202878Y-67682295D01*
X140243998Y-67636926D01*
X140301650Y-67616298D01*
X140362218Y-67625282D01*
X140459764Y-67665687D01*
X140572280Y-67680500D01*
X140647720Y-67680500D01*
X140760236Y-67665687D01*
X140900233Y-67607698D01*
X141020451Y-67515451D01*
X141112698Y-67395233D01*
X141170687Y-67255236D01*
X141190466Y-67105000D01*
X141190466Y-67104999D01*
X145809534Y-67104999D01*
X145829312Y-67255235D01*
X145887301Y-67395232D01*
X145887302Y-67395233D01*
X145979549Y-67515451D01*
X146099767Y-67607698D01*
X146239764Y-67665687D01*
X146352280Y-67680500D01*
X146427720Y-67680500D01*
X146540236Y-67665687D01*
X146637781Y-67625282D01*
X146698350Y-67616298D01*
X146756002Y-67636926D01*
X146797122Y-67682295D01*
X146812000Y-67741691D01*
X146812000Y-68204521D01*
X146826584Y-68352603D01*
X146884223Y-68542609D01*
X146977823Y-68717723D01*
X147103787Y-68871212D01*
X147257276Y-68997176D01*
X147432390Y-69090776D01*
X147565999Y-69131307D01*
X147566000Y-69131307D01*
X147566000Y-67859000D01*
X148074000Y-67859000D01*
X148074000Y-69131307D01*
X148207609Y-69090776D01*
X148382723Y-68997176D01*
X148536212Y-68871212D01*
X148662176Y-68717723D01*
X148755776Y-68542609D01*
X148813415Y-68352603D01*
X148828000Y-68204521D01*
X148828000Y-67859000D01*
X148074000Y-67859000D01*
X147566000Y-67859000D01*
X147566000Y-66078693D01*
X147565999Y-66078692D01*
X148074000Y-66078692D01*
X148074000Y-67351000D01*
X148828000Y-67351000D01*
X148828000Y-67005479D01*
X148813415Y-66857396D01*
X148755776Y-66667390D01*
X148662176Y-66492276D01*
X148536212Y-66338787D01*
X148382723Y-66212823D01*
X148207609Y-66119223D01*
X148206874Y-66119000D01*
X150663455Y-66119000D01*
X150711177Y-66307451D01*
X150801580Y-66513548D01*
X150924678Y-66701962D01*
X151077096Y-66867533D01*
X151254697Y-67005766D01*
X151452631Y-67112883D01*
X151665485Y-67185955D01*
X151746000Y-67199391D01*
X151746000Y-66119000D01*
X152254000Y-66119000D01*
X152254000Y-67199391D01*
X152334514Y-67185955D01*
X152547368Y-67112883D01*
X152745302Y-67005766D01*
X152922903Y-66867533D01*
X153075321Y-66701962D01*
X153198419Y-66513548D01*
X153288822Y-66307451D01*
X153336544Y-66119000D01*
X152254000Y-66119000D01*
X151746000Y-66119000D01*
X150663455Y-66119000D01*
X148206874Y-66119000D01*
X148074000Y-66078692D01*
X147565999Y-66078692D01*
X147432390Y-66119223D01*
X147257276Y-66212823D01*
X147103787Y-66338787D01*
X146977824Y-66492274D01*
X146919569Y-66601262D01*
X146884330Y-66642452D01*
X146835046Y-66665025D01*
X146780839Y-66664803D01*
X146731743Y-66641827D01*
X146680233Y-66602302D01*
X146680232Y-66602301D01*
X146540235Y-66544312D01*
X146427720Y-66529500D01*
X146352280Y-66529500D01*
X146239764Y-66544312D01*
X146099767Y-66602301D01*
X145979549Y-66694549D01*
X145887301Y-66814767D01*
X145829312Y-66954764D01*
X145809534Y-67104999D01*
X141190466Y-67104999D01*
X141170687Y-66954764D01*
X141112698Y-66814767D01*
X141020451Y-66694549D01*
X140900233Y-66602302D01*
X140900232Y-66602301D01*
X140760235Y-66544312D01*
X140647720Y-66529500D01*
X140572280Y-66529500D01*
X140459764Y-66544312D01*
X140319765Y-66602302D01*
X140268254Y-66641828D01*
X140219157Y-66664804D01*
X140164950Y-66665025D01*
X140115667Y-66642451D01*
X140080429Y-66601260D01*
X140022177Y-66492278D01*
X139896212Y-66338787D01*
X139742723Y-66212823D01*
X139567609Y-66119223D01*
X139434000Y-66078692D01*
X138925999Y-66078692D01*
X138792390Y-66119223D01*
X138617276Y-66212823D01*
X138463787Y-66338787D01*
X138337823Y-66492276D01*
X138244223Y-66667390D01*
X138186584Y-66857396D01*
X138172000Y-67005479D01*
X138172000Y-67351000D01*
X132500500Y-67351000D01*
X132500500Y-66119000D01*
X133663455Y-66119000D01*
X133711177Y-66307451D01*
X133801580Y-66513548D01*
X133924678Y-66701962D01*
X134077096Y-66867533D01*
X134254697Y-67005766D01*
X134452631Y-67112883D01*
X134665485Y-67185955D01*
X134746000Y-67199391D01*
X134746000Y-66119000D01*
X135254000Y-66119000D01*
X135254000Y-67199391D01*
X135334514Y-67185955D01*
X135547368Y-67112883D01*
X135745302Y-67005766D01*
X135922903Y-66867533D01*
X136075321Y-66701962D01*
X136198419Y-66513548D01*
X136288822Y-66307451D01*
X136336544Y-66119000D01*
X135254000Y-66119000D01*
X134746000Y-66119000D01*
X133663455Y-66119000D01*
X132500500Y-66119000D01*
X132500500Y-63579000D01*
X133642000Y-63579000D01*
X133642000Y-64223589D01*
X133648505Y-64284093D01*
X133699554Y-64420962D01*
X133787095Y-64537904D01*
X133904037Y-64625445D01*
X134019678Y-64668577D01*
X134070012Y-64703141D01*
X134098187Y-64757311D01*
X134097585Y-64818366D01*
X134068348Y-64871970D01*
X133924675Y-65028040D01*
X133801580Y-65216451D01*
X133711177Y-65422548D01*
X133663455Y-65610999D01*
X133663456Y-65611000D01*
X134746000Y-65611000D01*
X134746000Y-63579000D01*
X135254000Y-63579000D01*
X135254000Y-65611000D01*
X136336544Y-65611000D01*
X136336544Y-65610999D01*
X136288822Y-65422548D01*
X136198419Y-65216451D01*
X136075321Y-65028037D01*
X135931652Y-64871970D01*
X135902415Y-64818366D01*
X135901812Y-64757311D01*
X135929987Y-64703140D01*
X135980321Y-64668577D01*
X136095962Y-64625445D01*
X136212904Y-64537904D01*
X136300445Y-64420962D01*
X136351494Y-64284093D01*
X136358000Y-64223589D01*
X136358000Y-63679000D01*
X138172000Y-63679000D01*
X138172000Y-63774521D01*
X138186584Y-63922603D01*
X138244223Y-64112609D01*
X138337823Y-64287723D01*
X138463787Y-64441212D01*
X138617276Y-64567176D01*
X138792390Y-64660776D01*
X138925999Y-64701307D01*
X138926000Y-64701307D01*
X138926000Y-63679000D01*
X139434000Y-63679000D01*
X139434000Y-64701307D01*
X139567609Y-64660776D01*
X139742723Y-64567176D01*
X139896212Y-64441212D01*
X140022176Y-64287723D01*
X140115776Y-64112609D01*
X140173415Y-63922603D01*
X140188000Y-63774521D01*
X140188000Y-63679000D01*
X146812000Y-63679000D01*
X146812000Y-63774521D01*
X146826584Y-63922603D01*
X146884223Y-64112609D01*
X146977823Y-64287723D01*
X147103787Y-64441212D01*
X147257276Y-64567176D01*
X147432390Y-64660776D01*
X147565999Y-64701307D01*
X147566000Y-64701307D01*
X147566000Y-63679000D01*
X148074000Y-63679000D01*
X148074000Y-64701307D01*
X148207609Y-64660776D01*
X148382723Y-64567176D01*
X148536212Y-64441212D01*
X148662176Y-64287723D01*
X148755776Y-64112609D01*
X148813415Y-63922603D01*
X148828000Y-63774521D01*
X148828000Y-63679000D01*
X148074000Y-63679000D01*
X147566000Y-63679000D01*
X146812000Y-63679000D01*
X140188000Y-63679000D01*
X139434000Y-63679000D01*
X138926000Y-63679000D01*
X138172000Y-63679000D01*
X136358000Y-63679000D01*
X136358000Y-63579000D01*
X150642000Y-63579000D01*
X150642000Y-64223589D01*
X150648505Y-64284093D01*
X150699554Y-64420962D01*
X150787095Y-64537904D01*
X150904037Y-64625445D01*
X151019678Y-64668577D01*
X151070012Y-64703141D01*
X151098187Y-64757311D01*
X151097585Y-64818366D01*
X151068348Y-64871970D01*
X150924675Y-65028040D01*
X150801580Y-65216451D01*
X150711177Y-65422548D01*
X150663455Y-65610999D01*
X150663456Y-65611000D01*
X151746000Y-65611000D01*
X151746000Y-63579000D01*
X152254000Y-63579000D01*
X152254000Y-65611000D01*
X153336544Y-65611000D01*
X153336544Y-65610999D01*
X153288822Y-65422548D01*
X153198419Y-65216451D01*
X153075321Y-65028037D01*
X152931652Y-64871970D01*
X152902415Y-64818366D01*
X152901812Y-64757311D01*
X152929987Y-64703140D01*
X152980321Y-64668577D01*
X153095962Y-64625445D01*
X153212904Y-64537904D01*
X153300445Y-64420962D01*
X153351494Y-64284093D01*
X153358000Y-64223589D01*
X153358000Y-63579000D01*
X152254000Y-63579000D01*
X151746000Y-63579000D01*
X150642000Y-63579000D01*
X136358000Y-63579000D01*
X135254000Y-63579000D01*
X134746000Y-63579000D01*
X133642000Y-63579000D01*
X132500500Y-63579000D01*
X132500500Y-63171000D01*
X138172000Y-63171000D01*
X138926000Y-63171000D01*
X138926000Y-62148693D01*
X138925999Y-62148692D01*
X139434000Y-62148692D01*
X139434000Y-63171000D01*
X140188000Y-63171000D01*
X146812000Y-63171000D01*
X147566000Y-63171000D01*
X147566000Y-62148693D01*
X147565999Y-62148692D01*
X148074000Y-62148692D01*
X148074000Y-63171000D01*
X148828000Y-63171000D01*
X148828000Y-63075479D01*
X148827559Y-63071000D01*
X150642000Y-63071000D01*
X151746000Y-63071000D01*
X151746000Y-61967000D01*
X152254000Y-61967000D01*
X152254000Y-63071000D01*
X153358000Y-63071000D01*
X153358000Y-62426411D01*
X153351494Y-62365906D01*
X153300445Y-62229037D01*
X153212904Y-62112095D01*
X153095962Y-62024554D01*
X152959093Y-61973505D01*
X152898589Y-61967000D01*
X152254000Y-61967000D01*
X151746000Y-61967000D01*
X151101411Y-61967000D01*
X151040906Y-61973505D01*
X150904037Y-62024554D01*
X150787095Y-62112095D01*
X150699554Y-62229037D01*
X150648505Y-62365906D01*
X150642000Y-62426411D01*
X150642000Y-63071000D01*
X148827559Y-63071000D01*
X148813415Y-62927396D01*
X148755776Y-62737390D01*
X148662176Y-62562276D01*
X148536212Y-62408787D01*
X148382723Y-62282823D01*
X148207609Y-62189223D01*
X148074000Y-62148692D01*
X147565999Y-62148692D01*
X147432390Y-62189223D01*
X147257276Y-62282823D01*
X147103787Y-62408787D01*
X146977823Y-62562276D01*
X146884223Y-62737390D01*
X146826584Y-62927396D01*
X146812000Y-63075479D01*
X146812000Y-63171000D01*
X140188000Y-63171000D01*
X140188000Y-63075479D01*
X140173415Y-62927396D01*
X140115776Y-62737390D01*
X140022176Y-62562276D01*
X139896212Y-62408787D01*
X139742723Y-62282823D01*
X139567609Y-62189223D01*
X139434000Y-62148692D01*
X138925999Y-62148692D01*
X138792390Y-62189223D01*
X138617276Y-62282823D01*
X138463787Y-62408787D01*
X138337823Y-62562276D01*
X138244223Y-62737390D01*
X138186584Y-62927396D01*
X138172000Y-63075479D01*
X138172000Y-63171000D01*
X132500500Y-63171000D01*
X132500500Y-63071000D01*
X133642000Y-63071000D01*
X134746000Y-63071000D01*
X134746000Y-61967000D01*
X135254000Y-61967000D01*
X135254000Y-63071000D01*
X136358000Y-63071000D01*
X136358000Y-62426411D01*
X136351494Y-62365906D01*
X136300445Y-62229037D01*
X136212904Y-62112095D01*
X136095962Y-62024554D01*
X135959093Y-61973505D01*
X135898589Y-61967000D01*
X135254000Y-61967000D01*
X134746000Y-61967000D01*
X134101411Y-61967000D01*
X134040906Y-61973505D01*
X133904037Y-62024554D01*
X133787095Y-62112095D01*
X133699554Y-62229037D01*
X133648505Y-62365906D01*
X133642000Y-62426411D01*
X133642000Y-63071000D01*
X132500500Y-63071000D01*
X132500500Y-63004120D01*
X132500770Y-62995882D01*
X132501089Y-62991005D01*
X132505983Y-62916339D01*
X132518700Y-62738534D01*
X132520795Y-62722979D01*
X132542958Y-62611556D01*
X132543355Y-62609648D01*
X132573767Y-62469847D01*
X132577554Y-62456202D01*
X132616246Y-62342220D01*
X132617402Y-62338974D01*
X132665037Y-62211260D01*
X132670058Y-62199629D01*
X132724440Y-62089355D01*
X132726814Y-62084784D01*
X132790824Y-61967558D01*
X132796595Y-61958025D01*
X132865618Y-61854725D01*
X132869451Y-61849309D01*
X132948805Y-61743305D01*
X132954883Y-61735809D01*
X133037110Y-61642047D01*
X133042703Y-61636076D01*
X133136076Y-61542703D01*
X133142047Y-61537110D01*
X133235809Y-61454883D01*
X133243305Y-61448805D01*
X133349309Y-61369451D01*
X133354725Y-61365618D01*
X133458025Y-61296595D01*
X133467558Y-61290824D01*
X133584784Y-61226814D01*
X133589355Y-61224440D01*
X133699629Y-61170058D01*
X133711260Y-61165037D01*
X133838974Y-61117402D01*
X133842220Y-61116246D01*
X133956202Y-61077554D01*
X133969847Y-61073767D01*
X134109648Y-61043355D01*
X134111556Y-61042958D01*
X134222979Y-61020795D01*
X134238534Y-61018700D01*
X134416339Y-61005983D01*
X134491005Y-61001089D01*
X134495882Y-61000770D01*
X134504120Y-61000500D01*
X152495880Y-61000500D01*
X152504119Y-61000770D01*
G37*
%TD.AperFunction*%
%TD*%
M02*
