%TF.GenerationSoftware,KiCad,Pcbnew,7.0.1*%
%TF.CreationDate,2023-04-05T11:46:08-04:00*%
%TF.ProjectId,PCB_USB_TTL,5043425f-5553-4425-9f54-544c2e6b6963,rev?*%
%TF.SameCoordinates,Original*%
%TF.FileFunction,Copper,L1,Top*%
%TF.FilePolarity,Positive*%
%FSLAX46Y46*%
G04 Gerber Fmt 4.6, Leading zero omitted, Abs format (unit mm)*
G04 Created by KiCad (PCBNEW 7.0.1) date 2023-04-05 11:46:08*
%MOMM*%
%LPD*%
G01*
G04 APERTURE LIST*
G04 Aperture macros list*
%AMRoundRect*
0 Rectangle with rounded corners*
0 $1 Rounding radius*
0 $2 $3 $4 $5 $6 $7 $8 $9 X,Y pos of 4 corners*
0 Add a 4 corners polygon primitive as box body*
4,1,4,$2,$3,$4,$5,$6,$7,$8,$9,$2,$3,0*
0 Add four circle primitives for the rounded corners*
1,1,$1+$1,$2,$3*
1,1,$1+$1,$4,$5*
1,1,$1+$1,$6,$7*
1,1,$1+$1,$8,$9*
0 Add four rect primitives between the rounded corners*
20,1,$1+$1,$2,$3,$4,$5,0*
20,1,$1+$1,$4,$5,$6,$7,0*
20,1,$1+$1,$6,$7,$8,$9,0*
20,1,$1+$1,$8,$9,$2,$3,0*%
G04 Aperture macros list end*
%TA.AperFunction,SMDPad,CuDef*%
%ADD10RoundRect,0.150000X-0.150000X0.587500X-0.150000X-0.587500X0.150000X-0.587500X0.150000X0.587500X0*%
%TD*%
%TA.AperFunction,SMDPad,CuDef*%
%ADD11RoundRect,0.250000X-0.625000X0.400000X-0.625000X-0.400000X0.625000X-0.400000X0.625000X0.400000X0*%
%TD*%
%TA.AperFunction,SMDPad,CuDef*%
%ADD12RoundRect,0.250000X-0.412500X-0.650000X0.412500X-0.650000X0.412500X0.650000X-0.412500X0.650000X0*%
%TD*%
%TA.AperFunction,SMDPad,CuDef*%
%ADD13RoundRect,0.250001X-0.462499X-0.624999X0.462499X-0.624999X0.462499X0.624999X-0.462499X0.624999X0*%
%TD*%
%TA.AperFunction,SMDPad,CuDef*%
%ADD14R,1.500000X2.000000*%
%TD*%
%TA.AperFunction,SMDPad,CuDef*%
%ADD15R,3.800000X2.000000*%
%TD*%
%TA.AperFunction,SMDPad,CuDef*%
%ADD16RoundRect,0.250000X0.412500X0.650000X-0.412500X0.650000X-0.412500X-0.650000X0.412500X-0.650000X0*%
%TD*%
%TA.AperFunction,ComponentPad*%
%ADD17R,1.700000X1.700000*%
%TD*%
%TA.AperFunction,ComponentPad*%
%ADD18O,1.700000X1.700000*%
%TD*%
%TA.AperFunction,SMDPad,CuDef*%
%ADD19RoundRect,0.250000X0.625000X-0.400000X0.625000X0.400000X-0.625000X0.400000X-0.625000X-0.400000X0*%
%TD*%
%TA.AperFunction,SMDPad,CuDef*%
%ADD20RoundRect,0.250000X0.400000X0.625000X-0.400000X0.625000X-0.400000X-0.625000X0.400000X-0.625000X0*%
%TD*%
%TA.AperFunction,SMDPad,CuDef*%
%ADD21RoundRect,0.250000X-0.400000X-0.625000X0.400000X-0.625000X0.400000X0.625000X-0.400000X0.625000X0*%
%TD*%
%TA.AperFunction,SMDPad,CuDef*%
%ADD22RoundRect,0.150000X0.825000X0.150000X-0.825000X0.150000X-0.825000X-0.150000X0.825000X-0.150000X0*%
%TD*%
%TA.AperFunction,SMDPad,CuDef*%
%ADD23R,0.300000X1.150000*%
%TD*%
%TA.AperFunction,ComponentPad*%
%ADD24O,1.000000X2.100000*%
%TD*%
%TA.AperFunction,ComponentPad*%
%ADD25O,1.000000X1.600000*%
%TD*%
%TA.AperFunction,ViaPad*%
%ADD26C,0.600000*%
%TD*%
%TA.AperFunction,ViaPad*%
%ADD27C,0.400000*%
%TD*%
%TA.AperFunction,Conductor*%
%ADD28C,0.300000*%
%TD*%
%TA.AperFunction,Conductor*%
%ADD29C,0.250000*%
%TD*%
%TA.AperFunction,Conductor*%
%ADD30C,0.200000*%
%TD*%
G04 APERTURE END LIST*
D10*
%TO.P,Q1,1,B*%
%TO.N,Net-(Q1-Pad1)*%
X147550000Y-83762500D03*
%TO.P,Q1,2,E*%
%TO.N,/RTS*%
X145650000Y-83762500D03*
%TO.P,Q1,3,C*%
%TO.N,/ESP_EN*%
X146600000Y-85637500D03*
%TD*%
D11*
%TO.P,R1,1*%
%TO.N,/DTR*%
X149400000Y-83650000D03*
%TO.P,R1,2*%
%TO.N,Net-(Q1-Pad1)*%
X149400000Y-86750000D03*
%TD*%
%TO.P,R4,1*%
%TO.N,Net-(R4-Pad1)*%
X141300000Y-83650000D03*
%TO.P,R4,2*%
%TO.N,/TX*%
X141300000Y-86750000D03*
%TD*%
D12*
%TO.P,C1,1*%
%TO.N,+5V*%
X139137500Y-79750000D03*
%TO.P,C1,2*%
%TO.N,GND*%
X142262500Y-79750000D03*
%TD*%
D11*
%TO.P,R5,1*%
%TO.N,Net-(R5-Pad1)*%
X138800000Y-83650000D03*
%TO.P,R5,2*%
%TO.N,/RX*%
X138800000Y-86750000D03*
%TD*%
D13*
%TO.P,D1,1,K*%
%TO.N,GND*%
X141312500Y-77200000D03*
%TO.P,D1,2,A*%
%TO.N,Net-(D1-Pad2)*%
X144287500Y-77200000D03*
%TD*%
D14*
%TO.P,U1,1,GND*%
%TO.N,GND*%
X134200000Y-76900000D03*
%TO.P,U1,2,Q*%
%TO.N,+3.3V*%
X136500000Y-76900000D03*
%TO.P,U1,3,I*%
%TO.N,+5V*%
X138800000Y-76900000D03*
D15*
%TO.P,U1,4*%
%TO.N,N/C*%
X136500000Y-70600000D03*
%TD*%
D16*
%TO.P,C3,1*%
%TO.N,+3.3V*%
X137198500Y-79750000D03*
%TO.P,C3,2*%
%TO.N,GND*%
X134073500Y-79750000D03*
%TD*%
D11*
%TO.P,R6,1*%
%TO.N,Net-(D2-Pad2)*%
X153200000Y-88850000D03*
%TO.P,R6,2*%
%TO.N,VCC*%
X153200000Y-91950000D03*
%TD*%
D17*
%TO.P,J1,1,Pin_1*%
%TO.N,+3.3V*%
X135800000Y-89525000D03*
D18*
%TO.P,J1,2,Pin_2*%
%TO.N,VCC*%
X135800000Y-86985000D03*
%TO.P,J1,3,Pin_3*%
%TO.N,+5V*%
X135800000Y-84445000D03*
%TD*%
D10*
%TO.P,Q2,1,B*%
%TO.N,Net-(Q2-Pad1)*%
X153150000Y-83762500D03*
%TO.P,Q2,2,E*%
%TO.N,/DTR*%
X151250000Y-83762500D03*
%TO.P,Q2,3,C*%
%TO.N,/ESP_IO0*%
X152200000Y-85637500D03*
%TD*%
D19*
%TO.P,R7,1*%
%TO.N,VCC*%
X151000000Y-91950000D03*
%TO.P,R7,2*%
%TO.N,Net-(D3-Pad2)*%
X151000000Y-88850000D03*
%TD*%
D20*
%TO.P,R9,1*%
%TO.N,GND*%
X144450000Y-70300000D03*
%TO.P,R9,2*%
%TO.N,Net-(P1-PadB5)*%
X141350000Y-70300000D03*
%TD*%
D12*
%TO.P,C2,1*%
%TO.N,GND*%
X149637500Y-69200000D03*
%TO.P,C2,2*%
%TO.N,Net-(C2-Pad2)*%
X152762500Y-69200000D03*
%TD*%
D21*
%TO.P,R3,1*%
%TO.N,+5V*%
X141250000Y-74900000D03*
%TO.P,R3,2*%
%TO.N,Net-(D1-Pad2)*%
X144350000Y-74900000D03*
%TD*%
D20*
%TO.P,R8,1*%
%TO.N,Net-(P1-PadA5)*%
X144350000Y-72600000D03*
%TO.P,R8,2*%
%TO.N,GND*%
X141250000Y-72600000D03*
%TD*%
D22*
%TO.P,U2,1,GND*%
%TO.N,GND*%
X152075000Y-80137000D03*
%TO.P,U2,2,TXD*%
%TO.N,Net-(R4-Pad1)*%
X152075000Y-78867000D03*
%TO.P,U2,3,RXD*%
%TO.N,Net-(R5-Pad1)*%
X152075000Y-77597000D03*
%TO.P,U2,4,V3*%
%TO.N,Net-(C2-Pad2)*%
X152075000Y-76327000D03*
%TO.P,U2,5,UD+*%
%TO.N,/D+*%
X152075000Y-75057000D03*
%TO.P,U2,6,UD-*%
%TO.N,/D-*%
X152075000Y-73787000D03*
%TO.P,U2,7,XI*%
%TO.N,unconnected-(U2-Pad7)*%
X152075000Y-72517000D03*
%TO.P,U2,8,XO*%
%TO.N,unconnected-(U2-Pad8)*%
X152075000Y-71247000D03*
%TO.P,U2,9,~{CTS}*%
%TO.N,unconnected-(U2-Pad9)*%
X147125000Y-71247000D03*
%TO.P,U2,10,~{DSR}*%
%TO.N,unconnected-(U2-Pad10)*%
X147125000Y-72517000D03*
%TO.P,U2,11,~{RI}*%
%TO.N,unconnected-(U2-Pad11)*%
X147125000Y-73787000D03*
%TO.P,U2,12,~{DCD}*%
%TO.N,unconnected-(U2-Pad12)*%
X147125000Y-75057000D03*
%TO.P,U2,13,~{DTR}*%
%TO.N,/DTR*%
X147125000Y-76327000D03*
%TO.P,U2,14,~{RTS}*%
%TO.N,/RTS*%
X147125000Y-77597000D03*
%TO.P,U2,15,R232*%
%TO.N,unconnected-(U2-Pad15)*%
X147125000Y-78867000D03*
%TO.P,U2,16,VCC*%
%TO.N,+5V*%
X147125000Y-80137000D03*
%TD*%
D23*
%TO.P,P1,A1,GND*%
%TO.N,GND*%
X146850000Y-68170000D03*
%TO.P,P1,A4,VBUS*%
%TO.N,+5V*%
X146050000Y-68170000D03*
%TO.P,P1,A5,CC*%
%TO.N,Net-(P1-PadA5)*%
X144750000Y-68170000D03*
%TO.P,P1,A6,D+*%
%TO.N,/D+*%
X143750000Y-68170000D03*
%TO.P,P1,A7,D-*%
%TO.N,/D-*%
X143250000Y-68170000D03*
%TO.P,P1,A8,SBU1*%
%TO.N,unconnected-(P1-PadA8)*%
X142250000Y-68170000D03*
%TO.P,P1,A9,VBUS*%
%TO.N,+5V*%
X140950000Y-68170000D03*
%TO.P,P1,A12,GND*%
%TO.N,GND*%
X140150000Y-68170000D03*
%TO.P,P1,B1,GND*%
X140450000Y-68170000D03*
%TO.P,P1,B4,VBUS*%
%TO.N,+5V*%
X141250000Y-68170000D03*
%TO.P,P1,B5,VCONN*%
%TO.N,Net-(P1-PadB5)*%
X141750000Y-68170000D03*
%TO.P,P1,B6*%
%TO.N,N/C*%
X142750000Y-68170000D03*
%TO.P,P1,B7*%
X144250000Y-68170000D03*
%TO.P,P1,B8,SBU2*%
%TO.N,unconnected-(P1-PadB8)*%
X145250000Y-68170000D03*
%TO.P,P1,B9,VBUS*%
%TO.N,+5V*%
X145750000Y-68170000D03*
%TO.P,P1,B12,GND*%
%TO.N,GND*%
X146550000Y-68170000D03*
D24*
%TO.P,P1,S1,SHIELD*%
X147820000Y-67605000D03*
D25*
X147820000Y-63425000D03*
D24*
X139180000Y-67605000D03*
D25*
X139180000Y-63425000D03*
%TD*%
D13*
%TO.P,D3,1,K*%
%TO.N,/RX*%
X142112500Y-91200000D03*
%TO.P,D3,2,A*%
%TO.N,Net-(D3-Pad2)*%
X145087500Y-91200000D03*
%TD*%
%TO.P,D2,1,K*%
%TO.N,/TX*%
X143712500Y-88800000D03*
%TO.P,D2,2,A*%
%TO.N,Net-(D2-Pad2)*%
X146687500Y-88800000D03*
%TD*%
D19*
%TO.P,R2,1*%
%TO.N,/RTS*%
X143800000Y-86750000D03*
%TO.P,R2,2*%
%TO.N,Net-(Q2-Pad1)*%
X143800000Y-83650000D03*
%TD*%
D17*
%TO.P,J3,1,Pin_1*%
%TO.N,GND*%
X135000000Y-63325000D03*
D18*
%TO.P,J3,2,Pin_2*%
X135000000Y-65865000D03*
%TD*%
D17*
%TO.P,J2,1,Pin_1*%
%TO.N,/ESP_IO0*%
X149750000Y-94000000D03*
D18*
%TO.P,J2,2,Pin_2*%
%TO.N,/ESP_EN*%
X147210000Y-94000000D03*
%TO.P,J2,3,Pin_3*%
%TO.N,/TX*%
X144670000Y-94000000D03*
%TO.P,J2,4,Pin_4*%
%TO.N,/RX*%
X142130000Y-94000000D03*
%TO.P,J2,5,Pin_5*%
%TO.N,VCC*%
X139590000Y-94000000D03*
%TO.P,J2,6,Pin_6*%
%TO.N,GND*%
X137050000Y-94000000D03*
%TD*%
D17*
%TO.P,J4,1,Pin_1*%
%TO.N,GND*%
X152000000Y-63325000D03*
D18*
%TO.P,J4,2,Pin_2*%
X152000000Y-65865000D03*
%TD*%
D26*
%TO.N,+5V*%
X146800000Y-81400000D03*
X140600000Y-81350500D03*
%TO.N,GND*%
X150475000Y-79750000D03*
X140200000Y-76100000D03*
%TO.N,/ESP_IO0*%
X152200000Y-87000000D03*
%TO.N,/ESP_EN*%
X146600000Y-87000000D03*
%TO.N,/TX*%
X145000000Y-89000000D03*
D27*
%TO.N,Net-(P1-PadA5)*%
X143600000Y-71400000D03*
X144700000Y-67100000D03*
D26*
%TO.N,/D+*%
X150471017Y-71352484D03*
X150449500Y-73673266D03*
D27*
%TO.N,/D-*%
X147100000Y-69700000D03*
X143300000Y-69400000D03*
D26*
%TO.N,Net-(Q2-Pad1)*%
X144600000Y-82200000D03*
X149800000Y-82200000D03*
%TO.N,Net-(R4-Pad1)*%
X144800000Y-80800000D03*
X149600000Y-78750000D03*
%TO.N,Net-(R5-Pad1)*%
X143721402Y-80311989D03*
X149675000Y-77750000D03*
%TD*%
D28*
%TO.N,+5V*%
X135800000Y-84445000D02*
X135800000Y-84200000D01*
X139137500Y-81062500D02*
X139137500Y-81137500D01*
X139350500Y-81350500D02*
X140600000Y-81350500D01*
X139137500Y-79750000D02*
X139137500Y-81062500D01*
X139137500Y-81137500D02*
X139350500Y-81350500D01*
D29*
X141250000Y-68170000D02*
X141250000Y-68595000D01*
D30*
X145750000Y-67325000D02*
X145750000Y-68170000D01*
D28*
X140100000Y-74900000D02*
X138800000Y-76200000D01*
X138800000Y-76200000D02*
X138800000Y-76900000D01*
D30*
X141250000Y-68170000D02*
X141250000Y-67450000D01*
D28*
X140100000Y-69100000D02*
X138800000Y-70400000D01*
X141250000Y-68595000D02*
X140745000Y-69100000D01*
X135800000Y-84200000D02*
X139137500Y-80862500D01*
X147385000Y-80137000D02*
X147385000Y-80815000D01*
X138800000Y-70400000D02*
X138800000Y-71700000D01*
D30*
X142100000Y-66600000D02*
X145025000Y-66600000D01*
D28*
X140745000Y-69100000D02*
X140100000Y-69100000D01*
X138800000Y-76900000D02*
X138800000Y-71700000D01*
X139137500Y-79750000D02*
X138950000Y-79562500D01*
X141250000Y-74900000D02*
X140100000Y-74900000D01*
X139137500Y-80862500D02*
X139137500Y-79750000D01*
D30*
X145025000Y-66600000D02*
X145750000Y-67325000D01*
X141250000Y-67450000D02*
X142100000Y-66600000D01*
D28*
X138950000Y-77050000D02*
X138800000Y-76900000D01*
X138950000Y-79562500D02*
X138950000Y-77050000D01*
X147385000Y-80815000D02*
X146800000Y-81400000D01*
%TO.N,GND*%
X140200000Y-76600000D02*
X140200000Y-76100000D01*
X152075000Y-80137000D02*
X150862000Y-80137000D01*
X141312500Y-77200000D02*
X142200000Y-78087500D01*
X142200000Y-79687500D02*
X142262500Y-79750000D01*
X140800000Y-77200000D02*
X140200000Y-76600000D01*
X140450000Y-68170000D02*
X139745000Y-68170000D01*
X150862000Y-80137000D02*
X150475000Y-79750000D01*
X139745000Y-68170000D02*
X139180000Y-67605000D01*
X146850000Y-68170000D02*
X147255000Y-68170000D01*
X147255000Y-68170000D02*
X147820000Y-67605000D01*
X141312500Y-77200000D02*
X140800000Y-77200000D01*
X142200000Y-78087500D02*
X142200000Y-79687500D01*
%TO.N,Net-(C2-Pad2)*%
X153800000Y-75600000D02*
X153073000Y-76327000D01*
X153000000Y-69200000D02*
X153800000Y-70000000D01*
X153073000Y-76327000D02*
X152075000Y-76327000D01*
X152762500Y-69200000D02*
X153000000Y-69200000D01*
X153800000Y-70000000D02*
X153800000Y-75600000D01*
%TO.N,+3.3V*%
X136950000Y-79501500D02*
X136950000Y-77350000D01*
X135125000Y-89525000D02*
X134400000Y-88800000D01*
X137198500Y-79750000D02*
X136950000Y-79501500D01*
X137198500Y-80801500D02*
X137198500Y-79750000D01*
X135800000Y-89525000D02*
X135125000Y-89525000D01*
X134400000Y-88800000D02*
X134400000Y-83600000D01*
X136950000Y-77350000D02*
X136500000Y-76900000D01*
X134400000Y-83600000D02*
X137198500Y-80801500D01*
%TO.N,Net-(D1-Pad2)*%
X144287500Y-77200000D02*
X144287500Y-74962500D01*
X144287500Y-74962500D02*
X144350000Y-74900000D01*
%TO.N,VCC*%
X152000000Y-95400000D02*
X153200000Y-94200000D01*
X140990000Y-95400000D02*
X152000000Y-95400000D01*
X153200000Y-94200000D02*
X153200000Y-91950000D01*
X139590000Y-94000000D02*
X140990000Y-95400000D01*
X151000000Y-91950000D02*
X153200000Y-91950000D01*
%TO.N,/ESP_IO0*%
X152200000Y-85637500D02*
X152200000Y-87000000D01*
%TO.N,/ESP_EN*%
X146600000Y-85637500D02*
X146600000Y-87000000D01*
%TO.N,/TX*%
X145000000Y-88800000D02*
X145000000Y-89000000D01*
X143350000Y-88800000D02*
X145000000Y-88800000D01*
X141300000Y-86750000D02*
X143350000Y-88800000D01*
%TO.N,/RX*%
X142130000Y-90080000D02*
X142130000Y-94000000D01*
X138800000Y-86750000D02*
X142130000Y-90080000D01*
%TO.N,Net-(P1-PadA5)*%
X144750000Y-68170000D02*
X144750000Y-67150000D01*
X144750000Y-67150000D02*
X144700000Y-67100000D01*
X144350000Y-72600000D02*
X143600000Y-71850000D01*
X143600000Y-71850000D02*
X143600000Y-71400000D01*
%TO.N,/D+*%
X149568533Y-70450000D02*
X150471017Y-71352484D01*
X143750000Y-68170000D02*
X143750000Y-69045000D01*
X152335000Y-75057000D02*
X151058599Y-75057000D01*
X143805499Y-69100499D02*
X147626971Y-69100499D01*
X150449500Y-74447901D02*
X150449500Y-73673266D01*
X143750000Y-69045000D02*
X143805499Y-69100499D01*
X148976472Y-70450000D02*
X149568533Y-70450000D01*
X151058599Y-75057000D02*
X150449500Y-74447901D01*
X147626971Y-69100499D02*
X148976472Y-70450000D01*
%TO.N,/D-*%
X151607070Y-73787000D02*
X147520070Y-69700000D01*
X143250000Y-69000000D02*
X143250000Y-69350000D01*
X143250000Y-68170000D02*
X143250000Y-69000000D01*
D30*
X143250000Y-69350000D02*
X143300000Y-69400000D01*
D28*
X152335000Y-73787000D02*
X151607070Y-73787000D01*
X147520070Y-69700000D02*
X147100000Y-69700000D01*
D29*
%TO.N,Net-(P1-PadB5)*%
X141350000Y-69650000D02*
X141750000Y-69250000D01*
X141750000Y-69250000D02*
X141750000Y-68170000D01*
X141350000Y-70300000D02*
X141350000Y-69650000D01*
D28*
%TO.N,Net-(Q1-Pad1)*%
X149350000Y-86800000D02*
X149400000Y-86750000D01*
X147550000Y-83762500D02*
X147550000Y-86150000D01*
X148200000Y-86800000D02*
X149350000Y-86800000D01*
X147550000Y-86150000D02*
X148200000Y-86800000D01*
%TO.N,/RTS*%
X144800000Y-85200000D02*
X145300000Y-85200000D01*
X145650000Y-84850000D02*
X145650000Y-83762500D01*
X145803000Y-77597000D02*
X145600000Y-77800000D01*
X145600000Y-77800000D02*
X145600000Y-83712500D01*
X147385000Y-77597000D02*
X145803000Y-77597000D01*
X145600000Y-83712500D02*
X145650000Y-83762500D01*
X145300000Y-85200000D02*
X145650000Y-84850000D01*
X143800000Y-86200000D02*
X144800000Y-85200000D01*
X143800000Y-86750000D02*
X143800000Y-86200000D01*
%TO.N,Net-(Q2-Pad1)*%
X152800000Y-82200000D02*
X149800000Y-82200000D01*
X143800000Y-83650000D02*
X143800000Y-82600000D01*
X153150000Y-83762500D02*
X153150000Y-82550000D01*
X143800000Y-82600000D02*
X144200000Y-82200000D01*
X153150000Y-82550000D02*
X152800000Y-82200000D01*
X144200000Y-82200000D02*
X144600000Y-82200000D01*
%TO.N,/DTR*%
X149400000Y-83650000D02*
X151137500Y-83650000D01*
X147385000Y-76327000D02*
X148054000Y-76327000D01*
X151137500Y-83650000D02*
X151250000Y-83762500D01*
X148550500Y-82800500D02*
X149400000Y-83650000D01*
X148054000Y-76327000D02*
X148550500Y-76823500D01*
X148550500Y-76823500D02*
X148550500Y-82800500D01*
%TO.N,Net-(R4-Pad1)*%
X144150000Y-80800000D02*
X144800000Y-80800000D01*
X152075000Y-78867000D02*
X149717000Y-78867000D01*
X141300000Y-83650000D02*
X144150000Y-80800000D01*
X149717000Y-78867000D02*
X149600000Y-78750000D01*
%TO.N,Net-(R5-Pad1)*%
X138800000Y-83650000D02*
X140450000Y-82000000D01*
X142033391Y-82000000D02*
X143721402Y-80311989D01*
X140450000Y-82000000D02*
X142033391Y-82000000D01*
X149828000Y-77597000D02*
X149675000Y-77750000D01*
X152075000Y-77597000D02*
X149828000Y-77597000D01*
%TO.N,Net-(D2-Pad2)*%
X152550000Y-87750000D02*
X153200000Y-88400000D01*
X148800000Y-88800000D02*
X149850000Y-87750000D01*
X149850000Y-87750000D02*
X152550000Y-87750000D01*
X146687500Y-88800000D02*
X148800000Y-88800000D01*
X153200000Y-88400000D02*
X153200000Y-88850000D01*
%TO.N,Net-(D3-Pad2)*%
X148650000Y-91200000D02*
X145087500Y-91200000D01*
X151000000Y-88850000D02*
X148650000Y-91200000D01*
%TD*%
%TA.AperFunction,Conductor*%
%TO.N,GND*%
G36*
X152504119Y-61000770D02*
G01*
X152583648Y-61005982D01*
X152761461Y-61018699D01*
X152777024Y-61020796D01*
X152888397Y-61042949D01*
X152890394Y-61043364D01*
X153030143Y-61073765D01*
X153043806Y-61077557D01*
X153157737Y-61116232D01*
X153161067Y-61117417D01*
X153288725Y-61165031D01*
X153300384Y-61170065D01*
X153410600Y-61224418D01*
X153415254Y-61226835D01*
X153532421Y-61290812D01*
X153541994Y-61296608D01*
X153645238Y-61365594D01*
X153650724Y-61369477D01*
X153756668Y-61448786D01*
X153764216Y-61454906D01*
X153857936Y-61537097D01*
X153863953Y-61542733D01*
X153957265Y-61636045D01*
X153962901Y-61642062D01*
X154045092Y-61735782D01*
X154051218Y-61743337D01*
X154105338Y-61815633D01*
X154130519Y-61849271D01*
X154134415Y-61854776D01*
X154203382Y-61957993D01*
X154209196Y-61967595D01*
X154273162Y-62084742D01*
X154275580Y-62089398D01*
X154329925Y-62199597D01*
X154334975Y-62211293D01*
X154382549Y-62338843D01*
X154383794Y-62342342D01*
X154422434Y-62456170D01*
X154426240Y-62469881D01*
X154456613Y-62609506D01*
X154457071Y-62611708D01*
X154479200Y-62722959D01*
X154481300Y-62738551D01*
X154493993Y-62916021D01*
X154494044Y-62916768D01*
X154499230Y-62995880D01*
X154499500Y-63004122D01*
X154499500Y-69456289D01*
X154479885Y-69523804D01*
X154427147Y-69570298D01*
X154357707Y-69581295D01*
X154293183Y-69553373D01*
X154283843Y-69545646D01*
X154283841Y-69545643D01*
X154248238Y-69516190D01*
X154239467Y-69508207D01*
X153970404Y-69239144D01*
X153943090Y-69198267D01*
X153933499Y-69150049D01*
X153933499Y-68499460D01*
X153933499Y-68499456D01*
X153922887Y-68395574D01*
X153867115Y-68227262D01*
X153774030Y-68076348D01*
X153774028Y-68076346D01*
X153774027Y-68076344D01*
X153648655Y-67950972D01*
X153648652Y-67950970D01*
X153497738Y-67857885D01*
X153329426Y-67802113D01*
X153225545Y-67791500D01*
X153225540Y-67791500D01*
X152299459Y-67791500D01*
X152195573Y-67802113D01*
X152027262Y-67857885D01*
X151876344Y-67950972D01*
X151750972Y-68076344D01*
X151750970Y-68076348D01*
X151657885Y-68227262D01*
X151602113Y-68395574D01*
X151595213Y-68463119D01*
X151591500Y-68499459D01*
X151591500Y-69900540D01*
X151602103Y-70004328D01*
X151602113Y-70004426D01*
X151657885Y-70172738D01*
X151703292Y-70246355D01*
X151722021Y-70309751D01*
X151706075Y-70373906D01*
X151659843Y-70421158D01*
X151596051Y-70438500D01*
X151183498Y-70438500D01*
X151160167Y-70440336D01*
X151146166Y-70441438D01*
X150986400Y-70487854D01*
X150836693Y-70576391D01*
X150784974Y-70593323D01*
X150730939Y-70586866D01*
X150664026Y-70563452D01*
X150611690Y-70528482D01*
X150582800Y-70472560D01*
X150584566Y-70409641D01*
X150616547Y-70355426D01*
X150648634Y-70323339D01*
X150741659Y-70172522D01*
X150797393Y-70004328D01*
X150808000Y-69900503D01*
X150808000Y-69454000D01*
X149509500Y-69454000D01*
X149446500Y-69437119D01*
X149400381Y-69391000D01*
X149383500Y-69328000D01*
X149383500Y-67792000D01*
X149891500Y-67792000D01*
X149891500Y-68946000D01*
X150808000Y-68946000D01*
X150808000Y-68499497D01*
X150797393Y-68395671D01*
X150741659Y-68227477D01*
X150648632Y-68076657D01*
X150523342Y-67951367D01*
X150372522Y-67858340D01*
X150204328Y-67802606D01*
X150100503Y-67792000D01*
X149891500Y-67792000D01*
X149383500Y-67792000D01*
X149174497Y-67792000D01*
X149070676Y-67802606D01*
X148919790Y-67852605D01*
X148880157Y-67859000D01*
X147692000Y-67859000D01*
X147629000Y-67842119D01*
X147582881Y-67796000D01*
X147566000Y-67733000D01*
X147566000Y-66078693D01*
X147565999Y-66078692D01*
X148074000Y-66078692D01*
X148074000Y-67351000D01*
X148828000Y-67351000D01*
X148828000Y-67005479D01*
X148813415Y-66857396D01*
X148755776Y-66667390D01*
X148662176Y-66492276D01*
X148536212Y-66338787D01*
X148382723Y-66212823D01*
X148207609Y-66119223D01*
X148206874Y-66119000D01*
X150663455Y-66119000D01*
X150711177Y-66307451D01*
X150801580Y-66513548D01*
X150924678Y-66701962D01*
X151077096Y-66867533D01*
X151254697Y-67005766D01*
X151452631Y-67112883D01*
X151665485Y-67185955D01*
X151746000Y-67199391D01*
X151746000Y-66119000D01*
X152254000Y-66119000D01*
X152254000Y-67199391D01*
X152334514Y-67185955D01*
X152547368Y-67112883D01*
X152745302Y-67005766D01*
X152922903Y-66867533D01*
X153075321Y-66701962D01*
X153198419Y-66513548D01*
X153288822Y-66307451D01*
X153336544Y-66119000D01*
X152254000Y-66119000D01*
X151746000Y-66119000D01*
X150663455Y-66119000D01*
X148206874Y-66119000D01*
X148074000Y-66078692D01*
X147565999Y-66078692D01*
X147432390Y-66119223D01*
X147257276Y-66212823D01*
X147103787Y-66338787D01*
X146977824Y-66492274D01*
X146919569Y-66601262D01*
X146884330Y-66642452D01*
X146835046Y-66665025D01*
X146780839Y-66664803D01*
X146731743Y-66641827D01*
X146680233Y-66602302D01*
X146680232Y-66602301D01*
X146540235Y-66544312D01*
X146427720Y-66529500D01*
X146352280Y-66529500D01*
X146239764Y-66544312D01*
X146099765Y-66602302D01*
X146067522Y-66627043D01*
X146012698Y-66651166D01*
X145952930Y-66647248D01*
X145901724Y-66616175D01*
X145489315Y-66203766D01*
X145478448Y-66191375D01*
X145458986Y-66166011D01*
X145427074Y-66141524D01*
X145427074Y-66141525D01*
X145427072Y-66141523D01*
X145331876Y-66068476D01*
X145331875Y-66068475D01*
X145227204Y-66025119D01*
X145183851Y-66007162D01*
X145183850Y-66007161D01*
X145183848Y-66007161D01*
X145164468Y-66004608D01*
X145164456Y-66004608D01*
X145150469Y-66002766D01*
X145056703Y-65990422D01*
X145056691Y-65990422D01*
X145025000Y-65986250D01*
X144993307Y-65990422D01*
X144976864Y-65991500D01*
X142148144Y-65991500D01*
X142131698Y-65990422D01*
X142100000Y-65986249D01*
X141941151Y-66007161D01*
X141793121Y-66068476D01*
X141698696Y-66140932D01*
X141698476Y-66141102D01*
X141666011Y-66166014D01*
X141646545Y-66191381D01*
X141635681Y-66203768D01*
X141169002Y-66670447D01*
X141117796Y-66701520D01*
X141058027Y-66705438D01*
X141003204Y-66681314D01*
X140900233Y-66602302D01*
X140900232Y-66602301D01*
X140760235Y-66544312D01*
X140647720Y-66529500D01*
X140572280Y-66529500D01*
X140459764Y-66544312D01*
X140319765Y-66602302D01*
X140268254Y-66641828D01*
X140219157Y-66664804D01*
X140164950Y-66665025D01*
X140115667Y-66642451D01*
X140080429Y-66601260D01*
X140022177Y-66492278D01*
X139896212Y-66338787D01*
X139742723Y-66212823D01*
X139567609Y-66119223D01*
X139434000Y-66078692D01*
X139434000Y-67733000D01*
X139417119Y-67796000D01*
X139371000Y-67842119D01*
X139308000Y-67859000D01*
X138172000Y-67859000D01*
X138172000Y-68204521D01*
X138186584Y-68352603D01*
X138244223Y-68542609D01*
X138337823Y-68717723D01*
X138471661Y-68880806D01*
X138470267Y-68881949D01*
X138496472Y-68917284D01*
X138505455Y-68977852D01*
X138484826Y-69035503D01*
X138439457Y-69076622D01*
X138380062Y-69091500D01*
X134551362Y-69091500D01*
X134490799Y-69098011D01*
X134353794Y-69149111D01*
X134236738Y-69236738D01*
X134149111Y-69353794D01*
X134131710Y-69400449D01*
X134098011Y-69490799D01*
X134091500Y-69551362D01*
X134091500Y-71648638D01*
X134098011Y-71709201D01*
X134103503Y-71723925D01*
X134149111Y-71846205D01*
X134236738Y-71963261D01*
X134353794Y-72050888D01*
X134353795Y-72050888D01*
X134353796Y-72050889D01*
X134490799Y-72101989D01*
X134551362Y-72108500D01*
X138015500Y-72108500D01*
X138078500Y-72125381D01*
X138124619Y-72171500D01*
X138141500Y-72234500D01*
X138141500Y-75265500D01*
X138124619Y-75328500D01*
X138078500Y-75374619D01*
X138015500Y-75391500D01*
X138001362Y-75391500D01*
X137940799Y-75398011D01*
X137803794Y-75449111D01*
X137725509Y-75507715D01*
X137676783Y-75529968D01*
X137623217Y-75529968D01*
X137574491Y-75507715D01*
X137496205Y-75449111D01*
X137427702Y-75423560D01*
X137359201Y-75398011D01*
X137298638Y-75391500D01*
X135701362Y-75391500D01*
X135640799Y-75398011D01*
X135503794Y-75449111D01*
X135425091Y-75508028D01*
X135376365Y-75530281D01*
X135322798Y-75530280D01*
X135274072Y-75508028D01*
X135195960Y-75449553D01*
X135059093Y-75398505D01*
X134998589Y-75392000D01*
X134454000Y-75392000D01*
X134454000Y-78322000D01*
X134437119Y-78385000D01*
X134391000Y-78431119D01*
X134328000Y-78448000D01*
X134327500Y-78448000D01*
X134327500Y-79496000D01*
X135244000Y-79496000D01*
X135244000Y-79049497D01*
X135233393Y-78945671D01*
X135177659Y-78777477D01*
X135084632Y-78626657D01*
X135052334Y-78594359D01*
X135020533Y-78540762D01*
X135018309Y-78478480D01*
X135046205Y-78422751D01*
X135097397Y-78387208D01*
X135195962Y-78350445D01*
X135274074Y-78291972D01*
X135322800Y-78269719D01*
X135376367Y-78269720D01*
X135425091Y-78291971D01*
X135503796Y-78350889D01*
X135640799Y-78401989D01*
X135701362Y-78408500D01*
X136100627Y-78408500D01*
X136157830Y-78422233D01*
X136202563Y-78460439D01*
X136225076Y-78514789D01*
X136220460Y-78573436D01*
X136189722Y-78623595D01*
X136186972Y-78626344D01*
X136186970Y-78626348D01*
X136093885Y-78777262D01*
X136038113Y-78945573D01*
X136038113Y-78945574D01*
X136027500Y-79049459D01*
X136027500Y-80450540D01*
X136027501Y-80450545D01*
X136038113Y-80554426D01*
X136093885Y-80722738D01*
X136137765Y-80793878D01*
X136155808Y-80846612D01*
X136149337Y-80901970D01*
X136119619Y-80949120D01*
X133995611Y-83073127D01*
X133978742Y-83086643D01*
X133928394Y-83140257D01*
X133925644Y-83143095D01*
X133905070Y-83163670D01*
X133902343Y-83167185D01*
X133894650Y-83176191D01*
X133863027Y-83209868D01*
X133852690Y-83228668D01*
X133841844Y-83245179D01*
X133828695Y-83262131D01*
X133810350Y-83304524D01*
X133805130Y-83315179D01*
X133782876Y-83355660D01*
X133777542Y-83376435D01*
X133771139Y-83395135D01*
X133762620Y-83414820D01*
X133755393Y-83460452D01*
X133752986Y-83472073D01*
X133741500Y-83516811D01*
X133741500Y-83538259D01*
X133739949Y-83557970D01*
X133736594Y-83579152D01*
X133740941Y-83625138D01*
X133741500Y-83636996D01*
X133741500Y-88713389D01*
X133739128Y-88734874D01*
X133741438Y-88808369D01*
X133741500Y-88812327D01*
X133741500Y-88841436D01*
X133742055Y-88845832D01*
X133742986Y-88857656D01*
X133744437Y-88903831D01*
X133750421Y-88924427D01*
X133754429Y-88943782D01*
X133757117Y-88965061D01*
X133774124Y-89008017D01*
X133777967Y-89019244D01*
X133790854Y-89063600D01*
X133801770Y-89082058D01*
X133810467Y-89099810D01*
X133818364Y-89119756D01*
X133845514Y-89157123D01*
X133852033Y-89167046D01*
X133875549Y-89206810D01*
X133890710Y-89221971D01*
X133903550Y-89237004D01*
X133916157Y-89254355D01*
X133951751Y-89283801D01*
X133960531Y-89291791D01*
X134404595Y-89735855D01*
X134431909Y-89776732D01*
X134441500Y-89824950D01*
X134441500Y-90423638D01*
X134448011Y-90484201D01*
X134463027Y-90524460D01*
X134499111Y-90621205D01*
X134586738Y-90738261D01*
X134703794Y-90825888D01*
X134703795Y-90825888D01*
X134703796Y-90825889D01*
X134840799Y-90876989D01*
X134901362Y-90883500D01*
X136698638Y-90883500D01*
X136759201Y-90876989D01*
X136896204Y-90825889D01*
X137013261Y-90738261D01*
X137100889Y-90621204D01*
X137151989Y-90484201D01*
X137158500Y-90423638D01*
X137158500Y-88626362D01*
X137151989Y-88565799D01*
X137100889Y-88428796D01*
X137100888Y-88428794D01*
X137013261Y-88311738D01*
X136896205Y-88224111D01*
X136834670Y-88201159D01*
X136781191Y-88181213D01*
X136730858Y-88146650D01*
X136702684Y-88092480D01*
X136703287Y-88031424D01*
X136732522Y-87977822D01*
X136875722Y-87822268D01*
X136998860Y-87633791D01*
X137089296Y-87427616D01*
X137144564Y-87209368D01*
X137144870Y-87205674D01*
X137146757Y-87200706D01*
X137147127Y-87199247D01*
X137147295Y-87199289D01*
X137169636Y-87140486D01*
X137189697Y-87113736D01*
X137238236Y-87074683D01*
X137299551Y-87063658D01*
X137358654Y-87083355D01*
X137401095Y-87128961D01*
X137416500Y-87189325D01*
X137416500Y-87200536D01*
X137424317Y-87277054D01*
X137427113Y-87304426D01*
X137482885Y-87472738D01*
X137546561Y-87575972D01*
X137575972Y-87623655D01*
X137701344Y-87749027D01*
X137701346Y-87749028D01*
X137701348Y-87749030D01*
X137852262Y-87842115D01*
X138020574Y-87897887D01*
X138124455Y-87908500D01*
X138975049Y-87908499D01*
X139023267Y-87918090D01*
X139064144Y-87945404D01*
X141046434Y-89927694D01*
X141079045Y-89984174D01*
X141079048Y-90049393D01*
X141056924Y-90087718D01*
X141058702Y-90088815D01*
X141050972Y-90101346D01*
X141050970Y-90101349D01*
X140957885Y-90252261D01*
X140957885Y-90252262D01*
X140902113Y-90420573D01*
X140902112Y-90420575D01*
X140902113Y-90420575D01*
X140891500Y-90524456D01*
X140891500Y-91875544D01*
X140902113Y-91979425D01*
X140957885Y-92147738D01*
X141050970Y-92298651D01*
X141050972Y-92298654D01*
X141176345Y-92424027D01*
X141176347Y-92424028D01*
X141176349Y-92424030D01*
X141327262Y-92517115D01*
X141327264Y-92517115D01*
X141327265Y-92517116D01*
X141385133Y-92536292D01*
X141430173Y-92562588D01*
X141460706Y-92604871D01*
X141471500Y-92655896D01*
X141471500Y-92736608D01*
X141453741Y-92801105D01*
X141405471Y-92847421D01*
X141384421Y-92858812D01*
X141206762Y-92997091D01*
X141054278Y-93162731D01*
X140965483Y-93298643D01*
X140919969Y-93340541D01*
X140860000Y-93355727D01*
X140800031Y-93340541D01*
X140754517Y-93298643D01*
X140705766Y-93224024D01*
X140665722Y-93162732D01*
X140513240Y-92997094D01*
X140513239Y-92997093D01*
X140513237Y-92997091D01*
X140335578Y-92858812D01*
X140137573Y-92751657D01*
X139990874Y-92701296D01*
X139924635Y-92678556D01*
X139702569Y-92641500D01*
X139477431Y-92641500D01*
X139255365Y-92678556D01*
X139255362Y-92678556D01*
X139255362Y-92678557D01*
X139042426Y-92751657D01*
X138844421Y-92858812D01*
X138666762Y-92997091D01*
X138514275Y-93162735D01*
X138425182Y-93299101D01*
X138379669Y-93340999D01*
X138319700Y-93356185D01*
X138259731Y-93340999D01*
X138214217Y-93299101D01*
X138125321Y-93163037D01*
X137972903Y-92997466D01*
X137795302Y-92859233D01*
X137597368Y-92752116D01*
X137384514Y-92679044D01*
X137304000Y-92665609D01*
X137304000Y-94128000D01*
X137287119Y-94191000D01*
X137241000Y-94237119D01*
X137178000Y-94254000D01*
X135713455Y-94254000D01*
X135761177Y-94442451D01*
X135818164Y-94572366D01*
X135828394Y-94632792D01*
X135808905Y-94690897D01*
X135764308Y-94732934D01*
X135705154Y-94748958D01*
X132999999Y-94799999D01*
X133138929Y-96119836D01*
X133128880Y-96183932D01*
X133088272Y-96234531D01*
X133027872Y-96258217D01*
X132963693Y-96248712D01*
X132912754Y-96208536D01*
X132869477Y-96150724D01*
X132865594Y-96145238D01*
X132796608Y-96041994D01*
X132790812Y-96032421D01*
X132726835Y-95915254D01*
X132724418Y-95910600D01*
X132670065Y-95800384D01*
X132665031Y-95788725D01*
X132617417Y-95661067D01*
X132616232Y-95657737D01*
X132577557Y-95543806D01*
X132573765Y-95530143D01*
X132543364Y-95390394D01*
X132542949Y-95388397D01*
X132520796Y-95277024D01*
X132518699Y-95261461D01*
X132505977Y-95083570D01*
X132500770Y-95004119D01*
X132500500Y-94995880D01*
X132500500Y-93745999D01*
X135713455Y-93745999D01*
X135713456Y-93746000D01*
X136796000Y-93746000D01*
X136796000Y-92665609D01*
X136715485Y-92679044D01*
X136502631Y-92752116D01*
X136304697Y-92859233D01*
X136127096Y-92997466D01*
X135974678Y-93163037D01*
X135851580Y-93351451D01*
X135761177Y-93557548D01*
X135713455Y-93745999D01*
X132500500Y-93745999D01*
X132500500Y-80004000D01*
X132903000Y-80004000D01*
X132903000Y-80450503D01*
X132913606Y-80554328D01*
X132969340Y-80722522D01*
X133062367Y-80873342D01*
X133187657Y-80998632D01*
X133338477Y-81091659D01*
X133506671Y-81147393D01*
X133610497Y-81158000D01*
X133819500Y-81158000D01*
X133819500Y-80004000D01*
X134327500Y-80004000D01*
X134327500Y-81158000D01*
X134536503Y-81158000D01*
X134640328Y-81147393D01*
X134808522Y-81091659D01*
X134959342Y-80998632D01*
X135084632Y-80873342D01*
X135177659Y-80722522D01*
X135233393Y-80554328D01*
X135244000Y-80450503D01*
X135244000Y-80004000D01*
X134327500Y-80004000D01*
X133819500Y-80004000D01*
X132903000Y-80004000D01*
X132500500Y-80004000D01*
X132500500Y-79496000D01*
X132903000Y-79496000D01*
X133819500Y-79496000D01*
X133819500Y-78428000D01*
X133836381Y-78365000D01*
X133882500Y-78318881D01*
X133945500Y-78302000D01*
X133946000Y-78302000D01*
X133946000Y-77154000D01*
X132942000Y-77154000D01*
X132942000Y-77948589D01*
X132948505Y-78009093D01*
X132999554Y-78145962D01*
X133087095Y-78262904D01*
X133164572Y-78320903D01*
X133207119Y-78377739D01*
X133212184Y-78448554D01*
X133178159Y-78510866D01*
X133062366Y-78626659D01*
X132969340Y-78777477D01*
X132913606Y-78945671D01*
X132903000Y-79049497D01*
X132903000Y-79496000D01*
X132500500Y-79496000D01*
X132500500Y-76646000D01*
X132942000Y-76646000D01*
X133946000Y-76646000D01*
X133946000Y-75392000D01*
X133401411Y-75392000D01*
X133340906Y-75398505D01*
X133204037Y-75449554D01*
X133087095Y-75537095D01*
X132999554Y-75654037D01*
X132948505Y-75790906D01*
X132942000Y-75851411D01*
X132942000Y-76646000D01*
X132500500Y-76646000D01*
X132500500Y-67351000D01*
X138172000Y-67351000D01*
X138926000Y-67351000D01*
X138926000Y-66078693D01*
X138925999Y-66078692D01*
X138792390Y-66119223D01*
X138617276Y-66212823D01*
X138463787Y-66338787D01*
X138337823Y-66492276D01*
X138244223Y-66667390D01*
X138186584Y-66857396D01*
X138172000Y-67005479D01*
X138172000Y-67351000D01*
X132500500Y-67351000D01*
X132500500Y-66119000D01*
X133663455Y-66119000D01*
X133711177Y-66307451D01*
X133801580Y-66513548D01*
X133924678Y-66701962D01*
X134077096Y-66867533D01*
X134254697Y-67005766D01*
X134452631Y-67112883D01*
X134665485Y-67185955D01*
X134746000Y-67199391D01*
X134746000Y-66119000D01*
X135254000Y-66119000D01*
X135254000Y-67199391D01*
X135334514Y-67185955D01*
X135547368Y-67112883D01*
X135745302Y-67005766D01*
X135922903Y-66867533D01*
X136075321Y-66701962D01*
X136198419Y-66513548D01*
X136288822Y-66307451D01*
X136336544Y-66119000D01*
X135254000Y-66119000D01*
X134746000Y-66119000D01*
X133663455Y-66119000D01*
X132500500Y-66119000D01*
X132500500Y-63579000D01*
X133642000Y-63579000D01*
X133642000Y-64223589D01*
X133648505Y-64284093D01*
X133699554Y-64420962D01*
X133787095Y-64537904D01*
X133904037Y-64625445D01*
X134019678Y-64668577D01*
X134070012Y-64703141D01*
X134098187Y-64757311D01*
X134097585Y-64818366D01*
X134068348Y-64871970D01*
X133924675Y-65028040D01*
X133801580Y-65216451D01*
X133711177Y-65422548D01*
X133663455Y-65610999D01*
X133663456Y-65611000D01*
X134746000Y-65611000D01*
X134746000Y-63579000D01*
X135254000Y-63579000D01*
X135254000Y-65611000D01*
X136336544Y-65611000D01*
X136336544Y-65610999D01*
X136288822Y-65422548D01*
X136198419Y-65216451D01*
X136075321Y-65028037D01*
X135931652Y-64871970D01*
X135902415Y-64818366D01*
X135901812Y-64757311D01*
X135929987Y-64703140D01*
X135980321Y-64668577D01*
X136095962Y-64625445D01*
X136212904Y-64537904D01*
X136300445Y-64420962D01*
X136351494Y-64284093D01*
X136358000Y-64223589D01*
X136358000Y-63679000D01*
X138172000Y-63679000D01*
X138172000Y-63774521D01*
X138186584Y-63922603D01*
X138244223Y-64112609D01*
X138337823Y-64287723D01*
X138463787Y-64441212D01*
X138617276Y-64567176D01*
X138792390Y-64660776D01*
X138925999Y-64701307D01*
X138926000Y-64701307D01*
X138926000Y-63679000D01*
X139434000Y-63679000D01*
X139434000Y-64701307D01*
X139567609Y-64660776D01*
X139742723Y-64567176D01*
X139896212Y-64441212D01*
X140022176Y-64287723D01*
X140115776Y-64112609D01*
X140173415Y-63922603D01*
X140188000Y-63774521D01*
X140188000Y-63679000D01*
X146812000Y-63679000D01*
X146812000Y-63774521D01*
X146826584Y-63922603D01*
X146884223Y-64112609D01*
X146977823Y-64287723D01*
X147103787Y-64441212D01*
X147257276Y-64567176D01*
X147432390Y-64660776D01*
X147565999Y-64701307D01*
X147566000Y-64701307D01*
X147566000Y-63679000D01*
X148074000Y-63679000D01*
X148074000Y-64701307D01*
X148207609Y-64660776D01*
X148382723Y-64567176D01*
X148536212Y-64441212D01*
X148662176Y-64287723D01*
X148755776Y-64112609D01*
X148813415Y-63922603D01*
X148828000Y-63774521D01*
X148828000Y-63679000D01*
X148074000Y-63679000D01*
X147566000Y-63679000D01*
X146812000Y-63679000D01*
X140188000Y-63679000D01*
X139434000Y-63679000D01*
X138926000Y-63679000D01*
X138172000Y-63679000D01*
X136358000Y-63679000D01*
X136358000Y-63579000D01*
X150642000Y-63579000D01*
X150642000Y-64223589D01*
X150648505Y-64284093D01*
X150699554Y-64420962D01*
X150787095Y-64537904D01*
X150904037Y-64625445D01*
X151019678Y-64668577D01*
X151070012Y-64703141D01*
X151098187Y-64757311D01*
X151097585Y-64818366D01*
X151068348Y-64871970D01*
X150924675Y-65028040D01*
X150801580Y-65216451D01*
X150711177Y-65422548D01*
X150663455Y-65610999D01*
X150663456Y-65611000D01*
X151746000Y-65611000D01*
X151746000Y-63579000D01*
X152254000Y-63579000D01*
X152254000Y-65611000D01*
X153336544Y-65611000D01*
X153336544Y-65610999D01*
X153288822Y-65422548D01*
X153198419Y-65216451D01*
X153075321Y-65028037D01*
X152931652Y-64871970D01*
X152902415Y-64818366D01*
X152901812Y-64757311D01*
X152929987Y-64703140D01*
X152980321Y-64668577D01*
X153095962Y-64625445D01*
X153212904Y-64537904D01*
X153300445Y-64420962D01*
X153351494Y-64284093D01*
X153358000Y-64223589D01*
X153358000Y-63579000D01*
X152254000Y-63579000D01*
X151746000Y-63579000D01*
X150642000Y-63579000D01*
X136358000Y-63579000D01*
X135254000Y-63579000D01*
X134746000Y-63579000D01*
X133642000Y-63579000D01*
X132500500Y-63579000D01*
X132500500Y-63171000D01*
X138172000Y-63171000D01*
X138926000Y-63171000D01*
X138926000Y-62148693D01*
X138925999Y-62148692D01*
X139434000Y-62148692D01*
X139434000Y-63171000D01*
X140188000Y-63171000D01*
X146812000Y-63171000D01*
X147566000Y-63171000D01*
X147566000Y-62148693D01*
X147565999Y-62148692D01*
X148074000Y-62148692D01*
X148074000Y-63171000D01*
X148828000Y-63171000D01*
X148828000Y-63075479D01*
X148827559Y-63071000D01*
X150642000Y-63071000D01*
X151746000Y-63071000D01*
X151746000Y-61967000D01*
X152254000Y-61967000D01*
X152254000Y-63071000D01*
X153358000Y-63071000D01*
X153358000Y-62426411D01*
X153351494Y-62365906D01*
X153300445Y-62229037D01*
X153212904Y-62112095D01*
X153095962Y-62024554D01*
X152959093Y-61973505D01*
X152898589Y-61967000D01*
X152254000Y-61967000D01*
X151746000Y-61967000D01*
X151101411Y-61967000D01*
X151040906Y-61973505D01*
X150904037Y-62024554D01*
X150787095Y-62112095D01*
X150699554Y-62229037D01*
X150648505Y-62365906D01*
X150642000Y-62426411D01*
X150642000Y-63071000D01*
X148827559Y-63071000D01*
X148813415Y-62927396D01*
X148755776Y-62737390D01*
X148662176Y-62562276D01*
X148536212Y-62408787D01*
X148382723Y-62282823D01*
X148207609Y-62189223D01*
X148074000Y-62148692D01*
X147565999Y-62148692D01*
X147432390Y-62189223D01*
X147257276Y-62282823D01*
X147103787Y-62408787D01*
X146977823Y-62562276D01*
X146884223Y-62737390D01*
X146826584Y-62927396D01*
X146812000Y-63075479D01*
X146812000Y-63171000D01*
X140188000Y-63171000D01*
X140188000Y-63075479D01*
X140173415Y-62927396D01*
X140115776Y-62737390D01*
X140022176Y-62562276D01*
X139896212Y-62408787D01*
X139742723Y-62282823D01*
X139567609Y-62189223D01*
X139434000Y-62148692D01*
X138925999Y-62148692D01*
X138792390Y-62189223D01*
X138617276Y-62282823D01*
X138463787Y-62408787D01*
X138337823Y-62562276D01*
X138244223Y-62737390D01*
X138186584Y-62927396D01*
X138172000Y-63075479D01*
X138172000Y-63171000D01*
X132500500Y-63171000D01*
X132500500Y-63071000D01*
X133642000Y-63071000D01*
X134746000Y-63071000D01*
X134746000Y-61967000D01*
X135254000Y-61967000D01*
X135254000Y-63071000D01*
X136358000Y-63071000D01*
X136358000Y-62426411D01*
X136351494Y-62365906D01*
X136300445Y-62229037D01*
X136212904Y-62112095D01*
X136095962Y-62024554D01*
X135959093Y-61973505D01*
X135898589Y-61967000D01*
X135254000Y-61967000D01*
X134746000Y-61967000D01*
X134101411Y-61967000D01*
X134040906Y-61973505D01*
X133904037Y-62024554D01*
X133787095Y-62112095D01*
X133699554Y-62229037D01*
X133648505Y-62365906D01*
X133642000Y-62426411D01*
X133642000Y-63071000D01*
X132500500Y-63071000D01*
X132500500Y-63004120D01*
X132500770Y-62995882D01*
X132501089Y-62991005D01*
X132505983Y-62916339D01*
X132518700Y-62738534D01*
X132520795Y-62722979D01*
X132542958Y-62611556D01*
X132543355Y-62609648D01*
X132573767Y-62469847D01*
X132577554Y-62456202D01*
X132616246Y-62342220D01*
X132617402Y-62338974D01*
X132665037Y-62211260D01*
X132670058Y-62199629D01*
X132724440Y-62089355D01*
X132726814Y-62084784D01*
X132790824Y-61967558D01*
X132796595Y-61958025D01*
X132865618Y-61854725D01*
X132869451Y-61849309D01*
X132948805Y-61743305D01*
X132954883Y-61735809D01*
X133037110Y-61642047D01*
X133042703Y-61636076D01*
X133136076Y-61542703D01*
X133142047Y-61537110D01*
X133235809Y-61454883D01*
X133243305Y-61448805D01*
X133349309Y-61369451D01*
X133354725Y-61365618D01*
X133458025Y-61296595D01*
X133467558Y-61290824D01*
X133584784Y-61226814D01*
X133589355Y-61224440D01*
X133699629Y-61170058D01*
X133711260Y-61165037D01*
X133838974Y-61117402D01*
X133842220Y-61116246D01*
X133956202Y-61077554D01*
X133969847Y-61073767D01*
X134109648Y-61043355D01*
X134111556Y-61042958D01*
X134222979Y-61020795D01*
X134238534Y-61018700D01*
X134416339Y-61005983D01*
X134491005Y-61001089D01*
X134495882Y-61000770D01*
X134504120Y-61000500D01*
X152495880Y-61000500D01*
X152504119Y-61000770D01*
G37*
%TD.AperFunction*%
%TA.AperFunction,Conductor*%
G36*
X146340390Y-69773432D02*
G01*
X146385531Y-69813424D01*
X146406914Y-69869809D01*
X146407035Y-69870801D01*
X146407035Y-69870803D01*
X146407036Y-69870804D01*
X146468044Y-70031672D01*
X146468045Y-70031674D01*
X146468046Y-70031675D01*
X146565785Y-70173273D01*
X146565786Y-70173274D01*
X146565787Y-70173275D01*
X146616483Y-70218188D01*
X146650742Y-70267820D01*
X146658011Y-70327688D01*
X146636626Y-70384076D01*
X146591485Y-70424067D01*
X146532930Y-70438500D01*
X146233498Y-70438500D01*
X146210167Y-70440336D01*
X146196166Y-70441438D01*
X146036400Y-70487854D01*
X145893189Y-70572549D01*
X145823095Y-70642644D01*
X145772936Y-70673382D01*
X145714289Y-70677998D01*
X145659939Y-70655485D01*
X145621733Y-70610752D01*
X145608142Y-70554141D01*
X145608001Y-70554000D01*
X143292000Y-70554000D01*
X143292000Y-70685328D01*
X143273828Y-70750513D01*
X143224554Y-70796896D01*
X143194570Y-70812632D01*
X143065786Y-70926726D01*
X142968044Y-71068327D01*
X142907034Y-71229199D01*
X142886296Y-71400000D01*
X142907034Y-71570800D01*
X142933312Y-71640088D01*
X142941500Y-71684768D01*
X142941500Y-71763389D01*
X142939128Y-71784874D01*
X142941438Y-71858369D01*
X142941500Y-71862327D01*
X142941500Y-71891436D01*
X142942055Y-71895832D01*
X142942986Y-71907656D01*
X142944437Y-71953831D01*
X142950421Y-71974427D01*
X142954429Y-71993782D01*
X142957117Y-72015061D01*
X142957117Y-72015063D01*
X142957118Y-72015064D01*
X142971301Y-72050888D01*
X142974124Y-72058017D01*
X142977967Y-72069244D01*
X142990854Y-72113600D01*
X143001770Y-72132058D01*
X143010467Y-72149810D01*
X143018364Y-72169756D01*
X143045514Y-72207123D01*
X143052033Y-72217046D01*
X143075549Y-72256810D01*
X143090710Y-72271971D01*
X143103550Y-72287004D01*
X143116156Y-72304355D01*
X143129386Y-72315299D01*
X143145815Y-72328890D01*
X143179508Y-72372326D01*
X143191500Y-72425975D01*
X143191500Y-73275540D01*
X143198817Y-73347164D01*
X143202113Y-73379426D01*
X143257885Y-73547738D01*
X143341842Y-73683854D01*
X143360601Y-73749999D01*
X143341842Y-73816145D01*
X143257886Y-73952258D01*
X143202113Y-74120574D01*
X143191500Y-74224459D01*
X143191500Y-75575540D01*
X143202113Y-75679426D01*
X143257886Y-75847740D01*
X143290159Y-75900063D01*
X143308202Y-75952796D01*
X143301732Y-76008153D01*
X143272014Y-76055304D01*
X143225971Y-76101347D01*
X143132885Y-76252262D01*
X143077113Y-76420573D01*
X143066500Y-76524460D01*
X143066500Y-77875540D01*
X143077113Y-77979426D01*
X143104998Y-78063581D01*
X143132885Y-78147738D01*
X143196365Y-78250655D01*
X143215105Y-78314600D01*
X143198608Y-78379163D01*
X143151489Y-78426283D01*
X143086926Y-78442781D01*
X143022978Y-78424042D01*
X142997521Y-78408340D01*
X142829328Y-78352606D01*
X142725503Y-78342000D01*
X142572463Y-78342000D01*
X142508671Y-78324658D01*
X142462439Y-78277406D01*
X142446493Y-78213251D01*
X142465222Y-78149853D01*
X142466656Y-78147526D01*
X142522393Y-77979323D01*
X142533000Y-77875502D01*
X142533000Y-77454000D01*
X141184500Y-77454000D01*
X141121500Y-77437119D01*
X141075381Y-77391000D01*
X141058500Y-77328000D01*
X141058500Y-77072000D01*
X141075381Y-77009000D01*
X141121500Y-76962881D01*
X141184500Y-76946000D01*
X142532999Y-76946000D01*
X142532999Y-76524497D01*
X142522393Y-76420676D01*
X142466655Y-76252470D01*
X142373636Y-76101663D01*
X142327715Y-76055743D01*
X142297997Y-76008592D01*
X142291526Y-75953233D01*
X142309568Y-75900504D01*
X142342115Y-75847738D01*
X142397887Y-75679426D01*
X142408500Y-75575545D01*
X142408499Y-74224456D01*
X142397887Y-74120574D01*
X142342115Y-73952262D01*
X142257862Y-73815667D01*
X142239104Y-73749523D01*
X142257863Y-73683376D01*
X142341659Y-73547521D01*
X142397393Y-73379328D01*
X142408000Y-73275503D01*
X142408000Y-72854000D01*
X141122000Y-72854000D01*
X141059000Y-72837119D01*
X141012881Y-72791000D01*
X140996000Y-72728000D01*
X140996000Y-72472000D01*
X141012881Y-72409000D01*
X141059000Y-72362881D01*
X141122000Y-72346000D01*
X142408000Y-72346000D01*
X142408000Y-71924497D01*
X142397393Y-71820671D01*
X142341659Y-71652477D01*
X142299939Y-71584839D01*
X142281896Y-71532105D01*
X142288367Y-71476746D01*
X142318084Y-71429597D01*
X142349030Y-71398652D01*
X142442115Y-71247738D01*
X142497887Y-71079426D01*
X142508500Y-70975545D01*
X142508499Y-69904877D01*
X142524379Y-69843644D01*
X142568016Y-69797845D01*
X142628411Y-69779025D01*
X142690341Y-69791928D01*
X142738195Y-69833302D01*
X142764080Y-69870804D01*
X142765785Y-69873273D01*
X142894570Y-69987367D01*
X143046917Y-70067325D01*
X143213972Y-70108500D01*
X143386026Y-70108500D01*
X143386028Y-70108500D01*
X143553083Y-70067325D01*
X143566215Y-70060432D01*
X143624770Y-70046000D01*
X145608000Y-70046000D01*
X145608000Y-69884999D01*
X145624881Y-69821999D01*
X145671000Y-69775880D01*
X145734000Y-69758999D01*
X146281834Y-69758999D01*
X146340390Y-69773432D01*
G37*
%TD.AperFunction*%
%TD*%
M02*
