M48
; DRILL file {KiCad 7.0.1} date Mon May 22 21:01:38 2023
; FORMAT={-:-/ absolute / inch / decimal}
; #@! TF.CreationDate,2023-05-22T21:01:38-04:00
; #@! TF.GenerationSoftware,Kicad,Pcbnew,7.0.1
; #@! TF.FileFunction,Plated,1,2,PTH
FMAT,2
INCH
; #@! TA.AperFunction,Plated,PTH,ViaDrill
T1C0.0079
; #@! TA.AperFunction,Plated,PTH,ViaDrill
T2C0.0157
; #@! TA.AperFunction,Plated,PTH,ComponentDrill
T3C0.0236
; #@! TA.AperFunction,Plated,PTH,ComponentDrill
T4C0.0394
%
G90
G05
T1
X5.6198Y-2.7235
X5.6398Y-2.815
X5.6437Y-2.7343
X5.7874Y-3.2185
X5.7874Y-3.5827
X5.798Y-3.1974
X5.8228Y-3.4961
X5.8703Y-3.6262
X5.8739Y-2.8562
X5.8898Y-2.8386
X5.8957Y-3.5335
X5.9252Y-3.0709
X5.9252Y-3.1299
X5.9941Y-3.2185
X6.0039Y-3.5335
T2
X5.4173Y-3.0315
T4
X5.315Y-2.4931
X5.315Y-2.5931
X5.3957Y-3.7008
X5.4957Y-3.7008
X5.5957Y-3.7008
X5.6957Y-3.7008
X5.7957Y-3.7008
X5.8957Y-3.7008
X5.9843Y-2.4931
X5.9843Y-2.5931
T3
G00X5.4795Y-2.5089
M15
G01X5.4795Y-2.4852
M16
G05
G00X5.4795Y-2.6833
M15
G01X5.4795Y-2.64
M16
G05
G00X5.8197Y-2.5089
M15
G01X5.8197Y-2.4852
M16
G05
G00X5.8197Y-2.6833
M15
G01X5.8197Y-2.64
M16
G05
T0
M30
