%TF.GenerationSoftware,KiCad,Pcbnew,7.0.1*%
%TF.CreationDate,2023-05-22T21:01:38-04:00*%
%TF.ProjectId,PCB_USB_TTL,5043425f-5553-4425-9f54-544c2e6b6963,rev?*%
%TF.SameCoordinates,Original*%
%TF.FileFunction,Soldermask,Top*%
%TF.FilePolarity,Negative*%
%FSLAX46Y46*%
G04 Gerber Fmt 4.6, Leading zero omitted, Abs format (unit mm)*
G04 Created by KiCad (PCBNEW 7.0.1) date 2023-05-22 21:01:38*
%MOMM*%
%LPD*%
G01*
G04 APERTURE LIST*
G04 Aperture macros list*
%AMRoundRect*
0 Rectangle with rounded corners*
0 $1 Rounding radius*
0 $2 $3 $4 $5 $6 $7 $8 $9 X,Y pos of 4 corners*
0 Add a 4 corners polygon primitive as box body*
4,1,4,$2,$3,$4,$5,$6,$7,$8,$9,$2,$3,0*
0 Add four circle primitives for the rounded corners*
1,1,$1+$1,$2,$3*
1,1,$1+$1,$4,$5*
1,1,$1+$1,$6,$7*
1,1,$1+$1,$8,$9*
0 Add four rect primitives between the rounded corners*
20,1,$1+$1,$2,$3,$4,$5,0*
20,1,$1+$1,$4,$5,$6,$7,0*
20,1,$1+$1,$6,$7,$8,$9,0*
20,1,$1+$1,$8,$9,$2,$3,0*%
G04 Aperture macros list end*
%ADD10RoundRect,0.150000X0.825000X0.150000X-0.825000X0.150000X-0.825000X-0.150000X0.825000X-0.150000X0*%
%ADD11RoundRect,0.250000X-0.625000X0.400000X-0.625000X-0.400000X0.625000X-0.400000X0.625000X0.400000X0*%
%ADD12RoundRect,0.250000X0.650000X-0.412500X0.650000X0.412500X-0.650000X0.412500X-0.650000X-0.412500X0*%
%ADD13RoundRect,0.250001X-0.462499X-0.624999X0.462499X-0.624999X0.462499X0.624999X-0.462499X0.624999X0*%
%ADD14R,1.500000X2.000000*%
%ADD15R,3.800000X2.000000*%
%ADD16RoundRect,0.250000X0.625000X-0.400000X0.625000X0.400000X-0.625000X0.400000X-0.625000X-0.400000X0*%
%ADD17RoundRect,0.250000X0.400000X0.625000X-0.400000X0.625000X-0.400000X-0.625000X0.400000X-0.625000X0*%
%ADD18RoundRect,0.250000X-0.412500X-0.650000X0.412500X-0.650000X0.412500X0.650000X-0.412500X0.650000X0*%
%ADD19RoundRect,0.250000X-0.400000X-0.625000X0.400000X-0.625000X0.400000X0.625000X-0.400000X0.625000X0*%
%ADD20R,0.400000X0.650000*%
%ADD21C,0.650000*%
%ADD22R,0.300000X1.150000*%
%ADD23O,1.000000X2.100000*%
%ADD24O,1.000000X1.600000*%
%ADD25R,0.450000X2.000000*%
%ADD26R,1.700000X1.700000*%
%ADD27O,1.700000X1.700000*%
G04 APERTURE END LIST*
D10*
%TO.C,U3*%
X152350000Y-80140000D03*
X152350000Y-78870000D03*
X152350000Y-77600000D03*
X152350000Y-76330000D03*
X152350000Y-75060000D03*
X152350000Y-73790000D03*
X152350000Y-72520000D03*
X152350000Y-71250000D03*
X147400000Y-71250000D03*
X147400000Y-72520000D03*
X147400000Y-73790000D03*
X147400000Y-75060000D03*
X147400000Y-76330000D03*
X147400000Y-77600000D03*
X147400000Y-78870000D03*
X147400000Y-80140000D03*
%TD*%
D11*
%TO.C,R4*%
X145800000Y-83300000D03*
X145800000Y-86400000D03*
%TD*%
D12*
%TO.C,C1*%
X134250000Y-81912500D03*
X134250000Y-78787500D03*
%TD*%
D11*
%TO.C,R5*%
X143300000Y-83300000D03*
X143300000Y-86400000D03*
%TD*%
D13*
%TO.C,D1*%
X141712500Y-77200000D03*
X144687500Y-77200000D03*
%TD*%
D14*
%TO.C,U1*%
X138950000Y-84350000D03*
X136650000Y-84350000D03*
X134350000Y-84350000D03*
D15*
X136650000Y-90650000D03*
%TD*%
D12*
%TO.C,C3*%
X137700000Y-81912500D03*
X137700000Y-78787500D03*
%TD*%
D11*
%TO.C,R6*%
X153200000Y-88100000D03*
X153200000Y-91200000D03*
%TD*%
D16*
%TO.C,R7*%
X151000000Y-91200000D03*
X151000000Y-88100000D03*
%TD*%
D17*
%TO.C,R9*%
X144750000Y-70300000D03*
X141650000Y-70300000D03*
%TD*%
D18*
%TO.C,C2*%
X149637500Y-69200000D03*
X152762500Y-69200000D03*
%TD*%
D19*
%TO.C,R3*%
X141650000Y-74900000D03*
X144750000Y-74900000D03*
%TD*%
D17*
%TO.C,R8*%
X144750000Y-72600000D03*
X141650000Y-72600000D03*
%TD*%
D20*
%TO.C,Q3*%
X150250000Y-82800000D03*
X149600000Y-82800000D03*
X148950000Y-82800000D03*
X148950000Y-84700000D03*
X149600000Y-84700000D03*
X150250000Y-84700000D03*
%TD*%
D21*
%TO.C,P1*%
X146390000Y-67105000D03*
X140610000Y-67105000D03*
D22*
X146850000Y-68170000D03*
X146050000Y-68170000D03*
X144750000Y-68170000D03*
X143750000Y-68170000D03*
X143250000Y-68170000D03*
X142250000Y-68170000D03*
X140950000Y-68170000D03*
X140150000Y-68170000D03*
X140450000Y-68170000D03*
X141250000Y-68170000D03*
X141750000Y-68170000D03*
X142750000Y-68170000D03*
X144250000Y-68170000D03*
X145250000Y-68170000D03*
X145750000Y-68170000D03*
X146550000Y-68170000D03*
D23*
X147820000Y-67605000D03*
D24*
X147820000Y-63425000D03*
D23*
X139180000Y-67605000D03*
D24*
X139180000Y-63425000D03*
%TD*%
D13*
%TO.C,D3*%
X142112500Y-91200000D03*
X145087500Y-91200000D03*
%TD*%
%TO.C,D2*%
X143712500Y-88800000D03*
X146687500Y-88800000D03*
%TD*%
D25*
%TO.C,SW1*%
X134500000Y-70650000D03*
X136500000Y-70650000D03*
X138500000Y-70650000D03*
X134468000Y-76650000D03*
X136468000Y-76650000D03*
X138468000Y-76650000D03*
%TD*%
D26*
%TO.C,J3*%
X135000000Y-63325000D03*
D27*
X135000000Y-65865000D03*
%TD*%
D26*
%TO.C,J2*%
X149750000Y-94000000D03*
D27*
X147210000Y-94000000D03*
X144670000Y-94000000D03*
X142130000Y-94000000D03*
X139590000Y-94000000D03*
X137050000Y-94000000D03*
%TD*%
D26*
%TO.C,J4*%
X152000000Y-63325000D03*
D27*
X152000000Y-65865000D03*
%TD*%
M02*
