%TF.GenerationSoftware,KiCad,Pcbnew,7.0.1*%
%TF.CreationDate,2023-04-05T11:46:08-04:00*%
%TF.ProjectId,PCB_USB_TTL,5043425f-5553-4425-9f54-544c2e6b6963,rev?*%
%TF.SameCoordinates,Original*%
%TF.FileFunction,Copper,L2,Bot*%
%TF.FilePolarity,Positive*%
%FSLAX46Y46*%
G04 Gerber Fmt 4.6, Leading zero omitted, Abs format (unit mm)*
G04 Created by KiCad (PCBNEW 7.0.1) date 2023-04-05 11:46:08*
%MOMM*%
%LPD*%
G01*
G04 APERTURE LIST*
%TA.AperFunction,ComponentPad*%
%ADD10R,1.700000X1.700000*%
%TD*%
%TA.AperFunction,ComponentPad*%
%ADD11O,1.700000X1.700000*%
%TD*%
%TA.AperFunction,ComponentPad*%
%ADD12O,1.000000X2.100000*%
%TD*%
%TA.AperFunction,ComponentPad*%
%ADD13O,1.000000X1.600000*%
%TD*%
%TA.AperFunction,ViaPad*%
%ADD14C,0.600000*%
%TD*%
%TA.AperFunction,ViaPad*%
%ADD15C,0.400000*%
%TD*%
%TA.AperFunction,Conductor*%
%ADD16C,0.300000*%
%TD*%
G04 APERTURE END LIST*
D10*
%TO.P,J1,1,Pin_1*%
%TO.N,+3.3V*%
X135800000Y-89525000D03*
D11*
%TO.P,J1,2,Pin_2*%
%TO.N,VCC*%
X135800000Y-86985000D03*
%TO.P,J1,3,Pin_3*%
%TO.N,+5V*%
X135800000Y-84445000D03*
%TD*%
D12*
%TO.P,P1,S1,SHIELD*%
%TO.N,GND*%
X147820000Y-67605000D03*
D13*
X147820000Y-63425000D03*
D12*
X139180000Y-67605000D03*
D13*
X139180000Y-63425000D03*
%TD*%
D10*
%TO.P,J3,1,Pin_1*%
%TO.N,GND*%
X135000000Y-63325000D03*
D11*
%TO.P,J3,2,Pin_2*%
X135000000Y-65865000D03*
%TD*%
D10*
%TO.P,J2,1,Pin_1*%
%TO.N,/ESP_IO0*%
X149750000Y-94000000D03*
D11*
%TO.P,J2,2,Pin_2*%
%TO.N,/ESP_EN*%
X147210000Y-94000000D03*
%TO.P,J2,3,Pin_3*%
%TO.N,/TX*%
X144670000Y-94000000D03*
%TO.P,J2,4,Pin_4*%
%TO.N,/RX*%
X142130000Y-94000000D03*
%TO.P,J2,5,Pin_5*%
%TO.N,VCC*%
X139590000Y-94000000D03*
%TO.P,J2,6,Pin_6*%
%TO.N,GND*%
X137050000Y-94000000D03*
%TD*%
D10*
%TO.P,J4,1,Pin_1*%
%TO.N,GND*%
X152000000Y-63325000D03*
D11*
%TO.P,J4,2,Pin_2*%
X152000000Y-65865000D03*
%TD*%
D14*
%TO.N,+5V*%
X146800000Y-81400000D03*
X140600000Y-81350500D03*
%TO.N,GND*%
X150475000Y-79750000D03*
X140200000Y-76100000D03*
%TO.N,/ESP_IO0*%
X152200000Y-87000000D03*
%TO.N,/ESP_EN*%
X146600000Y-87000000D03*
%TO.N,/TX*%
X145000000Y-89000000D03*
D15*
%TO.N,Net-(P1-PadA5)*%
X143600000Y-71400000D03*
X144700000Y-67100000D03*
D14*
%TO.N,/D+*%
X150471017Y-71352484D03*
X150449500Y-73673266D03*
D15*
%TO.N,/D-*%
X147100000Y-69700000D03*
X143300000Y-69400000D03*
D14*
%TO.N,Net-(Q2-Pad1)*%
X144600000Y-82200000D03*
X149800000Y-82200000D03*
%TO.N,Net-(R4-Pad1)*%
X144800000Y-80800000D03*
X149600000Y-78750000D03*
%TO.N,Net-(R5-Pad1)*%
X143721402Y-80311989D03*
X149675000Y-77750000D03*
%TD*%
D16*
%TO.N,+5V*%
X140699000Y-81449500D02*
X140600000Y-81350500D01*
X146800000Y-81400000D02*
X146750500Y-81449500D01*
X146750500Y-81449500D02*
X140699000Y-81449500D01*
%TO.N,GND*%
X150475000Y-75475000D02*
X150475000Y-79750000D01*
X147820000Y-67605000D02*
X147820000Y-72820000D01*
X147820000Y-72820000D02*
X150475000Y-75475000D01*
X139180000Y-67605000D02*
X139180000Y-75080000D01*
X139180000Y-75080000D02*
X140200000Y-76100000D01*
%TO.N,VCC*%
X139590000Y-90590000D02*
X139590000Y-94000000D01*
X135985000Y-86985000D02*
X139590000Y-90590000D01*
X135800000Y-86985000D02*
X135985000Y-86985000D01*
%TO.N,/ESP_IO0*%
X152200000Y-87000000D02*
X152200000Y-93000000D01*
X151200000Y-94000000D02*
X149750000Y-94000000D01*
X152200000Y-93000000D02*
X151200000Y-94000000D01*
%TO.N,/ESP_EN*%
X147210000Y-87610000D02*
X147210000Y-94000000D01*
X146600000Y-87000000D02*
X147210000Y-87610000D01*
%TO.N,/TX*%
X145000000Y-89000000D02*
X145000000Y-93670000D01*
X145000000Y-93670000D02*
X144670000Y-94000000D01*
%TO.N,Net-(P1-PadA5)*%
X144700000Y-67100000D02*
X142700000Y-69100000D01*
X142700000Y-69100000D02*
X142700000Y-70500000D01*
X142700000Y-70500000D02*
X143600000Y-71400000D01*
%TO.N,/D+*%
X150449500Y-71374001D02*
X150471017Y-71352484D01*
X150449500Y-73673266D02*
X150449500Y-71374001D01*
%TO.N,/D-*%
X143300000Y-69400000D02*
X143400000Y-69500000D01*
X146900000Y-69500000D02*
X147100000Y-69700000D01*
X143400000Y-69500000D02*
X146900000Y-69500000D01*
%TO.N,Net-(Q2-Pad1)*%
X144600000Y-82200000D02*
X149800000Y-82200000D01*
%TO.N,Net-(R4-Pad1)*%
X149466323Y-78616323D02*
X149600000Y-78750000D01*
X144800000Y-80800000D02*
X146983677Y-78616323D01*
X146983677Y-78616323D02*
X149466323Y-78616323D01*
%TO.N,Net-(R5-Pad1)*%
X146283391Y-77750000D02*
X149675000Y-77750000D01*
X143721402Y-80311989D02*
X146283391Y-77750000D01*
%TD*%
M02*
