M48
; DRILL file {KiCad 7.0.1} date Wed Apr  5 11:46:08 2023
; FORMAT={-:-/ absolute / inch / decimal}
; #@! TF.CreationDate,2023-04-05T11:46:08-04:00
; #@! TF.GenerationSoftware,Kicad,Pcbnew,7.0.1
; #@! TF.FileFunction,Plated,1,2,PTH
FMAT,2
INCH
; #@! TA.AperFunction,Plated,PTH,ViaDrill
T1C0.0079
; #@! TA.AperFunction,Plated,PTH,ViaDrill
T2C0.0118
; #@! TA.AperFunction,Plated,PTH,ComponentDrill
T3C0.0236
; #@! TA.AperFunction,Plated,PTH,ComponentDrill
T4C0.0394
%
G90
G05
T1
X5.6417Y-2.7323
X5.6535Y-2.811
X5.6969Y-2.6417
X5.7913Y-2.7441
T2
X5.5197Y-2.9961
X5.5354Y-3.2028
X5.6583Y-3.1619
X5.6929Y-3.2362
X5.7008Y-3.1811
X5.7087Y-3.5039
X5.7717Y-3.4252
X5.7795Y-3.2047
X5.8898Y-3.1004
X5.8927Y-3.061
X5.8976Y-3.2362
X5.9232Y-2.9005
X5.9241Y-2.8092
X5.9242Y-3.1398
X5.9921Y-3.4252
T4
X5.315Y-2.4931
X5.315Y-2.5931
X5.3465Y-3.3246
X5.3465Y-3.4246
X5.3465Y-3.5246
X5.3957Y-3.7008
X5.4957Y-3.7008
X5.5957Y-3.7008
X5.6957Y-3.7008
X5.7957Y-3.7008
X5.8957Y-3.7008
X5.9843Y-2.4931
X5.9843Y-2.5931
T3
G00X5.4795Y-2.5089
M15
G01X5.4795Y-2.4852
M16
G05
G00X5.4795Y-2.6833
M15
G01X5.4795Y-2.64
M16
G05
G00X5.8197Y-2.5089
M15
G01X5.8197Y-2.4852
M16
G05
G00X5.8197Y-2.6833
M15
G01X5.8197Y-2.64
M16
G05
T0
M30
