%TF.GenerationSoftware,KiCad,Pcbnew,7.0.1*%
%TF.CreationDate,2023-04-05T11:46:08-04:00*%
%TF.ProjectId,PCB_USB_TTL,5043425f-5553-4425-9f54-544c2e6b6963,rev?*%
%TF.SameCoordinates,Original*%
%TF.FileFunction,Legend,Top*%
%TF.FilePolarity,Positive*%
%FSLAX46Y46*%
G04 Gerber Fmt 4.6, Leading zero omitted, Abs format (unit mm)*
G04 Created by KiCad (PCBNEW 7.0.1) date 2023-04-05 11:46:08*
%MOMM*%
%LPD*%
G01*
G04 APERTURE LIST*
G04 Aperture macros list*
%AMRoundRect*
0 Rectangle with rounded corners*
0 $1 Rounding radius*
0 $2 $3 $4 $5 $6 $7 $8 $9 X,Y pos of 4 corners*
0 Add a 4 corners polygon primitive as box body*
4,1,4,$2,$3,$4,$5,$6,$7,$8,$9,$2,$3,0*
0 Add four circle primitives for the rounded corners*
1,1,$1+$1,$2,$3*
1,1,$1+$1,$4,$5*
1,1,$1+$1,$6,$7*
1,1,$1+$1,$8,$9*
0 Add four rect primitives between the rounded corners*
20,1,$1+$1,$2,$3,$4,$5,0*
20,1,$1+$1,$4,$5,$6,$7,0*
20,1,$1+$1,$6,$7,$8,$9,0*
20,1,$1+$1,$8,$9,$2,$3,0*%
G04 Aperture macros list end*
%ADD10C,0.150000*%
%ADD11C,0.120000*%
%ADD12RoundRect,0.150000X-0.150000X0.587500X-0.150000X-0.587500X0.150000X-0.587500X0.150000X0.587500X0*%
%ADD13RoundRect,0.250000X-0.625000X0.400000X-0.625000X-0.400000X0.625000X-0.400000X0.625000X0.400000X0*%
%ADD14RoundRect,0.250000X-0.412500X-0.650000X0.412500X-0.650000X0.412500X0.650000X-0.412500X0.650000X0*%
%ADD15RoundRect,0.250001X-0.462499X-0.624999X0.462499X-0.624999X0.462499X0.624999X-0.462499X0.624999X0*%
%ADD16R,1.500000X2.000000*%
%ADD17R,3.800000X2.000000*%
%ADD18RoundRect,0.250000X0.412500X0.650000X-0.412500X0.650000X-0.412500X-0.650000X0.412500X-0.650000X0*%
%ADD19R,1.700000X1.700000*%
%ADD20O,1.700000X1.700000*%
%ADD21RoundRect,0.250000X0.625000X-0.400000X0.625000X0.400000X-0.625000X0.400000X-0.625000X-0.400000X0*%
%ADD22RoundRect,0.250000X0.400000X0.625000X-0.400000X0.625000X-0.400000X-0.625000X0.400000X-0.625000X0*%
%ADD23RoundRect,0.250000X-0.400000X-0.625000X0.400000X-0.625000X0.400000X0.625000X-0.400000X0.625000X0*%
%ADD24RoundRect,0.150000X0.825000X0.150000X-0.825000X0.150000X-0.825000X-0.150000X0.825000X-0.150000X0*%
%ADD25C,0.650000*%
%ADD26R,0.300000X1.150000*%
%ADD27O,1.000000X2.100000*%
%ADD28O,1.000000X1.600000*%
G04 APERTURE END LIST*
D10*
X132962619Y-90838094D02*
X132962619Y-90219047D01*
X132962619Y-90219047D02*
X133343571Y-90552380D01*
X133343571Y-90552380D02*
X133343571Y-90409523D01*
X133343571Y-90409523D02*
X133391190Y-90314285D01*
X133391190Y-90314285D02*
X133438809Y-90266666D01*
X133438809Y-90266666D02*
X133534047Y-90219047D01*
X133534047Y-90219047D02*
X133772142Y-90219047D01*
X133772142Y-90219047D02*
X133867380Y-90266666D01*
X133867380Y-90266666D02*
X133915000Y-90314285D01*
X133915000Y-90314285D02*
X133962619Y-90409523D01*
X133962619Y-90409523D02*
X133962619Y-90695237D01*
X133962619Y-90695237D02*
X133915000Y-90790475D01*
X133915000Y-90790475D02*
X133867380Y-90838094D01*
X132962619Y-89933332D02*
X133962619Y-89599999D01*
X133962619Y-89599999D02*
X132962619Y-89266666D01*
X132962619Y-89028570D02*
X132962619Y-88409523D01*
X132962619Y-88409523D02*
X133343571Y-88742856D01*
X133343571Y-88742856D02*
X133343571Y-88599999D01*
X133343571Y-88599999D02*
X133391190Y-88504761D01*
X133391190Y-88504761D02*
X133438809Y-88457142D01*
X133438809Y-88457142D02*
X133534047Y-88409523D01*
X133534047Y-88409523D02*
X133772142Y-88409523D01*
X133772142Y-88409523D02*
X133867380Y-88457142D01*
X133867380Y-88457142D02*
X133915000Y-88504761D01*
X133915000Y-88504761D02*
X133962619Y-88599999D01*
X133962619Y-88599999D02*
X133962619Y-88885713D01*
X133962619Y-88885713D02*
X133915000Y-88980951D01*
X133915000Y-88980951D02*
X133867380Y-89028570D01*
X132962619Y-84590476D02*
X132962619Y-85066666D01*
X132962619Y-85066666D02*
X133438809Y-85114285D01*
X133438809Y-85114285D02*
X133391190Y-85066666D01*
X133391190Y-85066666D02*
X133343571Y-84971428D01*
X133343571Y-84971428D02*
X133343571Y-84733333D01*
X133343571Y-84733333D02*
X133391190Y-84638095D01*
X133391190Y-84638095D02*
X133438809Y-84590476D01*
X133438809Y-84590476D02*
X133534047Y-84542857D01*
X133534047Y-84542857D02*
X133772142Y-84542857D01*
X133772142Y-84542857D02*
X133867380Y-84590476D01*
X133867380Y-84590476D02*
X133915000Y-84638095D01*
X133915000Y-84638095D02*
X133962619Y-84733333D01*
X133962619Y-84733333D02*
X133962619Y-84971428D01*
X133962619Y-84971428D02*
X133915000Y-85066666D01*
X133915000Y-85066666D02*
X133867380Y-85114285D01*
X132962619Y-84257142D02*
X133962619Y-83923809D01*
X133962619Y-83923809D02*
X132962619Y-83590476D01*
%TO.C,Q1*%
X146504761Y-82507857D02*
X146409523Y-82460238D01*
X146409523Y-82460238D02*
X146314285Y-82365000D01*
X146314285Y-82365000D02*
X146171428Y-82222142D01*
X146171428Y-82222142D02*
X146076190Y-82174523D01*
X146076190Y-82174523D02*
X145980952Y-82174523D01*
X146028571Y-82412619D02*
X145933333Y-82365000D01*
X145933333Y-82365000D02*
X145838095Y-82269761D01*
X145838095Y-82269761D02*
X145790476Y-82079285D01*
X145790476Y-82079285D02*
X145790476Y-81745952D01*
X145790476Y-81745952D02*
X145838095Y-81555476D01*
X145838095Y-81555476D02*
X145933333Y-81460238D01*
X145933333Y-81460238D02*
X146028571Y-81412619D01*
X146028571Y-81412619D02*
X146219047Y-81412619D01*
X146219047Y-81412619D02*
X146314285Y-81460238D01*
X146314285Y-81460238D02*
X146409523Y-81555476D01*
X146409523Y-81555476D02*
X146457142Y-81745952D01*
X146457142Y-81745952D02*
X146457142Y-82079285D01*
X146457142Y-82079285D02*
X146409523Y-82269761D01*
X146409523Y-82269761D02*
X146314285Y-82365000D01*
X146314285Y-82365000D02*
X146219047Y-82412619D01*
X146219047Y-82412619D02*
X146028571Y-82412619D01*
X147409523Y-82412619D02*
X146838095Y-82412619D01*
X147123809Y-82412619D02*
X147123809Y-81412619D01*
X147123809Y-81412619D02*
X147028571Y-81555476D01*
X147028571Y-81555476D02*
X146933333Y-81650714D01*
X146933333Y-81650714D02*
X146838095Y-81698333D01*
%TO.C,R1*%
X149385333Y-82414619D02*
X149052000Y-81938428D01*
X148813905Y-82414619D02*
X148813905Y-81414619D01*
X148813905Y-81414619D02*
X149194857Y-81414619D01*
X149194857Y-81414619D02*
X149290095Y-81462238D01*
X149290095Y-81462238D02*
X149337714Y-81509857D01*
X149337714Y-81509857D02*
X149385333Y-81605095D01*
X149385333Y-81605095D02*
X149385333Y-81747952D01*
X149385333Y-81747952D02*
X149337714Y-81843190D01*
X149337714Y-81843190D02*
X149290095Y-81890809D01*
X149290095Y-81890809D02*
X149194857Y-81938428D01*
X149194857Y-81938428D02*
X148813905Y-81938428D01*
X150337714Y-82414619D02*
X149766286Y-82414619D01*
X150052000Y-82414619D02*
X150052000Y-81414619D01*
X150052000Y-81414619D02*
X149956762Y-81557476D01*
X149956762Y-81557476D02*
X149861524Y-81652714D01*
X149861524Y-81652714D02*
X149766286Y-81700333D01*
%TO.C,R4*%
X138633333Y-82614619D02*
X138300000Y-82138428D01*
X138061905Y-82614619D02*
X138061905Y-81614619D01*
X138061905Y-81614619D02*
X138442857Y-81614619D01*
X138442857Y-81614619D02*
X138538095Y-81662238D01*
X138538095Y-81662238D02*
X138585714Y-81709857D01*
X138585714Y-81709857D02*
X138633333Y-81805095D01*
X138633333Y-81805095D02*
X138633333Y-81947952D01*
X138633333Y-81947952D02*
X138585714Y-82043190D01*
X138585714Y-82043190D02*
X138538095Y-82090809D01*
X138538095Y-82090809D02*
X138442857Y-82138428D01*
X138442857Y-82138428D02*
X138061905Y-82138428D01*
X139490476Y-81947952D02*
X139490476Y-82614619D01*
X139252381Y-81567000D02*
X139014286Y-82281285D01*
X139014286Y-82281285D02*
X139633333Y-82281285D01*
%TO.C,C1*%
X144067380Y-79916666D02*
X144115000Y-79964285D01*
X144115000Y-79964285D02*
X144162619Y-80107142D01*
X144162619Y-80107142D02*
X144162619Y-80202380D01*
X144162619Y-80202380D02*
X144115000Y-80345237D01*
X144115000Y-80345237D02*
X144019761Y-80440475D01*
X144019761Y-80440475D02*
X143924523Y-80488094D01*
X143924523Y-80488094D02*
X143734047Y-80535713D01*
X143734047Y-80535713D02*
X143591190Y-80535713D01*
X143591190Y-80535713D02*
X143400714Y-80488094D01*
X143400714Y-80488094D02*
X143305476Y-80440475D01*
X143305476Y-80440475D02*
X143210238Y-80345237D01*
X143210238Y-80345237D02*
X143162619Y-80202380D01*
X143162619Y-80202380D02*
X143162619Y-80107142D01*
X143162619Y-80107142D02*
X143210238Y-79964285D01*
X143210238Y-79964285D02*
X143257857Y-79916666D01*
X144162619Y-78964285D02*
X144162619Y-79535713D01*
X144162619Y-79249999D02*
X143162619Y-79249999D01*
X143162619Y-79249999D02*
X143305476Y-79345237D01*
X143305476Y-79345237D02*
X143400714Y-79440475D01*
X143400714Y-79440475D02*
X143448333Y-79535713D01*
%TO.C,R5*%
X141173333Y-82614619D02*
X140840000Y-82138428D01*
X140601905Y-82614619D02*
X140601905Y-81614619D01*
X140601905Y-81614619D02*
X140982857Y-81614619D01*
X140982857Y-81614619D02*
X141078095Y-81662238D01*
X141078095Y-81662238D02*
X141125714Y-81709857D01*
X141125714Y-81709857D02*
X141173333Y-81805095D01*
X141173333Y-81805095D02*
X141173333Y-81947952D01*
X141173333Y-81947952D02*
X141125714Y-82043190D01*
X141125714Y-82043190D02*
X141078095Y-82090809D01*
X141078095Y-82090809D02*
X140982857Y-82138428D01*
X140982857Y-82138428D02*
X140601905Y-82138428D01*
X142078095Y-81614619D02*
X141601905Y-81614619D01*
X141601905Y-81614619D02*
X141554286Y-82090809D01*
X141554286Y-82090809D02*
X141601905Y-82043190D01*
X141601905Y-82043190D02*
X141697143Y-81995571D01*
X141697143Y-81995571D02*
X141935238Y-81995571D01*
X141935238Y-81995571D02*
X142030476Y-82043190D01*
X142030476Y-82043190D02*
X142078095Y-82090809D01*
X142078095Y-82090809D02*
X142125714Y-82186047D01*
X142125714Y-82186047D02*
X142125714Y-82424142D01*
X142125714Y-82424142D02*
X142078095Y-82519380D01*
X142078095Y-82519380D02*
X142030476Y-82567000D01*
X142030476Y-82567000D02*
X141935238Y-82614619D01*
X141935238Y-82614619D02*
X141697143Y-82614619D01*
X141697143Y-82614619D02*
X141601905Y-82567000D01*
X141601905Y-82567000D02*
X141554286Y-82519380D01*
%TO.C,D1*%
X142061905Y-77662619D02*
X142061905Y-76662619D01*
X142061905Y-76662619D02*
X142300000Y-76662619D01*
X142300000Y-76662619D02*
X142442857Y-76710238D01*
X142442857Y-76710238D02*
X142538095Y-76805476D01*
X142538095Y-76805476D02*
X142585714Y-76900714D01*
X142585714Y-76900714D02*
X142633333Y-77091190D01*
X142633333Y-77091190D02*
X142633333Y-77234047D01*
X142633333Y-77234047D02*
X142585714Y-77424523D01*
X142585714Y-77424523D02*
X142538095Y-77519761D01*
X142538095Y-77519761D02*
X142442857Y-77615000D01*
X142442857Y-77615000D02*
X142300000Y-77662619D01*
X142300000Y-77662619D02*
X142061905Y-77662619D01*
X143585714Y-77662619D02*
X143014286Y-77662619D01*
X143300000Y-77662619D02*
X143300000Y-76662619D01*
X143300000Y-76662619D02*
X143204762Y-76805476D01*
X143204762Y-76805476D02*
X143109524Y-76900714D01*
X143109524Y-76900714D02*
X143014286Y-76948333D01*
%TO.C,U1*%
X138488095Y-70212619D02*
X138488095Y-71022142D01*
X138488095Y-71022142D02*
X138535714Y-71117380D01*
X138535714Y-71117380D02*
X138583333Y-71165000D01*
X138583333Y-71165000D02*
X138678571Y-71212619D01*
X138678571Y-71212619D02*
X138869047Y-71212619D01*
X138869047Y-71212619D02*
X138964285Y-71165000D01*
X138964285Y-71165000D02*
X139011904Y-71117380D01*
X139011904Y-71117380D02*
X139059523Y-71022142D01*
X139059523Y-71022142D02*
X139059523Y-70212619D01*
X140059523Y-71212619D02*
X139488095Y-71212619D01*
X139773809Y-71212619D02*
X139773809Y-70212619D01*
X139773809Y-70212619D02*
X139678571Y-70355476D01*
X139678571Y-70355476D02*
X139583333Y-70450714D01*
X139583333Y-70450714D02*
X139488095Y-70498333D01*
%TO.C,C3*%
X135469333Y-82155380D02*
X135421714Y-82203000D01*
X135421714Y-82203000D02*
X135278857Y-82250619D01*
X135278857Y-82250619D02*
X135183619Y-82250619D01*
X135183619Y-82250619D02*
X135040762Y-82203000D01*
X135040762Y-82203000D02*
X134945524Y-82107761D01*
X134945524Y-82107761D02*
X134897905Y-82012523D01*
X134897905Y-82012523D02*
X134850286Y-81822047D01*
X134850286Y-81822047D02*
X134850286Y-81679190D01*
X134850286Y-81679190D02*
X134897905Y-81488714D01*
X134897905Y-81488714D02*
X134945524Y-81393476D01*
X134945524Y-81393476D02*
X135040762Y-81298238D01*
X135040762Y-81298238D02*
X135183619Y-81250619D01*
X135183619Y-81250619D02*
X135278857Y-81250619D01*
X135278857Y-81250619D02*
X135421714Y-81298238D01*
X135421714Y-81298238D02*
X135469333Y-81345857D01*
X135802667Y-81250619D02*
X136421714Y-81250619D01*
X136421714Y-81250619D02*
X136088381Y-81631571D01*
X136088381Y-81631571D02*
X136231238Y-81631571D01*
X136231238Y-81631571D02*
X136326476Y-81679190D01*
X136326476Y-81679190D02*
X136374095Y-81726809D01*
X136374095Y-81726809D02*
X136421714Y-81822047D01*
X136421714Y-81822047D02*
X136421714Y-82060142D01*
X136421714Y-82060142D02*
X136374095Y-82155380D01*
X136374095Y-82155380D02*
X136326476Y-82203000D01*
X136326476Y-82203000D02*
X136231238Y-82250619D01*
X136231238Y-82250619D02*
X135945524Y-82250619D01*
X135945524Y-82250619D02*
X135850286Y-82203000D01*
X135850286Y-82203000D02*
X135802667Y-82155380D01*
%TO.C,R6*%
X153233333Y-87862619D02*
X152900000Y-87386428D01*
X152661905Y-87862619D02*
X152661905Y-86862619D01*
X152661905Y-86862619D02*
X153042857Y-86862619D01*
X153042857Y-86862619D02*
X153138095Y-86910238D01*
X153138095Y-86910238D02*
X153185714Y-86957857D01*
X153185714Y-86957857D02*
X153233333Y-87053095D01*
X153233333Y-87053095D02*
X153233333Y-87195952D01*
X153233333Y-87195952D02*
X153185714Y-87291190D01*
X153185714Y-87291190D02*
X153138095Y-87338809D01*
X153138095Y-87338809D02*
X153042857Y-87386428D01*
X153042857Y-87386428D02*
X152661905Y-87386428D01*
X154090476Y-86862619D02*
X153900000Y-86862619D01*
X153900000Y-86862619D02*
X153804762Y-86910238D01*
X153804762Y-86910238D02*
X153757143Y-86957857D01*
X153757143Y-86957857D02*
X153661905Y-87100714D01*
X153661905Y-87100714D02*
X153614286Y-87291190D01*
X153614286Y-87291190D02*
X153614286Y-87672142D01*
X153614286Y-87672142D02*
X153661905Y-87767380D01*
X153661905Y-87767380D02*
X153709524Y-87815000D01*
X153709524Y-87815000D02*
X153804762Y-87862619D01*
X153804762Y-87862619D02*
X153995238Y-87862619D01*
X153995238Y-87862619D02*
X154090476Y-87815000D01*
X154090476Y-87815000D02*
X154138095Y-87767380D01*
X154138095Y-87767380D02*
X154185714Y-87672142D01*
X154185714Y-87672142D02*
X154185714Y-87434047D01*
X154185714Y-87434047D02*
X154138095Y-87338809D01*
X154138095Y-87338809D02*
X154090476Y-87291190D01*
X154090476Y-87291190D02*
X153995238Y-87243571D01*
X153995238Y-87243571D02*
X153804762Y-87243571D01*
X153804762Y-87243571D02*
X153709524Y-87291190D01*
X153709524Y-87291190D02*
X153661905Y-87338809D01*
X153661905Y-87338809D02*
X153614286Y-87434047D01*
%TO.C,J1*%
X135566666Y-91062619D02*
X135566666Y-91776904D01*
X135566666Y-91776904D02*
X135519047Y-91919761D01*
X135519047Y-91919761D02*
X135423809Y-92015000D01*
X135423809Y-92015000D02*
X135280952Y-92062619D01*
X135280952Y-92062619D02*
X135185714Y-92062619D01*
X136566666Y-92062619D02*
X135995238Y-92062619D01*
X136280952Y-92062619D02*
X136280952Y-91062619D01*
X136280952Y-91062619D02*
X136185714Y-91205476D01*
X136185714Y-91205476D02*
X136090476Y-91300714D01*
X136090476Y-91300714D02*
X135995238Y-91348333D01*
%TO.C,Q2*%
X152256761Y-82259857D02*
X152161523Y-82212238D01*
X152161523Y-82212238D02*
X152066285Y-82117000D01*
X152066285Y-82117000D02*
X151923428Y-81974142D01*
X151923428Y-81974142D02*
X151828190Y-81926523D01*
X151828190Y-81926523D02*
X151732952Y-81926523D01*
X151780571Y-82164619D02*
X151685333Y-82117000D01*
X151685333Y-82117000D02*
X151590095Y-82021761D01*
X151590095Y-82021761D02*
X151542476Y-81831285D01*
X151542476Y-81831285D02*
X151542476Y-81497952D01*
X151542476Y-81497952D02*
X151590095Y-81307476D01*
X151590095Y-81307476D02*
X151685333Y-81212238D01*
X151685333Y-81212238D02*
X151780571Y-81164619D01*
X151780571Y-81164619D02*
X151971047Y-81164619D01*
X151971047Y-81164619D02*
X152066285Y-81212238D01*
X152066285Y-81212238D02*
X152161523Y-81307476D01*
X152161523Y-81307476D02*
X152209142Y-81497952D01*
X152209142Y-81497952D02*
X152209142Y-81831285D01*
X152209142Y-81831285D02*
X152161523Y-82021761D01*
X152161523Y-82021761D02*
X152066285Y-82117000D01*
X152066285Y-82117000D02*
X151971047Y-82164619D01*
X151971047Y-82164619D02*
X151780571Y-82164619D01*
X152590095Y-81259857D02*
X152637714Y-81212238D01*
X152637714Y-81212238D02*
X152732952Y-81164619D01*
X152732952Y-81164619D02*
X152971047Y-81164619D01*
X152971047Y-81164619D02*
X153066285Y-81212238D01*
X153066285Y-81212238D02*
X153113904Y-81259857D01*
X153113904Y-81259857D02*
X153161523Y-81355095D01*
X153161523Y-81355095D02*
X153161523Y-81450333D01*
X153161523Y-81450333D02*
X153113904Y-81593190D01*
X153113904Y-81593190D02*
X152542476Y-82164619D01*
X152542476Y-82164619D02*
X153161523Y-82164619D01*
%TO.C,R7*%
X150933333Y-87762619D02*
X150600000Y-87286428D01*
X150361905Y-87762619D02*
X150361905Y-86762619D01*
X150361905Y-86762619D02*
X150742857Y-86762619D01*
X150742857Y-86762619D02*
X150838095Y-86810238D01*
X150838095Y-86810238D02*
X150885714Y-86857857D01*
X150885714Y-86857857D02*
X150933333Y-86953095D01*
X150933333Y-86953095D02*
X150933333Y-87095952D01*
X150933333Y-87095952D02*
X150885714Y-87191190D01*
X150885714Y-87191190D02*
X150838095Y-87238809D01*
X150838095Y-87238809D02*
X150742857Y-87286428D01*
X150742857Y-87286428D02*
X150361905Y-87286428D01*
X151266667Y-86762619D02*
X151933333Y-86762619D01*
X151933333Y-86762619D02*
X151504762Y-87762619D01*
%TO.C,R9*%
X142733333Y-70862619D02*
X142400000Y-70386428D01*
X142161905Y-70862619D02*
X142161905Y-69862619D01*
X142161905Y-69862619D02*
X142542857Y-69862619D01*
X142542857Y-69862619D02*
X142638095Y-69910238D01*
X142638095Y-69910238D02*
X142685714Y-69957857D01*
X142685714Y-69957857D02*
X142733333Y-70053095D01*
X142733333Y-70053095D02*
X142733333Y-70195952D01*
X142733333Y-70195952D02*
X142685714Y-70291190D01*
X142685714Y-70291190D02*
X142638095Y-70338809D01*
X142638095Y-70338809D02*
X142542857Y-70386428D01*
X142542857Y-70386428D02*
X142161905Y-70386428D01*
X143209524Y-70862619D02*
X143400000Y-70862619D01*
X143400000Y-70862619D02*
X143495238Y-70815000D01*
X143495238Y-70815000D02*
X143542857Y-70767380D01*
X143542857Y-70767380D02*
X143638095Y-70624523D01*
X143638095Y-70624523D02*
X143685714Y-70434047D01*
X143685714Y-70434047D02*
X143685714Y-70053095D01*
X143685714Y-70053095D02*
X143638095Y-69957857D01*
X143638095Y-69957857D02*
X143590476Y-69910238D01*
X143590476Y-69910238D02*
X143495238Y-69862619D01*
X143495238Y-69862619D02*
X143304762Y-69862619D01*
X143304762Y-69862619D02*
X143209524Y-69910238D01*
X143209524Y-69910238D02*
X143161905Y-69957857D01*
X143161905Y-69957857D02*
X143114286Y-70053095D01*
X143114286Y-70053095D02*
X143114286Y-70291190D01*
X143114286Y-70291190D02*
X143161905Y-70386428D01*
X143161905Y-70386428D02*
X143209524Y-70434047D01*
X143209524Y-70434047D02*
X143304762Y-70481666D01*
X143304762Y-70481666D02*
X143495238Y-70481666D01*
X143495238Y-70481666D02*
X143590476Y-70434047D01*
X143590476Y-70434047D02*
X143638095Y-70386428D01*
X143638095Y-70386428D02*
X143685714Y-70291190D01*
%TO.C,C2*%
X151033333Y-67967380D02*
X150985714Y-68015000D01*
X150985714Y-68015000D02*
X150842857Y-68062619D01*
X150842857Y-68062619D02*
X150747619Y-68062619D01*
X150747619Y-68062619D02*
X150604762Y-68015000D01*
X150604762Y-68015000D02*
X150509524Y-67919761D01*
X150509524Y-67919761D02*
X150461905Y-67824523D01*
X150461905Y-67824523D02*
X150414286Y-67634047D01*
X150414286Y-67634047D02*
X150414286Y-67491190D01*
X150414286Y-67491190D02*
X150461905Y-67300714D01*
X150461905Y-67300714D02*
X150509524Y-67205476D01*
X150509524Y-67205476D02*
X150604762Y-67110238D01*
X150604762Y-67110238D02*
X150747619Y-67062619D01*
X150747619Y-67062619D02*
X150842857Y-67062619D01*
X150842857Y-67062619D02*
X150985714Y-67110238D01*
X150985714Y-67110238D02*
X151033333Y-67157857D01*
X151414286Y-67157857D02*
X151461905Y-67110238D01*
X151461905Y-67110238D02*
X151557143Y-67062619D01*
X151557143Y-67062619D02*
X151795238Y-67062619D01*
X151795238Y-67062619D02*
X151890476Y-67110238D01*
X151890476Y-67110238D02*
X151938095Y-67157857D01*
X151938095Y-67157857D02*
X151985714Y-67253095D01*
X151985714Y-67253095D02*
X151985714Y-67348333D01*
X151985714Y-67348333D02*
X151938095Y-67491190D01*
X151938095Y-67491190D02*
X151366667Y-68062619D01*
X151366667Y-68062619D02*
X151985714Y-68062619D01*
%TO.C,R3*%
X142633333Y-75362619D02*
X142300000Y-74886428D01*
X142061905Y-75362619D02*
X142061905Y-74362619D01*
X142061905Y-74362619D02*
X142442857Y-74362619D01*
X142442857Y-74362619D02*
X142538095Y-74410238D01*
X142538095Y-74410238D02*
X142585714Y-74457857D01*
X142585714Y-74457857D02*
X142633333Y-74553095D01*
X142633333Y-74553095D02*
X142633333Y-74695952D01*
X142633333Y-74695952D02*
X142585714Y-74791190D01*
X142585714Y-74791190D02*
X142538095Y-74838809D01*
X142538095Y-74838809D02*
X142442857Y-74886428D01*
X142442857Y-74886428D02*
X142061905Y-74886428D01*
X142966667Y-74362619D02*
X143585714Y-74362619D01*
X143585714Y-74362619D02*
X143252381Y-74743571D01*
X143252381Y-74743571D02*
X143395238Y-74743571D01*
X143395238Y-74743571D02*
X143490476Y-74791190D01*
X143490476Y-74791190D02*
X143538095Y-74838809D01*
X143538095Y-74838809D02*
X143585714Y-74934047D01*
X143585714Y-74934047D02*
X143585714Y-75172142D01*
X143585714Y-75172142D02*
X143538095Y-75267380D01*
X143538095Y-75267380D02*
X143490476Y-75315000D01*
X143490476Y-75315000D02*
X143395238Y-75362619D01*
X143395238Y-75362619D02*
X143109524Y-75362619D01*
X143109524Y-75362619D02*
X143014286Y-75315000D01*
X143014286Y-75315000D02*
X142966667Y-75267380D01*
%TO.C,R8*%
X142633333Y-73062619D02*
X142300000Y-72586428D01*
X142061905Y-73062619D02*
X142061905Y-72062619D01*
X142061905Y-72062619D02*
X142442857Y-72062619D01*
X142442857Y-72062619D02*
X142538095Y-72110238D01*
X142538095Y-72110238D02*
X142585714Y-72157857D01*
X142585714Y-72157857D02*
X142633333Y-72253095D01*
X142633333Y-72253095D02*
X142633333Y-72395952D01*
X142633333Y-72395952D02*
X142585714Y-72491190D01*
X142585714Y-72491190D02*
X142538095Y-72538809D01*
X142538095Y-72538809D02*
X142442857Y-72586428D01*
X142442857Y-72586428D02*
X142061905Y-72586428D01*
X143204762Y-72491190D02*
X143109524Y-72443571D01*
X143109524Y-72443571D02*
X143061905Y-72395952D01*
X143061905Y-72395952D02*
X143014286Y-72300714D01*
X143014286Y-72300714D02*
X143014286Y-72253095D01*
X143014286Y-72253095D02*
X143061905Y-72157857D01*
X143061905Y-72157857D02*
X143109524Y-72110238D01*
X143109524Y-72110238D02*
X143204762Y-72062619D01*
X143204762Y-72062619D02*
X143395238Y-72062619D01*
X143395238Y-72062619D02*
X143490476Y-72110238D01*
X143490476Y-72110238D02*
X143538095Y-72157857D01*
X143538095Y-72157857D02*
X143585714Y-72253095D01*
X143585714Y-72253095D02*
X143585714Y-72300714D01*
X143585714Y-72300714D02*
X143538095Y-72395952D01*
X143538095Y-72395952D02*
X143490476Y-72443571D01*
X143490476Y-72443571D02*
X143395238Y-72491190D01*
X143395238Y-72491190D02*
X143204762Y-72491190D01*
X143204762Y-72491190D02*
X143109524Y-72538809D01*
X143109524Y-72538809D02*
X143061905Y-72586428D01*
X143061905Y-72586428D02*
X143014286Y-72681666D01*
X143014286Y-72681666D02*
X143014286Y-72872142D01*
X143014286Y-72872142D02*
X143061905Y-72967380D01*
X143061905Y-72967380D02*
X143109524Y-73015000D01*
X143109524Y-73015000D02*
X143204762Y-73062619D01*
X143204762Y-73062619D02*
X143395238Y-73062619D01*
X143395238Y-73062619D02*
X143490476Y-73015000D01*
X143490476Y-73015000D02*
X143538095Y-72967380D01*
X143538095Y-72967380D02*
X143585714Y-72872142D01*
X143585714Y-72872142D02*
X143585714Y-72681666D01*
X143585714Y-72681666D02*
X143538095Y-72586428D01*
X143538095Y-72586428D02*
X143490476Y-72538809D01*
X143490476Y-72538809D02*
X143395238Y-72491190D01*
%TO.C,U2*%
X146178095Y-69462619D02*
X146178095Y-70272142D01*
X146178095Y-70272142D02*
X146225714Y-70367380D01*
X146225714Y-70367380D02*
X146273333Y-70415000D01*
X146273333Y-70415000D02*
X146368571Y-70462619D01*
X146368571Y-70462619D02*
X146559047Y-70462619D01*
X146559047Y-70462619D02*
X146654285Y-70415000D01*
X146654285Y-70415000D02*
X146701904Y-70367380D01*
X146701904Y-70367380D02*
X146749523Y-70272142D01*
X146749523Y-70272142D02*
X146749523Y-69462619D01*
X147178095Y-69557857D02*
X147225714Y-69510238D01*
X147225714Y-69510238D02*
X147320952Y-69462619D01*
X147320952Y-69462619D02*
X147559047Y-69462619D01*
X147559047Y-69462619D02*
X147654285Y-69510238D01*
X147654285Y-69510238D02*
X147701904Y-69557857D01*
X147701904Y-69557857D02*
X147749523Y-69653095D01*
X147749523Y-69653095D02*
X147749523Y-69748333D01*
X147749523Y-69748333D02*
X147701904Y-69891190D01*
X147701904Y-69891190D02*
X147130476Y-70462619D01*
X147130476Y-70462619D02*
X147749523Y-70462619D01*
%TO.C,P1*%
X142761905Y-65212619D02*
X142761905Y-64212619D01*
X142761905Y-64212619D02*
X143142857Y-64212619D01*
X143142857Y-64212619D02*
X143238095Y-64260238D01*
X143238095Y-64260238D02*
X143285714Y-64307857D01*
X143285714Y-64307857D02*
X143333333Y-64403095D01*
X143333333Y-64403095D02*
X143333333Y-64545952D01*
X143333333Y-64545952D02*
X143285714Y-64641190D01*
X143285714Y-64641190D02*
X143238095Y-64688809D01*
X143238095Y-64688809D02*
X143142857Y-64736428D01*
X143142857Y-64736428D02*
X142761905Y-64736428D01*
X144285714Y-65212619D02*
X143714286Y-65212619D01*
X144000000Y-65212619D02*
X144000000Y-64212619D01*
X144000000Y-64212619D02*
X143904762Y-64355476D01*
X143904762Y-64355476D02*
X143809524Y-64450714D01*
X143809524Y-64450714D02*
X143714286Y-64498333D01*
%TO.C,D3*%
X147312619Y-91938094D02*
X146312619Y-91938094D01*
X146312619Y-91938094D02*
X146312619Y-91699999D01*
X146312619Y-91699999D02*
X146360238Y-91557142D01*
X146360238Y-91557142D02*
X146455476Y-91461904D01*
X146455476Y-91461904D02*
X146550714Y-91414285D01*
X146550714Y-91414285D02*
X146741190Y-91366666D01*
X146741190Y-91366666D02*
X146884047Y-91366666D01*
X146884047Y-91366666D02*
X147074523Y-91414285D01*
X147074523Y-91414285D02*
X147169761Y-91461904D01*
X147169761Y-91461904D02*
X147265000Y-91557142D01*
X147265000Y-91557142D02*
X147312619Y-91699999D01*
X147312619Y-91699999D02*
X147312619Y-91938094D01*
X146312619Y-91033332D02*
X146312619Y-90414285D01*
X146312619Y-90414285D02*
X146693571Y-90747618D01*
X146693571Y-90747618D02*
X146693571Y-90604761D01*
X146693571Y-90604761D02*
X146741190Y-90509523D01*
X146741190Y-90509523D02*
X146788809Y-90461904D01*
X146788809Y-90461904D02*
X146884047Y-90414285D01*
X146884047Y-90414285D02*
X147122142Y-90414285D01*
X147122142Y-90414285D02*
X147217380Y-90461904D01*
X147217380Y-90461904D02*
X147265000Y-90509523D01*
X147265000Y-90509523D02*
X147312619Y-90604761D01*
X147312619Y-90604761D02*
X147312619Y-90890475D01*
X147312619Y-90890475D02*
X147265000Y-90985713D01*
X147265000Y-90985713D02*
X147217380Y-91033332D01*
X140812619Y-91366666D02*
X140336428Y-91699999D01*
X140812619Y-91938094D02*
X139812619Y-91938094D01*
X139812619Y-91938094D02*
X139812619Y-91557142D01*
X139812619Y-91557142D02*
X139860238Y-91461904D01*
X139860238Y-91461904D02*
X139907857Y-91414285D01*
X139907857Y-91414285D02*
X140003095Y-91366666D01*
X140003095Y-91366666D02*
X140145952Y-91366666D01*
X140145952Y-91366666D02*
X140241190Y-91414285D01*
X140241190Y-91414285D02*
X140288809Y-91461904D01*
X140288809Y-91461904D02*
X140336428Y-91557142D01*
X140336428Y-91557142D02*
X140336428Y-91938094D01*
X139812619Y-91033332D02*
X140812619Y-90366666D01*
X139812619Y-90366666D02*
X140812619Y-91033332D01*
%TO.C,D2*%
X148912619Y-89538094D02*
X147912619Y-89538094D01*
X147912619Y-89538094D02*
X147912619Y-89299999D01*
X147912619Y-89299999D02*
X147960238Y-89157142D01*
X147960238Y-89157142D02*
X148055476Y-89061904D01*
X148055476Y-89061904D02*
X148150714Y-89014285D01*
X148150714Y-89014285D02*
X148341190Y-88966666D01*
X148341190Y-88966666D02*
X148484047Y-88966666D01*
X148484047Y-88966666D02*
X148674523Y-89014285D01*
X148674523Y-89014285D02*
X148769761Y-89061904D01*
X148769761Y-89061904D02*
X148865000Y-89157142D01*
X148865000Y-89157142D02*
X148912619Y-89299999D01*
X148912619Y-89299999D02*
X148912619Y-89538094D01*
X148007857Y-88585713D02*
X147960238Y-88538094D01*
X147960238Y-88538094D02*
X147912619Y-88442856D01*
X147912619Y-88442856D02*
X147912619Y-88204761D01*
X147912619Y-88204761D02*
X147960238Y-88109523D01*
X147960238Y-88109523D02*
X148007857Y-88061904D01*
X148007857Y-88061904D02*
X148103095Y-88014285D01*
X148103095Y-88014285D02*
X148198333Y-88014285D01*
X148198333Y-88014285D02*
X148341190Y-88061904D01*
X148341190Y-88061904D02*
X148912619Y-88633332D01*
X148912619Y-88633332D02*
X148912619Y-88014285D01*
X141412619Y-89561904D02*
X141412619Y-88990476D01*
X142412619Y-89276190D02*
X141412619Y-89276190D01*
X141412619Y-88752380D02*
X142412619Y-88085714D01*
X141412619Y-88085714D02*
X142412619Y-88752380D01*
%TO.C,R2*%
X143583333Y-82662619D02*
X143250000Y-82186428D01*
X143011905Y-82662619D02*
X143011905Y-81662619D01*
X143011905Y-81662619D02*
X143392857Y-81662619D01*
X143392857Y-81662619D02*
X143488095Y-81710238D01*
X143488095Y-81710238D02*
X143535714Y-81757857D01*
X143535714Y-81757857D02*
X143583333Y-81853095D01*
X143583333Y-81853095D02*
X143583333Y-81995952D01*
X143583333Y-81995952D02*
X143535714Y-82091190D01*
X143535714Y-82091190D02*
X143488095Y-82138809D01*
X143488095Y-82138809D02*
X143392857Y-82186428D01*
X143392857Y-82186428D02*
X143011905Y-82186428D01*
X143964286Y-81757857D02*
X144011905Y-81710238D01*
X144011905Y-81710238D02*
X144107143Y-81662619D01*
X144107143Y-81662619D02*
X144345238Y-81662619D01*
X144345238Y-81662619D02*
X144440476Y-81710238D01*
X144440476Y-81710238D02*
X144488095Y-81757857D01*
X144488095Y-81757857D02*
X144535714Y-81853095D01*
X144535714Y-81853095D02*
X144535714Y-81948333D01*
X144535714Y-81948333D02*
X144488095Y-82091190D01*
X144488095Y-82091190D02*
X143916667Y-82662619D01*
X143916667Y-82662619D02*
X144535714Y-82662619D01*
D11*
%TO.C,Q1*%
X148160000Y-84700000D02*
X148160000Y-83025000D01*
X148160000Y-84700000D02*
X148160000Y-85350000D01*
X145040000Y-84700000D02*
X145040000Y-84050000D01*
X145040000Y-84700000D02*
X145040000Y-85350000D01*
%TO.C,kibuzzard-638EC2B1*%
G36*
X142428822Y-95877341D02*
G01*
X142483988Y-95904725D01*
X142519706Y-95951556D01*
X142531613Y-96019025D01*
X142487163Y-96129356D01*
X142428822Y-96158527D01*
X142342700Y-96168250D01*
X142299838Y-96168250D01*
X142299838Y-95872975D01*
X142331588Y-95869006D01*
X142358575Y-95868213D01*
X142428822Y-95877341D01*
G37*
G36*
X137700850Y-95895994D02*
G01*
X137765938Y-95969813D01*
X137799275Y-96076175D01*
X137808800Y-96200000D01*
X137805824Y-96270048D01*
X137796894Y-96334144D01*
X137757206Y-96439713D01*
X137684181Y-96509562D01*
X137572263Y-96534963D01*
X137554800Y-96534963D01*
X137537338Y-96533375D01*
X137537338Y-95872975D01*
X137565913Y-95869006D01*
X137594488Y-95868213D01*
X137700850Y-95895994D01*
G37*
G36*
X150434188Y-95884087D02*
G01*
X150481019Y-95957113D01*
X150503244Y-96065856D01*
X150507411Y-96130745D01*
X150508800Y-96200000D01*
X150507411Y-96269056D01*
X150503244Y-96333350D01*
X150481019Y-96442094D01*
X150433394Y-96515913D01*
X150353225Y-96542900D01*
X150272263Y-96515913D01*
X150225431Y-96442888D01*
X150203206Y-96334144D01*
X150199039Y-96269255D01*
X150197650Y-96200000D01*
X150199039Y-96130944D01*
X150203206Y-96066650D01*
X150225431Y-95957906D01*
X150272263Y-95884087D01*
X150353225Y-95857100D01*
X150434188Y-95884087D01*
G37*
G36*
X151146975Y-96544488D02*
G01*
X151076728Y-96522461D01*
X151024738Y-96456381D01*
X151000925Y-96388560D01*
X150986638Y-96302570D01*
X150981875Y-96198413D01*
X150982607Y-96182538D01*
X151059663Y-96182538D01*
X151083475Y-96256356D01*
X151148563Y-96287313D01*
X151211269Y-96256356D01*
X151235875Y-96182538D01*
X151211269Y-96107925D01*
X151148563Y-96076175D01*
X151083475Y-96107925D01*
X151059663Y-96182538D01*
X150982607Y-96182538D01*
X150986638Y-96095137D01*
X151000925Y-96009676D01*
X151024738Y-95942031D01*
X151076728Y-95875952D01*
X151146975Y-95853925D01*
X151218214Y-95875952D01*
X151270006Y-95942031D01*
X151293378Y-96009676D01*
X151307401Y-96095137D01*
X151312075Y-96198413D01*
X151307401Y-96302570D01*
X151293378Y-96388560D01*
X151270006Y-96456381D01*
X151218214Y-96522461D01*
X151148563Y-96543997D01*
X151146975Y-96544488D01*
G37*
G36*
X150354813Y-96845054D02*
G01*
X149248325Y-96845054D01*
X148138663Y-96845054D01*
X146881363Y-96845054D01*
X145759000Y-96845054D01*
X144895400Y-96845054D01*
X143377750Y-96845054D01*
X142795138Y-96845054D01*
X140901250Y-96845054D01*
X140107500Y-96845054D01*
X139139125Y-96845054D01*
X137551625Y-96845054D01*
X137026163Y-96845054D01*
X136113350Y-96845054D01*
X135711713Y-96845054D01*
X135645567Y-96845054D01*
X135519723Y-96832660D01*
X135398715Y-96795952D01*
X135287194Y-96736343D01*
X135189445Y-96656122D01*
X135109224Y-96558373D01*
X135049614Y-96446852D01*
X135012907Y-96325844D01*
X135000513Y-96200000D01*
X135711713Y-96200000D01*
X135718856Y-96319261D01*
X135740288Y-96423044D01*
X135774816Y-96511150D01*
X135821250Y-96583381D01*
X135878995Y-96639738D01*
X135947456Y-96680219D01*
X136025839Y-96704627D01*
X136113350Y-96712763D01*
X136210386Y-96708794D01*
X136291944Y-96696888D01*
X136310070Y-96692125D01*
X136535625Y-96692125D01*
X136711838Y-96692125D01*
X136711838Y-96039663D01*
X136770840Y-96148583D01*
X136827196Y-96257326D01*
X136880906Y-96365894D01*
X136931971Y-96474461D01*
X136980390Y-96583205D01*
X137026163Y-96692125D01*
X137183325Y-96692125D01*
X137183325Y-96681013D01*
X137342075Y-96681013D01*
X137449231Y-96699269D01*
X137551625Y-96704825D01*
X137647470Y-96697880D01*
X137734981Y-96677044D01*
X137812570Y-96641127D01*
X137878650Y-96588938D01*
X137932427Y-96519683D01*
X137973106Y-96432569D01*
X137998705Y-96326405D01*
X138007238Y-96200000D01*
X137999499Y-96076373D01*
X137976281Y-95972194D01*
X137939174Y-95886072D01*
X137889763Y-95816619D01*
X137828049Y-95763636D01*
X137754031Y-95726925D01*
X137685314Y-95709463D01*
X138864488Y-95709463D01*
X138882744Y-95798363D01*
X138908938Y-95909488D01*
X138929928Y-95992655D01*
X138952682Y-96079174D01*
X138977200Y-96169044D01*
X139003129Y-96260678D01*
X139030117Y-96352488D01*
X139058163Y-96444475D01*
X139099834Y-96575444D01*
X139139125Y-96692125D01*
X139340738Y-96692125D01*
X139371076Y-96607547D01*
X139400710Y-96521028D01*
X139429638Y-96432569D01*
X139457419Y-96343669D01*
X139483613Y-96255827D01*
X139499442Y-96200000D01*
X139680463Y-96200000D01*
X139687309Y-96315987D01*
X139707847Y-96417884D01*
X139742077Y-96505693D01*
X139790000Y-96579413D01*
X139873961Y-96653496D01*
X139979795Y-96697946D01*
X140107500Y-96712763D01*
X140194217Y-96707405D01*
X140270219Y-96691331D01*
X140382138Y-96644500D01*
X140332925Y-96490512D01*
X140252756Y-96525438D01*
X140126550Y-96542900D01*
X140013242Y-96520477D01*
X139936844Y-96453206D01*
X139904653Y-96384679D01*
X139885338Y-96298690D01*
X139879196Y-96200000D01*
X140474213Y-96200000D01*
X140481059Y-96315987D01*
X140501597Y-96417884D01*
X140535827Y-96505693D01*
X140583750Y-96579413D01*
X140667711Y-96653496D01*
X140773545Y-96697946D01*
X140901250Y-96712763D01*
X140987967Y-96707405D01*
X141060215Y-96692125D01*
X142104575Y-96692125D01*
X142299838Y-96692125D01*
X142299838Y-96330175D01*
X142401438Y-96330175D01*
X142455214Y-96420067D01*
X142505419Y-96508769D01*
X142550861Y-96598661D01*
X142590350Y-96692125D01*
X142795138Y-96692125D01*
X142830063Y-96692125D01*
X143041200Y-96692125D01*
X143077713Y-96606202D01*
X143120575Y-96510356D01*
X143166613Y-96411336D01*
X143212650Y-96315888D01*
X143259283Y-96414313D01*
X143303931Y-96512738D01*
X143344214Y-96606797D01*
X143377750Y-96692125D01*
X143588888Y-96692125D01*
X143546025Y-96588144D01*
X143516855Y-96524644D01*
X143483319Y-96456381D01*
X143446211Y-96384745D01*
X143406325Y-96311125D01*
X143364653Y-96238100D01*
X143322188Y-96168250D01*
X143484486Y-95871388D01*
X144439788Y-95871388D01*
X144698550Y-95871388D01*
X144698550Y-96692125D01*
X144895400Y-96692125D01*
X145211313Y-96692125D01*
X145422450Y-96692125D01*
X145458963Y-96606202D01*
X145501825Y-96510356D01*
X145547863Y-96411336D01*
X145593900Y-96315888D01*
X145640533Y-96414313D01*
X145685181Y-96512738D01*
X145725464Y-96606797D01*
X145759000Y-96692125D01*
X145970138Y-96692125D01*
X145927275Y-96588144D01*
X145898105Y-96524644D01*
X145864569Y-96456381D01*
X145827461Y-96384745D01*
X145787575Y-96311125D01*
X145745903Y-96238100D01*
X145703438Y-96168250D01*
X145954263Y-95709463D01*
X146881363Y-95709463D01*
X146881363Y-96692125D01*
X147511600Y-96692125D01*
X147648125Y-96692125D01*
X147824338Y-96692125D01*
X147824338Y-96039663D01*
X147883340Y-96148583D01*
X147939696Y-96257326D01*
X147993406Y-96365894D01*
X148044471Y-96474461D01*
X148092890Y-96583205D01*
X148138663Y-96692125D01*
X148295825Y-96692125D01*
X148295825Y-96530200D01*
X149248325Y-96530200D01*
X149248325Y-96692125D01*
X149872213Y-96692125D01*
X149872213Y-96530200D01*
X149659488Y-96530200D01*
X149659488Y-96200000D01*
X149999213Y-96200000D01*
X150004918Y-96319211D01*
X150022033Y-96422845D01*
X150050558Y-96510902D01*
X150090494Y-96583381D01*
X150160432Y-96655260D01*
X150248538Y-96698387D01*
X150354813Y-96712763D01*
X150458529Y-96698387D01*
X150545313Y-96655260D01*
X150615163Y-96583381D01*
X150655445Y-96510902D01*
X150684219Y-96422845D01*
X150701483Y-96319211D01*
X150707238Y-96200000D01*
X150707163Y-96198413D01*
X150805663Y-96198413D01*
X150811120Y-96320253D01*
X150827491Y-96425425D01*
X150854776Y-96513928D01*
X150892975Y-96585763D01*
X150960003Y-96656318D01*
X151044670Y-96698651D01*
X151146975Y-96712763D01*
X151249281Y-96698651D01*
X151333947Y-96656318D01*
X151400975Y-96585763D01*
X151439174Y-96513928D01*
X151466459Y-96425425D01*
X151482831Y-96320253D01*
X151488288Y-96198413D01*
X151482831Y-96077316D01*
X151466459Y-95972789D01*
X151439174Y-95884832D01*
X151400975Y-95813444D01*
X151333947Y-95743329D01*
X151249281Y-95701260D01*
X151146975Y-95687238D01*
X151046257Y-95701349D01*
X150962120Y-95743682D01*
X150894563Y-95814238D01*
X150855669Y-95885873D01*
X150827888Y-95973781D01*
X150811219Y-96077961D01*
X150805663Y-96198413D01*
X150707163Y-96198413D01*
X150701582Y-96080789D01*
X150684616Y-95977155D01*
X150656338Y-95889098D01*
X150616750Y-95816619D01*
X150547253Y-95744740D01*
X150459411Y-95701613D01*
X150353225Y-95687238D01*
X150250214Y-95701613D01*
X150163431Y-95744740D01*
X150092875Y-95816619D01*
X150051898Y-95889098D01*
X150022628Y-95977155D01*
X150005066Y-96080789D01*
X149999213Y-96200000D01*
X149659488Y-96200000D01*
X149659488Y-95871388D01*
X149872213Y-95871388D01*
X149872213Y-95709463D01*
X149248325Y-95709463D01*
X149248325Y-95871388D01*
X149462638Y-95871388D01*
X149462638Y-96530200D01*
X149248325Y-96530200D01*
X148295825Y-96530200D01*
X148295825Y-95709463D01*
X148119613Y-95709463D01*
X148119613Y-96314300D01*
X148091633Y-96252388D01*
X148058494Y-96180950D01*
X148021188Y-96103559D01*
X147980706Y-96023787D01*
X147938042Y-95942627D01*
X147894188Y-95861069D01*
X147849738Y-95782289D01*
X147805288Y-95709463D01*
X147648125Y-95709463D01*
X147648125Y-96692125D01*
X147511600Y-96692125D01*
X147511600Y-96530200D01*
X147076625Y-96530200D01*
X147076625Y-96253975D01*
X147424288Y-96253975D01*
X147424288Y-96092050D01*
X147076625Y-96092050D01*
X147076625Y-95871388D01*
X147476675Y-95871388D01*
X147476675Y-95709463D01*
X146881363Y-95709463D01*
X145954263Y-95709463D01*
X145757413Y-95709463D01*
X145593900Y-96023787D01*
X145438325Y-95709463D01*
X145227188Y-95709463D01*
X145484363Y-96173013D01*
X145445469Y-96242664D01*
X145404988Y-96315094D01*
X145364705Y-96387920D01*
X145326406Y-96458763D01*
X145290688Y-96526231D01*
X145258144Y-96588938D01*
X145211313Y-96692125D01*
X144895400Y-96692125D01*
X144895400Y-95871388D01*
X145154163Y-95871388D01*
X145154163Y-95709463D01*
X144439788Y-95709463D01*
X144439788Y-95871388D01*
X143484486Y-95871388D01*
X143573013Y-95709463D01*
X143376163Y-95709463D01*
X143212650Y-96023787D01*
X143057075Y-95709463D01*
X142845938Y-95709463D01*
X143103113Y-96173013D01*
X143064219Y-96242664D01*
X143023738Y-96315094D01*
X142983455Y-96387920D01*
X142945156Y-96458763D01*
X142909438Y-96526231D01*
X142876894Y-96588938D01*
X142830063Y-96692125D01*
X142795138Y-96692125D01*
X142749894Y-96588144D01*
X142695125Y-96478606D01*
X142636388Y-96373831D01*
X142579238Y-96282550D01*
X142648691Y-96237703D01*
X142695125Y-96176188D01*
X142721319Y-96102369D01*
X142730050Y-96020613D01*
X142723502Y-95943420D01*
X142703856Y-95876944D01*
X142628450Y-95776137D01*
X142574475Y-95741609D01*
X142510975Y-95717400D01*
X142438744Y-95703112D01*
X142358575Y-95698350D01*
X142303013Y-95699938D01*
X142236338Y-95703906D01*
X142167281Y-95711844D01*
X142104575Y-95723750D01*
X142104575Y-96692125D01*
X141060215Y-96692125D01*
X141063969Y-96691331D01*
X141175888Y-96644500D01*
X141126675Y-96490512D01*
X141046506Y-96525438D01*
X140920300Y-96542900D01*
X140806992Y-96520477D01*
X140730594Y-96453206D01*
X140698403Y-96384679D01*
X140679088Y-96298690D01*
X140672650Y-96195238D01*
X140678008Y-96106338D01*
X140694081Y-96033313D01*
X140749644Y-95929331D01*
X140827431Y-95873769D01*
X140917125Y-95857100D01*
X141035394Y-95873769D01*
X141123500Y-95914250D01*
X141174300Y-95758675D01*
X141141756Y-95739625D01*
X141088575Y-95715813D01*
X141014756Y-95695969D01*
X140920300Y-95687238D01*
X140827233Y-95695770D01*
X140741706Y-95721369D01*
X140665506Y-95763438D01*
X140600419Y-95821381D01*
X140547436Y-95894605D01*
X140507550Y-95982513D01*
X140482547Y-96084509D01*
X140474213Y-96200000D01*
X139879196Y-96200000D01*
X139878900Y-96195238D01*
X139884258Y-96106338D01*
X139900331Y-96033313D01*
X139955894Y-95929331D01*
X140033681Y-95873769D01*
X140123375Y-95857100D01*
X140241644Y-95873769D01*
X140329750Y-95914250D01*
X140380550Y-95758675D01*
X140348006Y-95739625D01*
X140294825Y-95715813D01*
X140221006Y-95695969D01*
X140126550Y-95687238D01*
X140033483Y-95695770D01*
X139947956Y-95721369D01*
X139871756Y-95763438D01*
X139806669Y-95821381D01*
X139753686Y-95894605D01*
X139713800Y-95982513D01*
X139688797Y-96084509D01*
X139680463Y-96200000D01*
X139499442Y-96200000D01*
X139508219Y-96169044D01*
X139541953Y-96042639D01*
X139571719Y-95922188D01*
X139597317Y-95810269D01*
X139618550Y-95709463D01*
X139413763Y-95709463D01*
X139399475Y-95792013D01*
X139382013Y-95887262D01*
X139362169Y-95990252D01*
X139340738Y-96096019D01*
X139317719Y-96202381D01*
X139293113Y-96307156D01*
X139267713Y-96405383D01*
X139242313Y-96492100D01*
X139216714Y-96404192D01*
X139190719Y-96305569D01*
X139165319Y-96200794D01*
X139141506Y-96094431D01*
X139119480Y-95988863D01*
X139099438Y-95886469D01*
X139082769Y-95791814D01*
X139070863Y-95709463D01*
X138864488Y-95709463D01*
X137685314Y-95709463D01*
X137669695Y-95705494D01*
X137577025Y-95698350D01*
X137467488Y-95703113D01*
X137342075Y-95722163D01*
X137342075Y-96681013D01*
X137183325Y-96681013D01*
X137183325Y-95709463D01*
X137007113Y-95709463D01*
X137007113Y-96314300D01*
X136979133Y-96252388D01*
X136945994Y-96180950D01*
X136908688Y-96103559D01*
X136868206Y-96023787D01*
X136825542Y-95942627D01*
X136781688Y-95861069D01*
X136737238Y-95782289D01*
X136692788Y-95709463D01*
X136535625Y-95709463D01*
X136535625Y-96692125D01*
X136310070Y-96692125D01*
X136400688Y-96668313D01*
X136400688Y-96177775D01*
X136205425Y-96177775D01*
X136205425Y-96536550D01*
X136167325Y-96541313D01*
X136129225Y-96542900D01*
X136034372Y-96522064D01*
X135965713Y-96459556D01*
X135934845Y-96393675D01*
X135916324Y-96307156D01*
X135910150Y-96200000D01*
X135913524Y-96127173D01*
X135923644Y-96061094D01*
X135968094Y-95953144D01*
X136046675Y-95882500D01*
X136164150Y-95857100D01*
X136268925Y-95874563D01*
X136354650Y-95914250D01*
X136405450Y-95758675D01*
X136372906Y-95739625D01*
X136318138Y-95715813D01*
X136239556Y-95695969D01*
X136137163Y-95687238D01*
X136051041Y-95695373D01*
X135970475Y-95719781D01*
X135897847Y-95760461D01*
X135835538Y-95817413D01*
X135784341Y-95890239D01*
X135745050Y-95978544D01*
X135720047Y-96081930D01*
X135711713Y-96200000D01*
X135000513Y-96200000D01*
X135012907Y-96074156D01*
X135049614Y-95953148D01*
X135109224Y-95841627D01*
X135189445Y-95743878D01*
X135287194Y-95663657D01*
X135398715Y-95604048D01*
X135519723Y-95567340D01*
X135645567Y-95554946D01*
X135711713Y-95554946D01*
X151488288Y-95554946D01*
X151554433Y-95554946D01*
X151680277Y-95567340D01*
X151801285Y-95604048D01*
X151912806Y-95663657D01*
X152010555Y-95743878D01*
X152090776Y-95841627D01*
X152150386Y-95953148D01*
X152187093Y-96074156D01*
X152199487Y-96200000D01*
X152187093Y-96325844D01*
X152150386Y-96446852D01*
X152090776Y-96558373D01*
X152010555Y-96656122D01*
X151912806Y-96736343D01*
X151801285Y-96795952D01*
X151680277Y-96832660D01*
X151554433Y-96845054D01*
X151488288Y-96845054D01*
X151146975Y-96845054D01*
X150354813Y-96845054D01*
G37*
%TO.C,R1*%
X150310000Y-84472936D02*
X150310000Y-85927064D01*
X148490000Y-84472936D02*
X148490000Y-85927064D01*
%TO.C,R4*%
X142210000Y-84472936D02*
X142210000Y-85927064D01*
X140390000Y-84472936D02*
X140390000Y-85927064D01*
%TO.C,C1*%
X139988748Y-78840000D02*
X141411252Y-78840000D01*
X139988748Y-80660000D02*
X141411252Y-80660000D01*
%TO.C,R5*%
X139710000Y-84472936D02*
X139710000Y-85927064D01*
X137890000Y-84472936D02*
X137890000Y-85927064D01*
%TO.C,D1*%
X140340000Y-76065000D02*
X140340000Y-78335000D01*
X140340000Y-78335000D02*
X144400000Y-78335000D01*
X144400000Y-76065000D02*
X140340000Y-76065000D01*
%TO.C,U1*%
X133090000Y-77850000D02*
X133090000Y-71840000D01*
X139910000Y-75600000D02*
X139910000Y-71840000D01*
X133090000Y-71840000D02*
X134350000Y-71840000D01*
X139910000Y-71840000D02*
X138650000Y-71840000D01*
%TO.C,C3*%
X136347252Y-80660000D02*
X134924748Y-80660000D01*
X136347252Y-78840000D02*
X134924748Y-78840000D01*
%TO.C,R6*%
X154110000Y-89672936D02*
X154110000Y-91127064D01*
X152290000Y-89672936D02*
X152290000Y-91127064D01*
%TO.C,J1*%
X137130000Y-90855000D02*
X135800000Y-90855000D01*
X137130000Y-89525000D02*
X137130000Y-90855000D01*
X137130000Y-88255000D02*
X137130000Y-83115000D01*
X137130000Y-88255000D02*
X134470000Y-88255000D01*
X137130000Y-83115000D02*
X134470000Y-83115000D01*
X134470000Y-88255000D02*
X134470000Y-83115000D01*
%TO.C,Q2*%
X153760000Y-84700000D02*
X153760000Y-83025000D01*
X153760000Y-84700000D02*
X153760000Y-85350000D01*
X150640000Y-84700000D02*
X150640000Y-84050000D01*
X150640000Y-84700000D02*
X150640000Y-85350000D01*
%TO.C,R7*%
X150090000Y-91127064D02*
X150090000Y-89672936D01*
X151910000Y-91127064D02*
X151910000Y-89672936D01*
%TO.C,R9*%
X143627064Y-71210000D02*
X142172936Y-71210000D01*
X143627064Y-69390000D02*
X142172936Y-69390000D01*
%TO.C,C2*%
X150488748Y-68290000D02*
X151911252Y-68290000D01*
X150488748Y-70110000D02*
X151911252Y-70110000D01*
%TO.C,R3*%
X142072936Y-73990000D02*
X143527064Y-73990000D01*
X142072936Y-75810000D02*
X143527064Y-75810000D01*
%TO.C,R8*%
X143527064Y-73510000D02*
X142072936Y-73510000D01*
X143527064Y-71690000D02*
X142072936Y-71690000D01*
%TO.C,U2*%
X149600000Y-80752000D02*
X153050000Y-80752000D01*
X149600000Y-80752000D02*
X147650000Y-80752000D01*
X149600000Y-70632000D02*
X151550000Y-70632000D01*
X149600000Y-70632000D02*
X147650000Y-70632000D01*
%TO.C,P1*%
X148080000Y-66350000D02*
X148080000Y-64430000D01*
X148080000Y-60715000D02*
X148080000Y-62420000D01*
X138920000Y-64430000D02*
X138920000Y-66350000D01*
X138920000Y-62420000D02*
X138920000Y-60715000D01*
X138920000Y-60715000D02*
X148080000Y-60715000D01*
%TO.C,D3*%
X141140000Y-90065000D02*
X141140000Y-92335000D01*
X141140000Y-92335000D02*
X145200000Y-92335000D01*
X145200000Y-90065000D02*
X141140000Y-90065000D01*
%TO.C,D2*%
X142740000Y-87665000D02*
X142740000Y-89935000D01*
X142740000Y-89935000D02*
X146800000Y-89935000D01*
X146800000Y-87665000D02*
X142740000Y-87665000D01*
%TO.C,R2*%
X142890000Y-85927064D02*
X142890000Y-84472936D01*
X144710000Y-85927064D02*
X144710000Y-84472936D01*
%TD*%
%LPC*%
D12*
%TO.C,Q1*%
X147550000Y-83762500D03*
X145650000Y-83762500D03*
X146600000Y-85637500D03*
%TD*%
D13*
%TO.C,R1*%
X149400000Y-83650000D03*
X149400000Y-86750000D03*
%TD*%
%TO.C,R4*%
X141300000Y-83650000D03*
X141300000Y-86750000D03*
%TD*%
D14*
%TO.C,C1*%
X139137500Y-79750000D03*
X142262500Y-79750000D03*
%TD*%
D13*
%TO.C,R5*%
X138800000Y-83650000D03*
X138800000Y-86750000D03*
%TD*%
D15*
%TO.C,D1*%
X141312500Y-77200000D03*
X144287500Y-77200000D03*
%TD*%
D16*
%TO.C,U1*%
X134200000Y-76900000D03*
X136500000Y-76900000D03*
X138800000Y-76900000D03*
D17*
X136500000Y-70600000D03*
%TD*%
D18*
%TO.C,C3*%
X137198500Y-79750000D03*
X134073500Y-79750000D03*
%TD*%
D13*
%TO.C,R6*%
X153200000Y-88850000D03*
X153200000Y-91950000D03*
%TD*%
D19*
%TO.C,J1*%
X135800000Y-89525000D03*
D20*
X135800000Y-86985000D03*
X135800000Y-84445000D03*
%TD*%
D12*
%TO.C,Q2*%
X153150000Y-83762500D03*
X151250000Y-83762500D03*
X152200000Y-85637500D03*
%TD*%
D21*
%TO.C,R7*%
X151000000Y-91950000D03*
X151000000Y-88850000D03*
%TD*%
D22*
%TO.C,R9*%
X144450000Y-70300000D03*
X141350000Y-70300000D03*
%TD*%
D14*
%TO.C,C2*%
X149637500Y-69200000D03*
X152762500Y-69200000D03*
%TD*%
D23*
%TO.C,R3*%
X141250000Y-74900000D03*
X144350000Y-74900000D03*
%TD*%
D22*
%TO.C,R8*%
X144350000Y-72600000D03*
X141250000Y-72600000D03*
%TD*%
D24*
%TO.C,U2*%
X152075000Y-80137000D03*
X152075000Y-78867000D03*
X152075000Y-77597000D03*
X152075000Y-76327000D03*
X152075000Y-75057000D03*
X152075000Y-73787000D03*
X152075000Y-72517000D03*
X152075000Y-71247000D03*
X147125000Y-71247000D03*
X147125000Y-72517000D03*
X147125000Y-73787000D03*
X147125000Y-75057000D03*
X147125000Y-76327000D03*
X147125000Y-77597000D03*
X147125000Y-78867000D03*
X147125000Y-80137000D03*
%TD*%
D25*
%TO.C,P1*%
X146390000Y-67105000D03*
X140610000Y-67105000D03*
D26*
X146850000Y-68170000D03*
X146050000Y-68170000D03*
X144750000Y-68170000D03*
X143750000Y-68170000D03*
X143250000Y-68170000D03*
X142250000Y-68170000D03*
X140950000Y-68170000D03*
X140150000Y-68170000D03*
X140450000Y-68170000D03*
X141250000Y-68170000D03*
X141750000Y-68170000D03*
X142750000Y-68170000D03*
X144250000Y-68170000D03*
X145250000Y-68170000D03*
X145750000Y-68170000D03*
X146550000Y-68170000D03*
D27*
X147820000Y-67605000D03*
D28*
X147820000Y-63425000D03*
D27*
X139180000Y-67605000D03*
D28*
X139180000Y-63425000D03*
%TD*%
D15*
%TO.C,D3*%
X142112500Y-91200000D03*
X145087500Y-91200000D03*
%TD*%
%TO.C,D2*%
X143712500Y-88800000D03*
X146687500Y-88800000D03*
%TD*%
D21*
%TO.C,R2*%
X143800000Y-86750000D03*
X143800000Y-83650000D03*
%TD*%
D19*
%TO.C,J3*%
X135000000Y-63325000D03*
D20*
X135000000Y-65865000D03*
%TD*%
D19*
%TO.C,J2*%
X149750000Y-94000000D03*
D20*
X147210000Y-94000000D03*
X144670000Y-94000000D03*
X142130000Y-94000000D03*
X139590000Y-94000000D03*
X137050000Y-94000000D03*
%TD*%
D19*
%TO.C,J4*%
X152000000Y-63325000D03*
D20*
X152000000Y-65865000D03*
%TD*%
M02*
